<?xml version="1.0" encoding="utf-8"?>
<!-- Generator: Adobe Illustrator 25.0.0, SVG Export Plug-In . SVG Version: 6.00 Build 0)  -->
<svg version="1.1" id="Layer_1" xmlns="http://www.w3.org/2000/svg" xmlns:xlink="http://www.w3.org/1999/xlink" x="0px" y="0px"
	 viewBox="0 0 541.6 94.5" style="enable-background:new 0 0 541.6 94.5;" xml:space="preserve">
<style type="text/css">
	.st0{fill-rule:evenodd;clip-rule:evenodd;fill:#FFFFFF;}
	.st1{fill:#FFFFFF;}
	.st2{fill:none;stroke:#FFFFFF;stroke-width:1.2756;stroke-miterlimit:3.8637;}
</style>
<path class="st0" d="M151.6,42h-6.2l-0.7,1.7c-0.2,0.6-0.4,1-0.4,1.4c0,0.5,0.2,0.9,0.6,1.1c0.2,0.1,0.8,0.2,1.7,0.3V47h-5.8v-0.5
	c0.6-0.1,1.1-0.4,1.5-0.8c0.4-0.4,0.9-1.3,1.5-2.6l6.3-13.9h0.2l6.3,14.3c0.6,1.4,1.1,2.2,1.5,2.6c0.3,0.3,0.7,0.4,1.2,0.5V47h-8.5
	v-0.5h0.3c0.7,0,1.2-0.1,1.4-0.3c0.2-0.1,0.3-0.3,0.3-0.6c0-0.2,0-0.3-0.1-0.5c0-0.1-0.1-0.4-0.4-1L151.6,42L151.6,42z M151.2,41
	l-2.6-6l-2.7,6H151.2L151.2,41z"/>
<path class="st1" d="M170.1,34.9v9.4c0,0.9,0.1,1.5,0.3,1.7c0.2,0.2,0.5,0.4,1,0.4V47h-4.9v-1.6c-0.6,0.7-1.2,1.2-1.7,1.5
	c-0.6,0.3-1.2,0.5-1.9,0.5c-0.7,0-1.3-0.2-1.8-0.6c-0.5-0.4-0.9-0.9-1.1-1.5c-0.2-0.6-0.3-1.5-0.3-2.9v-4.8c0-0.9-0.1-1.5-0.3-1.7
	c-0.2-0.2-0.5-0.4-1-0.4v-0.5h4.9v8.2c0,0.9,0,1.4,0.1,1.7c0.1,0.2,0.2,0.4,0.4,0.6c0.2,0.1,0.4,0.2,0.6,0.2c0.3,0,0.6-0.1,0.8-0.2
	c0.3-0.2,0.8-0.7,1.2-1.4v-6.4c0-0.9-0.1-1.5-0.3-1.7c-0.2-0.2-0.5-0.4-1-0.4v-0.5H170.1L170.1,34.9z"/>
<path class="st1" d="M179.8,34.6l0.2,4.1h-0.4c-0.5-1.2-1.1-2.1-1.6-2.5c-0.6-0.4-1.1-0.7-1.7-0.7c-0.4,0-0.7,0.1-0.9,0.4
	c-0.2,0.2-0.4,0.5-0.4,0.8c0,0.2,0.1,0.5,0.3,0.7c0.3,0.4,1,1,2.3,1.8c1.3,0.9,2.1,1.6,2.5,2.2c0.4,0.6,0.6,1.3,0.6,2
	c0,0.7-0.2,1.3-0.5,2c-0.3,0.6-0.8,1.1-1.4,1.5c-0.6,0.3-1.3,0.5-2,0.5c-0.6,0-1.3-0.2-2.3-0.5c-0.3-0.1-0.4-0.1-0.5-0.1
	c-0.3,0-0.5,0.2-0.7,0.6h-0.4l-0.2-4.3h0.4c0.4,1.1,0.9,2,1.6,2.6c0.7,0.6,1.3,0.9,1.9,0.9c0.4,0,0.7-0.1,1-0.4
	c0.3-0.3,0.4-0.6,0.4-0.9c0-0.4-0.1-0.8-0.4-1.1c-0.3-0.3-0.8-0.8-1.7-1.4c-1.3-0.9-2.2-1.6-2.6-2.1c-0.6-0.7-0.9-1.5-0.9-2.3
	c0-0.9,0.3-1.8,1-2.5c0.6-0.8,1.6-1.1,2.8-1.1c0.7,0,1.3,0.2,1.9,0.5c0.2,0.1,0.4,0.2,0.6,0.2c0.2,0,0.3,0,0.4-0.1
	c0.1-0.1,0.2-0.3,0.5-0.6H179.8L179.8,34.6z"/>
<path class="st1" d="M186.2,30.5v4.4h2.9v1.3h-2.9v7.4c0,0.7,0,1.1,0.1,1.4c0.1,0.2,0.2,0.4,0.3,0.5c0.2,0.1,0.3,0.2,0.5,0.2
	c0.6,0,1.1-0.4,1.6-1.3l0.4,0.3c-0.7,1.6-1.8,2.5-3.4,2.5c-0.8,0-1.4-0.2-1.9-0.6c-0.5-0.4-0.9-0.9-1-1.4c-0.1-0.3-0.1-1.1-0.1-2.4
	v-6.5H181v-0.5c1.1-0.8,2-1.6,2.8-2.4c0.8-0.8,1.4-1.8,2-2.8H186.2L186.2,30.5z"/>
<path class="st1" d="M195,34.9v2.7c0.8-1.2,1.5-2.1,2.1-2.5c0.6-0.4,1.2-0.6,1.7-0.6c0.5,0,0.9,0.2,1.1,0.5c0.3,0.3,0.4,0.7,0.4,1.3
	c0,0.6-0.1,1-0.4,1.3c-0.3,0.3-0.6,0.5-1,0.5c-0.5,0-0.9-0.1-1.2-0.4c-0.3-0.3-0.5-0.5-0.6-0.5c-0.1-0.1-0.2-0.1-0.3-0.1
	c-0.2,0-0.5,0.1-0.7,0.3c-0.4,0.3-0.6,0.7-0.8,1.3c-0.3,0.8-0.4,1.8-0.4,2.8v2.8l0,0.7c0,0.5,0,0.8,0.1,0.9c0.1,0.2,0.3,0.4,0.5,0.5
	c0.2,0.1,0.5,0.2,1,0.2V47H190v-0.5c0.5,0,0.9-0.2,1.1-0.4c0.2-0.2,0.3-0.9,0.3-1.9v-6.7c0-0.7,0-1.1-0.1-1.3
	c-0.1-0.2-0.2-0.4-0.4-0.5c-0.2-0.1-0.5-0.2-0.9-0.2v-0.5H195L195,34.9z"/>
<path class="st0" d="M207,45.2c-1.5,1.3-2.8,1.9-4,1.9c-0.7,0-1.3-0.2-1.7-0.7c-0.5-0.5-0.7-1-0.7-1.7c0-0.9,0.4-1.7,1.2-2.5
	c0.8-0.7,2.5-1.7,5.2-2.9v-1.2c0-0.9-0.1-1.5-0.2-1.7c-0.1-0.2-0.3-0.4-0.6-0.6c-0.3-0.2-0.6-0.3-0.9-0.3c-0.6,0-1,0.1-1.4,0.4
	c-0.2,0.2-0.3,0.3-0.3,0.5c0,0.2,0.1,0.4,0.4,0.7c0.3,0.4,0.5,0.7,0.5,1.1c0,0.4-0.2,0.8-0.5,1.1c-0.3,0.3-0.7,0.4-1.2,0.4
	c-0.5,0-1-0.2-1.4-0.5c-0.4-0.3-0.5-0.7-0.5-1.1c0-0.6,0.2-1.2,0.7-1.8c0.5-0.6,1.2-1,2-1.3c0.9-0.3,1.8-0.5,2.7-0.5
	c1.1,0,2,0.2,2.7,0.7c0.7,0.5,1.1,1,1.3,1.6c0.1,0.4,0.2,1.2,0.2,2.5V44c0,0.6,0,0.9,0.1,1c0,0.1,0.1,0.2,0.2,0.3
	c0.1,0.1,0.2,0.1,0.3,0.1c0.2,0,0.5-0.2,0.7-0.5l0.4,0.3c-0.4,0.6-0.9,1.1-1.3,1.4c-0.5,0.3-1,0.4-1.6,0.4c-0.7,0-1.2-0.2-1.6-0.5
	C207.3,46.3,207.1,45.8,207,45.2L207,45.2z M207,44.3v-4c-1,0.6-1.8,1.3-2.3,2c-0.3,0.5-0.5,0.9-0.5,1.4c0,0.4,0.1,0.7,0.4,1
	c0.2,0.2,0.5,0.3,0.9,0.3C205.9,45,206.4,44.7,207,44.3L207,44.3z"/>
<path class="st1" d="M217.5,29.5v15c0,0.9,0.1,1.4,0.3,1.6c0.2,0.2,0.6,0.4,1.2,0.4V47h-6.5v-0.5c0.5,0,0.9-0.2,1.2-0.5
	c0.2-0.2,0.3-0.7,0.3-1.6V32c0-0.8-0.1-1.4-0.3-1.6c-0.2-0.2-0.6-0.4-1.1-0.4v-0.5H217.5L217.5,29.5z"/>
<path class="st0" d="M223,29.1c0.6,0,1,0.2,1.4,0.6c0.4,0.4,0.6,0.9,0.6,1.4c0,0.6-0.2,1-0.6,1.4c-0.4,0.4-0.9,0.6-1.4,0.6
	c-0.6,0-1-0.2-1.4-0.6s-0.6-0.9-0.6-1.4c0-0.6,0.2-1,0.6-1.4C222,29.3,222.4,29.1,223,29.1L223,29.1z M224.8,34.9v9.6
	c0,0.9,0.1,1.4,0.3,1.6c0.2,0.2,0.6,0.4,1.2,0.4V47h-6.5v-0.5c0.5,0,0.9-0.2,1.2-0.5c0.2-0.2,0.3-0.7,0.3-1.6v-7
	c0-0.9-0.1-1.4-0.3-1.6c-0.2-0.2-0.6-0.4-1.1-0.4v-0.5H224.8L224.8,34.9z"/>
<path class="st0" d="M233.3,45.2c-1.5,1.3-2.8,1.9-4,1.9c-0.7,0-1.3-0.2-1.7-0.7c-0.5-0.5-0.7-1-0.7-1.7c0-0.9,0.4-1.7,1.2-2.5
	c0.8-0.7,2.5-1.7,5.2-2.9v-1.2c0-0.9-0.1-1.5-0.2-1.7c-0.1-0.2-0.3-0.4-0.6-0.6c-0.3-0.2-0.6-0.3-0.9-0.3c-0.6,0-1,0.1-1.4,0.4
	c-0.2,0.2-0.3,0.3-0.3,0.5c0,0.2,0.1,0.4,0.4,0.7c0.3,0.4,0.5,0.7,0.5,1.1c0,0.4-0.2,0.8-0.5,1.1c-0.3,0.3-0.7,0.4-1.2,0.4
	c-0.5,0-1-0.2-1.4-0.5c-0.4-0.3-0.5-0.7-0.5-1.1c0-0.6,0.2-1.2,0.7-1.8c0.5-0.6,1.2-1,2-1.3c0.9-0.3,1.8-0.5,2.7-0.5
	c1.1,0,2,0.2,2.7,0.7c0.7,0.5,1.1,1,1.3,1.6c0.1,0.4,0.2,1.2,0.2,2.5V44c0,0.6,0,0.9,0.1,1c0,0.1,0.1,0.2,0.2,0.3
	c0.1,0.1,0.2,0.1,0.3,0.1c0.2,0,0.5-0.2,0.7-0.5l0.4,0.3c-0.4,0.6-0.9,1.1-1.3,1.4c-0.5,0.3-1,0.4-1.6,0.4c-0.7,0-1.2-0.2-1.6-0.5
	C233.6,46.3,233.4,45.8,233.3,45.2L233.3,45.2z M233.3,44.3v-4c-1,0.6-1.8,1.3-2.3,2c-0.3,0.5-0.5,0.9-0.5,1.4c0,0.4,0.1,0.7,0.4,1
	c0.2,0.2,0.5,0.3,0.9,0.3C232.2,45,232.7,44.7,233.3,44.3L233.3,44.3z"/>
<path class="st1" d="M243.7,34.9v1.6c0.6-0.7,1.2-1.2,1.8-1.5c0.6-0.3,1.2-0.5,1.8-0.5c0.8,0,1.4,0.2,1.9,0.7c0.5,0.4,0.9,1,1,1.6
	c0.1,0.5,0.2,1.4,0.2,2.8v4.7c0,0.9,0.1,1.5,0.2,1.7c0.2,0.2,0.5,0.4,1.1,0.4V47h-6.1v-0.5c0.5-0.1,0.8-0.2,1-0.6
	c0.1-0.2,0.2-0.7,0.2-1.6V39c0-1,0-1.6-0.1-1.9c-0.1-0.3-0.2-0.5-0.4-0.6c-0.2-0.1-0.4-0.2-0.6-0.2c-0.7,0-1.4,0.5-2.1,1.6v6.5
	c0,0.9,0.1,1.5,0.2,1.7c0.2,0.2,0.5,0.4,0.9,0.5V47h-6.1v-0.5c0.5-0.1,0.9-0.2,1.1-0.5c0.1-0.2,0.2-0.7,0.2-1.7v-6.8
	c0-0.9-0.1-1.5-0.3-1.7c-0.2-0.2-0.5-0.4-1-0.4v-0.5H243.7L243.7,34.9z"/>
<path class="st1" d="M275.5,29.1v6.2h-0.5c-0.6-1.7-1.4-3-2.6-3.8c-1.2-0.9-2.4-1.3-3.8-1.3c-1.3,0-2.4,0.4-3.3,1.1
	c-0.9,0.7-1.5,1.8-1.8,3.1c-0.4,1.3-0.5,2.7-0.5,4c0,1.7,0.2,3.1,0.6,4.4c0.4,1.3,1,2.2,1.9,2.8c0.9,0.6,1.9,0.9,3.1,0.9
	c0.4,0,0.9,0,1.3-0.1c0.4-0.1,0.9-0.2,1.4-0.4v-3.6c0-0.7,0-1.1-0.1-1.3c-0.1-0.2-0.3-0.4-0.6-0.6c-0.3-0.2-0.6-0.2-1.1-0.2h-0.5
	v-0.5h8.5v0.5c-0.6,0-1.1,0.1-1.4,0.3c-0.2,0.1-0.4,0.3-0.6,0.7c-0.1,0.2-0.1,0.6-0.1,1.2v3.6c-1.1,0.5-2.3,0.9-3.5,1.1
	c-1.2,0.3-2.5,0.4-3.8,0.4c-1.7,0-3-0.2-4.1-0.7c-1.1-0.5-2.1-1-2.9-1.8c-0.8-0.7-1.5-1.6-2-2.5c-0.6-1.2-0.9-2.5-0.9-4
	c0-2.6,0.9-4.9,2.8-6.7c1.8-1.8,4.2-2.7,7-2.7c0.9,0,1.6,0.1,2.3,0.2c0.4,0.1,1,0.3,1.8,0.6c0.9,0.3,1.4,0.5,1.5,0.5
	c0.2,0,0.5-0.1,0.7-0.3c0.2-0.2,0.4-0.5,0.6-1H275.5L275.5,29.1z"/>
<path class="st0" d="M283.9,34.6c1,0,2,0.3,2.9,0.8c0.9,0.5,1.6,1.3,2,2.3c0.5,1,0.7,2.1,0.7,3.3c0,1.7-0.4,3.1-1.3,4.3
	c-1,1.4-2.5,2.1-4.3,2.1c-1.8,0-3.2-0.6-4.2-1.9c-1-1.3-1.5-2.7-1.5-4.4c0-1.7,0.5-3.2,1.5-4.5C280.8,35.2,282.2,34.6,283.9,34.6
	L283.9,34.6z M284,35.5c-0.4,0-0.8,0.2-1.1,0.5c-0.3,0.3-0.5,1-0.6,2c-0.1,1-0.1,2.3-0.1,4.1c0,0.9,0.1,1.8,0.2,2.6
	c0.1,0.6,0.3,1.1,0.6,1.4c0.3,0.3,0.7,0.5,1.1,0.5c0.4,0,0.7-0.1,1-0.3c0.3-0.3,0.6-0.7,0.7-1.2c0.2-0.8,0.3-2.5,0.3-4.9
	c0-1.5-0.1-2.5-0.2-3c-0.2-0.5-0.4-0.9-0.7-1.2C284.6,35.6,284.3,35.5,284,35.5L284,35.5z"/>
<path class="st1" d="M295.3,47.3l-4.1-9.3c-0.5-1.1-0.9-1.8-1.1-2.1c-0.2-0.2-0.5-0.4-0.9-0.5v-0.5h6.4v0.5c-0.4,0-0.7,0.1-0.8,0.2
	c-0.2,0.2-0.3,0.4-0.3,0.7c0,0.3,0.2,0.9,0.6,1.8l2,4.5l1.6-3.9c0.5-1.1,0.7-1.9,0.7-2.4c0-0.3-0.1-0.5-0.3-0.6
	c-0.2-0.2-0.5-0.3-1-0.3v-0.5h3.9v0.5c-0.4,0.1-0.7,0.2-0.9,0.4c-0.2,0.2-0.6,0.9-1.1,2l-4,9.5H295.3L295.3,47.3z"/>
<path class="st0" d="M311.4,40.5h-6.6c0.1,1.6,0.5,2.9,1.3,3.8c0.6,0.7,1.3,1.1,2.1,1.1c0.5,0,1-0.1,1.4-0.4
	c0.4-0.3,0.9-0.8,1.4-1.6l0.4,0.3c-0.7,1.3-1.4,2.3-2.2,2.8c-0.8,0.6-1.7,0.8-2.7,0.8c-1.8,0-3.1-0.7-4.1-2.1
	c-0.7-1.1-1.1-2.5-1.1-4.1c0-2,0.5-3.6,1.6-4.8c1.1-1.2,2.4-1.8,3.8-1.8c1.2,0,2.3,0.5,3.2,1.5C310.8,37.1,311.3,38.5,311.4,40.5
	L311.4,40.5z M308.2,39.7c0-1.4-0.1-2.3-0.2-2.8c-0.1-0.5-0.4-0.9-0.7-1.2c-0.2-0.2-0.4-0.2-0.7-0.2c-0.4,0-0.8,0.2-1.1,0.7
	c-0.5,0.8-0.8,1.8-0.8,3.1v0.5H308.2L308.2,39.7z"/>
<path class="st1" d="M317.1,34.9v2.7c0.8-1.2,1.5-2.1,2.1-2.5c0.6-0.4,1.2-0.6,1.7-0.6c0.5,0,0.9,0.2,1.1,0.5
	c0.3,0.3,0.4,0.7,0.4,1.3c0,0.6-0.1,1-0.4,1.3c-0.3,0.3-0.6,0.5-1,0.5c-0.5,0-0.9-0.1-1.2-0.4c-0.3-0.3-0.5-0.5-0.6-0.5
	c-0.1-0.1-0.2-0.1-0.3-0.1c-0.2,0-0.5,0.1-0.7,0.3c-0.4,0.3-0.6,0.7-0.8,1.3c-0.3,0.8-0.4,1.8-0.4,2.8v2.8l0,0.7
	c0,0.5,0,0.8,0.1,0.9c0.1,0.2,0.3,0.4,0.5,0.5c0.2,0.1,0.5,0.2,1,0.2V47h-6.5v-0.5c0.5,0,0.9-0.2,1.1-0.4c0.2-0.2,0.3-0.9,0.3-1.9
	v-6.7c0-0.7,0-1.1-0.1-1.3c-0.1-0.2-0.2-0.4-0.4-0.5c-0.2-0.1-0.5-0.2-0.9-0.2v-0.5H317.1L317.1,34.9z"/>
<path class="st1" d="M328.2,34.9v1.6c0.6-0.7,1.2-1.2,1.8-1.5c0.6-0.3,1.2-0.5,1.8-0.5c0.8,0,1.4,0.2,1.9,0.7c0.5,0.4,0.9,1,1,1.6
	c0.1,0.5,0.2,1.4,0.2,2.8v4.7c0,0.9,0.1,1.5,0.2,1.7c0.2,0.2,0.5,0.4,1.1,0.4V47h-6.1v-0.5c0.5-0.1,0.8-0.2,1-0.6
	c0.1-0.2,0.2-0.7,0.2-1.6V39c0-1,0-1.6-0.1-1.9c-0.1-0.3-0.2-0.5-0.4-0.6c-0.2-0.1-0.4-0.2-0.6-0.2c-0.7,0-1.4,0.5-2.1,1.6v6.5
	c0,0.9,0.1,1.5,0.2,1.7c0.2,0.2,0.5,0.4,0.9,0.5V47h-6.1v-0.5c0.5-0.1,0.9-0.2,1.1-0.5c0.1-0.2,0.2-0.7,0.2-1.7v-6.8
	c0-0.9-0.1-1.5-0.3-1.7c-0.2-0.2-0.5-0.4-1-0.4v-0.5H328.2L328.2,34.9z"/>
<path class="st1" d="M342.2,34.9v1.6c0.7-0.7,1.3-1.2,1.8-1.5c0.6-0.3,1.2-0.4,1.9-0.4c0.8,0,1.4,0.2,1.9,0.5
	c0.5,0.4,0.9,0.9,1.2,1.7c0.7-0.8,1.3-1.3,2-1.7c0.6-0.3,1.3-0.5,2-0.5c0.8,0,1.5,0.2,2,0.6c0.5,0.4,0.8,0.9,1,1.5
	c0.2,0.6,0.3,1.5,0.3,2.8v4.9c0,0.9,0.1,1.5,0.2,1.7c0.2,0.2,0.5,0.4,1.1,0.4V47h-6.2v-0.5c0.5,0,0.9-0.2,1.1-0.6
	c0.2-0.2,0.2-0.8,0.2-1.6v-5.2c0-1.1,0-1.8-0.1-2c-0.1-0.3-0.2-0.5-0.4-0.6c-0.2-0.1-0.4-0.2-0.6-0.2c-0.4,0-0.7,0.1-1.1,0.4
	c-0.4,0.3-0.8,0.7-1.1,1.2v6.5c0,0.9,0.1,1.4,0.2,1.6c0.2,0.3,0.6,0.5,1.1,0.5V47h-6.2v-0.5c0.3,0,0.6-0.1,0.8-0.2
	c0.2-0.2,0.3-0.3,0.4-0.5c0.1-0.2,0.1-0.7,0.1-1.4v-5.2c0-1.1,0-1.8-0.1-2c-0.1-0.3-0.2-0.5-0.4-0.6c-0.2-0.2-0.4-0.2-0.6-0.2
	c-0.3,0-0.7,0.1-0.9,0.3c-0.4,0.3-0.8,0.7-1.3,1.4v6.5c0,0.9,0.1,1.4,0.2,1.7c0.2,0.3,0.5,0.4,1.1,0.5V47h-6.2v-0.5
	c0.5-0.1,0.9-0.2,1.1-0.5c0.1-0.2,0.2-0.7,0.2-1.7v-6.8c0-0.9-0.1-1.5-0.3-1.7c-0.2-0.2-0.5-0.4-1-0.4v-0.5H342.2L342.2,34.9z"/>
<path class="st0" d="M368.3,40.5h-6.6c0.1,1.6,0.5,2.9,1.3,3.8c0.6,0.7,1.3,1.1,2.1,1.1c0.5,0,1-0.1,1.4-0.4
	c0.4-0.3,0.9-0.8,1.4-1.6l0.4,0.3c-0.7,1.3-1.4,2.3-2.2,2.8c-0.8,0.6-1.7,0.8-2.7,0.8c-1.8,0-3.1-0.7-4.1-2.1
	c-0.7-1.1-1.1-2.5-1.1-4.1c0-2,0.5-3.6,1.6-4.8c1.1-1.2,2.4-1.8,3.8-1.8c1.2,0,2.3,0.5,3.2,1.5C367.8,37.1,368.3,38.5,368.3,40.5
	L368.3,40.5z M365.2,39.7c0-1.4-0.1-2.3-0.2-2.8c-0.1-0.5-0.4-0.9-0.7-1.2c-0.2-0.2-0.4-0.2-0.7-0.2c-0.4,0-0.8,0.2-1.1,0.7
	c-0.5,0.8-0.8,1.8-0.8,3.1v0.5H365.2L365.2,39.7z"/>
<path class="st1" d="M373.7,34.9v1.6c0.6-0.7,1.2-1.2,1.8-1.5c0.6-0.3,1.2-0.5,1.8-0.5c0.8,0,1.4,0.2,1.9,0.7c0.5,0.4,0.9,1,1,1.6
	c0.1,0.5,0.2,1.4,0.2,2.8v4.7c0,0.9,0.1,1.5,0.2,1.7c0.2,0.2,0.5,0.4,1.1,0.4V47h-6.1v-0.5c0.5-0.1,0.8-0.2,1-0.6
	c0.1-0.2,0.2-0.7,0.2-1.6V39c0-1,0-1.6-0.1-1.9c-0.1-0.3-0.2-0.5-0.4-0.6c-0.2-0.1-0.4-0.2-0.6-0.2c-0.7,0-1.4,0.5-2.1,1.6v6.5
	c0,0.9,0.1,1.5,0.2,1.7c0.2,0.2,0.5,0.4,0.9,0.5V47h-6.1v-0.5c0.5-0.1,0.9-0.2,1.1-0.5c0.1-0.2,0.2-0.7,0.2-1.7v-6.8
	c0-0.9-0.1-1.5-0.3-1.7c-0.2-0.2-0.5-0.4-1-0.4v-0.5H373.7L373.7,34.9z"/>
<path class="st1" d="M386.9,30.5v4.4h2.9v1.3h-2.9v7.4c0,0.7,0,1.1,0.1,1.4c0.1,0.2,0.2,0.4,0.3,0.5c0.2,0.1,0.3,0.2,0.5,0.2
	c0.6,0,1.1-0.4,1.6-1.3l0.4,0.3c-0.7,1.6-1.8,2.5-3.4,2.5c-0.8,0-1.4-0.2-1.9-0.6c-0.5-0.4-0.9-0.9-1-1.4c-0.1-0.3-0.1-1.1-0.1-2.4
	v-6.5h-1.6v-0.5c1.1-0.8,2-1.6,2.8-2.4c0.8-0.8,1.4-1.8,2-2.8H386.9L386.9,30.5z"/>
<path class="st1" d="M43.5,75.7c-0.1,0.1-0.2,0.3-0.3,0.3"/>
<path class="st1" d="M46.5,52.1c0.3,0,0.6-0.3,0.6-0.6c0-0.4-0.3-0.6-0.6-0.6c-0.3,0-0.6,0.3-0.6,0.6C45.8,51.9,46.1,52.1,46.5,52.1
	L46.5,52.1z"/>
<path class="st1" d="M75.7,25.5L75.7,25.5l-22.7,0v0h0l0,18.4c0,1.8,0.8,3.3,1.8,3.8l8.7,5.2c0.2,0.2,0.5,0.4,0.8,0.4
	c0.3,0,0.5-0.1,0.7-0.3l8.9-5.3c1-0.5,1.8-2,1.8-3.8L75.7,25.5L75.7,25.5L75.7,25.5z M60.5,30.8h-2v-4.7h2V30.8L60.5,30.8z
	 M59.1,32.4l0.3-0.3l-0.2-0.3l0.4,0l0.2-0.4l0.2,0.4l0.4,0l-0.2,0.3l0.3,0.3l-0.4,0.1v0.4l-0.3-0.3l-0.3,0.3v-0.4L59.1,32.4
	L59.1,32.4z M53.6,38.3v-4.5H56v4.5H53.6L53.6,38.3z M54,31.8l0.4,0l0.2-0.4l0.2,0.4l0.4,0L55,32.1l0.3,0.3l-0.4,0.1v0.4l-0.3-0.3
	l-0.3,0.3v-0.4l-0.4-0.1l0.3-0.3L54,31.8L54,31.8z M56.7,36.4l0.4,0l0.2-0.4l0.2,0.4l0.4,0l-0.2,0.3L58,37L57.6,37v0.4l-0.3-0.3
	L57,37.4V37L56.6,37l0.3-0.3L56.7,36.4L56.7,36.4z M58.3,32.8c0-0.1-0.2-0.2-0.2-0.2c-0.2,0-0.3,0.4-0.5,0.4c-0.1,0-0.2,0-0.2-0.1
	c0-0.1,0.3-0.2,0.4-0.3c-1.5,0-1.5,0.7-1.7,0.7c-0.4,0,0.3-0.7,0.5-0.9c-0.3,0-0.5-0.4-0.8-0.6c0.2-0.2,0.2-0.1,0.4,0
	c0-0.2,0.1-0.3,0.5-0.3c0.7,0,0.5,0.6,0.6,0.6c0.1,0,0-0.6,0.4-0.6c0.7,0,1.5,1.7,0.7,1.7C58,33.1,58.3,32.8,58.3,32.8L58.3,32.8z
	 M56.6,27.9l0.3-0.3l-0.2-0.3l0.4,0l0.2-0.4l0.2,0.4l0.4,0l-0.2,0.3l0.3,0.3l-0.4,0.1v0.4l-0.3-0.3L57,28.3v-0.4L56.6,27.9
	L56.6,27.9z M56,26.1v4.7h-2.4v-4.7H56L56,26.1z M60.5,50.4l-5.4-3.3c-0.9-0.6-1.4-1.7-1.5-3v-5.2h6.9V50.4L60.5,50.4z M58.6,38.3
	v-4.5h2v4.5H58.6L58.6,38.3z M67.5,50.7L65,52.2h0c-0.2,0.1-0.4,0.2-0.7,0.2c-0.3,0-0.5-0.1-0.7-0.2l-2.5-1.5V38.9h6.4V50.7
	L67.5,50.7z M67.5,38.3h-6.4V26.1h6.4V38.3L67.5,38.3z M75.1,44.1c-0.1,1.3-0.6,2.4-1.5,3l-5.4,3.3V38.9h6.9V44.1L75.1,44.1z
	 M75.1,38.3h-6.9V26.1h6.9V38.3L75.1,38.3z"/>
<path class="st1" d="M60.2,43.1c0-0.1-0.9,0.3-0.6,0.3c0-0.2,0.5-0.7,0.7-0.9c0-0.3-0.4,0-0.8,0.2c1.3-1.9,0.5-1.1-0.3-1
	c1.2-1.2,0.9-1.2,0-0.8c0.7-0.5,0.8-1.2,0.7-1.3c-0.6,0.8-1.2,0.7-1.2,1.5c0,0.5-0.2,1.4-0.4,1.6c-0.3,0.4-0.1-1.4-1-1.4
	c-0.3,0-1,0-1.2,0.3c0.2,0,0.5,0.5,0.5,0.6c0,0.2,0.2,0.7-0.1,0.7c-0.3,0-0.7-0.6-0.7-0.9c0-0.3,0-0.2,0-0.7c0-0.7-1.2-1.8-1.7-1.8
	c0,0.5,0.7,0.6,0.7,1.3c-0.3,0-0.7-0.5-0.7-0.2c0,0.3,0.4,0.4,0.4,0.7c0,0.3-0.5-0.1-0.5,0.2c0,0.3,0.3,0.2,0.3,0.5
	c-0.2-0.1-0.4,0-0.4,0.1c0,0.1,0.1,0.2,0.2,0.3C54,42.4,54,42.5,54,42.9c0,1.5,0.9,2.1,1.6,2.1c0.5,0,0.4-0.3,0.5-0.5
	c0,0.2,0.3-0.1,0.3,0.3c0,0.4-0.5,0.3-0.5,0.6c0,0.5,0.7,0,0.7,0.6c0,0.7-0.1,0.7-0.1,0.9c0,0.2,0.8-0.3,0.7-0.3
	c0.2,0.1,0.2,0.6,0.5,0.6c0.2,0,0.3-0.6,0.4-0.6c-0.1,0,0.7,0.5,0.7,0.3c0-0.7-0.3-0.4-0.3-0.9c0-0.4,0.9-0.3,0.8-0.6
	c-0.1-0.2-0.2-0.1-0.3-0.4c0,0.1-0.7-1.1,0.2-0.5C60.1,45.3,60.2,43.2,60.2,43.1L60.2,43.1z"/>
<path class="st1" d="M84.4,47.9c0.4,0,0.7-0.3,0.7-0.7c0-0.4-0.3-0.7-0.7-0.7c-0.4,0-0.7,0.3-0.7,0.7C83.7,47.6,84,47.9,84.4,47.9
	L84.4,47.9z"/>
<path class="st1" d="M81.4,49.7c0.4,0,0.7-0.3,0.7-0.7c0-0.4-0.3-0.7-0.7-0.7c-0.4,0-0.7,0.3-0.7,0.7C80.7,49.4,81,49.7,81.4,49.7
	L81.4,49.7z"/>
<path class="st1" d="M45.5,53.9c0.4,0,0.7-0.3,0.7-0.7c0-0.4-0.3-0.7-0.7-0.7c-0.4,0-0.7,0.3-0.7,0.7C44.7,53.6,45,53.9,45.5,53.9
	L45.5,53.9z"/>
<path class="st1" d="M47.8,54.1c0.4,0,0.7-0.3,0.7-0.7c0-0.4-0.3-0.7-0.7-0.7c-0.4,0-0.7,0.3-0.7,0.7C47,53.8,47.4,54.1,47.8,54.1
	L47.8,54.1z"/>
<path class="st1" d="M112.5,22.7c1.1,1.3,1.3,3.4,0.6,5c-0.4,0-0.4-0.6-0.4-0.9c-0.8-1.5-1.4-3.4-0.7-5
	C112.4,21.8,112.2,22.4,112.5,22.7L112.5,22.7z"/>
<path class="st1" d="M17.5,24.5c-0.2,1-0.2,2.3,0,3.2c-0.2,0.2-0.2-0.2-0.4-0.2c-1.5-1.1-0.8-3.3-1.2-4.9c0.1-0.1,0.3-0.2,0.4-0.1
	C17.1,23,17.4,23.7,17.5,24.5L17.5,24.5z"/>
<path class="st1" d="M115.9,24.6c0.2,0.4-0.2,0.9-0.5,1.1c-0.4,0.1-0.8-0.1-1-0.4c-0.1-0.4,0.1-0.8,0.5-1
	C115.3,24.2,115.7,24.3,115.9,24.6L115.9,24.6z"/>
<path class="st1" d="M15.1,26.4c-0.1,0.4-0.2,0.7-0.5,0.9c-0.2,0-0.6,0-0.8-0.2c-0.2-0.2-0.3-0.6-0.2-0.8c0.2-0.3,0.5-0.3,0.8-0.4
	C14.7,26,15,26,15.1,26.4L15.1,26.4z"/>
<path class="st1" d="M117.5,27c0.1,0.2,0.1,0.4,0,0.6c-0.3,0.4-0.7,0.5-1.1,0.4c-0.3-0.2-0.4-0.4-0.4-0.7c0.1-0.3,0.4-0.6,0.7-0.7
	C117,26.6,117.2,26.8,117.5,27L117.5,27z"/>
<path class="st1" d="M115.2,27.1c0.3,0.2,0.1,0.6,0,0.8c-0.2,0.2-0.5,0.5-0.8,0.4c-0.2-0.2-0.4-0.2-0.5-0.5c0-0.4,0.2-0.8,0.6-0.9
	C114.8,26.8,115,27,115.2,27.1L115.2,27.1z"/>
<path class="st1" d="M112.3,27.7c0,0.4,0,1-0.5,1.1c-0.5,0.2-0.8-0.2-0.9-0.6c0-0.4,0.2-0.8,0.6-1C111.8,27.2,112.1,27.4,112.3,27.7
	L112.3,27.7z"/>
<path class="st1" d="M19.4,27.9c0.1,0.4-0.3,0.6-0.5,0.8c-0.3,0.1-0.6-0.2-0.8-0.4c-0.3-0.3,0.1-0.5,0.2-0.8
	C18.7,27.2,19.3,27.4,19.4,27.9L19.4,27.9z"/>
<path class="st1" d="M17.1,28c0,0.3-0.2,0.6-0.4,0.8c-0.3,0.1-0.6-0.1-0.8-0.4c-0.2-0.4,0-0.8,0.4-0.9C16.6,27.3,16.9,27.7,17.1,28
	L17.1,28z"/>
<path class="st1" d="M102.7,28.2c0.4,0.8,0.7,1.8,0.8,2.9c-0.2,0.8,0.1,1.8-0.4,2.3c-0.6-0.2-0.6-0.9-1-1.2c-0.7-1.4-0.1-3,0.2-4.4
	C102.6,27.6,102.6,28,102.7,28.2L102.7,28.2z"/>
<path class="st1" d="M15.2,28.6c0.1,0.5-0.2,0.7-0.5,1c-0.5,0.1-0.8-0.2-1-0.6c0-0.4,0.2-0.8,0.5-1C14.6,28.1,15,28.3,15.2,28.6
	L15.2,28.6z"/>
<path class="st1" d="M109,29.8c0.5,1.2,0.6,2.6,0.2,3.8l-0.2,0.2c-0.6-1.1-1.3-2.1-1.6-3.2c0-0.8,0.2-1.6,0.5-2.3
	c0.3-0.2,0.4,0,0.6,0.3C108.4,29,108.6,29.6,109,29.8L109,29.8z"/>
<path class="st1" d="M114,29.1c0,0.4-0.2,0.8-0.6,1c-0.4,0.1-0.8,0-0.9-0.5c-0.1-0.4,0.1-0.8,0.4-1C113.3,28.4,113.8,28.8,114,29.1
	L114,29.1z"/>
<path class="st1" d="M17.1,30.3c0,0.3-0.3,0.7-0.6,0.8c-0.3,0.2-0.6-0.2-0.8-0.3c-0.1-0.3-0.2-0.6,0-0.9c0.1-0.2,0.4-0.2,0.6-0.3
	C16.7,29.8,17,29.9,17.1,30.3L17.1,30.3z"/>
<path class="st1" d="M18.9,30.1c0.2,0.4-0.3,0.6-0.4,0.8c-0.5,0.2-0.7-0.2-0.9-0.5c-0.1-0.4,0.2-0.6,0.4-0.9
	C18.4,29.4,18.7,29.8,18.9,30.1L18.9,30.1z"/>
<path class="st1" d="M115.1,30c0,0.5-0.8,1-0.9,1.6c-0.4,1.1-1.4,1.9-2.5,2.2c-0.2,0.2-0.6,0.5-0.9,0.5c-0.1-0.8,0.6-1.5,1.1-2.2
	C112.7,31,113.9,30.3,115.1,30L115.1,30z"/>
<path class="st1" d="M16.3,31.7c0.6,0.7,0.9,1.3,1.6,1.9c0,0.2-0.1,0.4-0.3,0.4c-1.9-0.1-3.3-2.1-4.2-3.5c0.1-0.4,0.6-0.1,0.9-0.1
	C15,30.8,15.8,31,16.3,31.7L16.3,31.7z"/>
<path class="st1" d="M115.6,32.2c-0.1,1.7-0.9,3.5-2.5,4.3c-0.4,0.2-0.9,0.6-1.3,0.3c0.8-1.7,2.1-3.1,3.5-4.6H115.6L115.6,32.2z"/>
<path class="st1" d="M108,33.4c0.1,0.6-0.2,1-0.7,1.2c-0.4,0-0.7-0.3-0.9-0.6c0-0.4,0.2-0.8,0.6-0.9c0.1-0.1,0.3-0.1,0.5-0.1
	C107.7,33,107.8,33.2,108,33.4L108,33.4z"/>
<path class="st1" d="M14.1,33.8c0.8,0.5,1.4,1.2,2.1,1.9c-0.5,0.4-1.1,0-1.7,0c-1.3-0.5-2.3-1.6-3.6-2c0-0.4,0.6-0.3,0.8-0.4
	C12.6,33.2,13.3,33.6,14.1,33.8L14.1,33.8z"/>
<path class="st1" d="M56.6,21.9c-2.2-0.9-3.7,1.4-6,1.2c-0.3,0.2-0.2,0.4-0.4,0.6c-0.1,0.1-0.3,0-0.4,0c-0.1-1-0.4-1.8-0.6-2.8
	c-0.2-0.4-0.1-1-0.3-1.4c-1.3-3.5,3.1-0.8,4-2.9c0.8-1.8-1.5-2-2.1-3.2V13c-0.6-0.6-1.3-0.8-1.7-1.7c0.3-1,0.4-2.1,0.1-3.1
	c0-0.2-0.2-0.6-0.6-0.4c-0.8,1-1.3,1.9-2,2.9c-0.8-0.6-1.5-1.3-2.3-1.8c-0.6-0.1-1.1-0.7-1.8-0.4c-0.1,0.2,0,0.4,0.1,0.6
	c0,1.6,0.8,2.8,1.9,3.9l0.1,0.6c-0.7,1.6-0.5,3.5-0.7,5.3c-1.8,4.6-4.7,8.9-8.6,12.1c-2.3,2.6-5,5-5.3,8.5c-0.1,0.6,0.1,1.2-0.4,1.6
	c-1.3-0.5-2.6-1.1-3.7-2c-1.8-1.3-4.4-1.1-5.6-3.4c-0.5-0.9,0.1-1.8,0.6-2.5c1.3-1.3,1.2-3.6,0.4-5.1c-0.2,0-0.2,0.2-0.3,0.2
	c-0.1,2.4-2,4-1.3,6.6c0.2,0.8,0.6,1.2,0.8,2c-0.3-0.1-0.7-0.1-0.9-0.2c-0.9-0.1-1.7-0.5-2.7-0.4c-1.8,0.8-4.3-0.2-5.8,1.5
	c-0.2,0-0.6,0.1-0.5,0.4c0.9,0,1.7,0.2,2.6,0.2c1.4,0.2,2.3-0.9,3.3-1.4h0.2c0.4-0.4,1.1-0.2,1.6-0.2c2.5,0.3,4.4,1.5,6.5,2.7v0.2
	c-0.8,0.4-1.7,0.6-2.5,1c-0.9,0.7-1.9,1.6-2.2,2.7c-0.6,1,0.2,1.9,0.6,2.7c0,0.4,0.1,0.9,0.4,1c1.3-1.4,0.1-3,0.3-4.6
	c0.3-1.2,1.4-1.8,2.6-2.1c2.3-1,3.9,0.9,5.7,1.9c0,1.8,0.2,3.6-0.2,5.4c-0.6,0.2-1.3,0.3-1.9,0.3c-3.1,0.2-5.6,2-8.4,2.9
	c-1.3,0.4-2.8,0.4-4,0.9c1,0.3,2-0.1,3.1-0.1c3.9-0.6,6.9-3.6,11.1-3l0.1,0.1c-0.5,1-1.1,1.8-1.9,2.6c-0.1-0.4-0.2-0.8-0.6-1
	c-0.3-0.2-0.7,0-0.9,0.3c-0.1,0.2-0.1,0.4,0,0.6c0.2,0.4,0.5,0.4,0.9,0.6c-0.1,0.4-0.5,0.5-0.8,0.8c-1.1,1.9-3.4,1.1-4.7,2.4
	c-0.2,0.3-0.9,0.4-0.6,0.9c1.5,0.2,3-0.2,4.1-1c1.5-1.6,3-3.2,4.5-4.8c0.2,1.3-0.1,2.6-0.9,3.6c-0.4-0.2-0.6-0.5-1.1-0.6
	c-0.4,0.1-0.7,0.5-0.7,0.8c0.2,0.3,0.3,0.6,0.6,0.8c-1.3,1-3.1,1-4.6,1.5c-2.9,0.4-5.7,0.6-8.6,0.6c-1.4-0.1-3,0.4-4.3,0
	c-1.5,0.3-3.1-0.2-4.4,0.6c-0.2,0.2,0,0.4,0,0.6c1.8,1.2,4.3,0.2,6.4,0.6h15.6c1.2,0,2.3-0.1,3.2-0.6c2-1.2,3.1-3.2,4.2-5.3
	c0.4-0.7,0.7-1.6,0.8-2.4c0.4-1.4,1.6-2.3,3-2.4c0.2,2.1-0.2,4.2-0.7,6.1c-0.2,1.3-1.1,2.5-0.6,3.9c0.1,0.6,0.8,0.6,1.3,0.7
	c4.8-0.1,9.6-0.3,14.7,0.1c0.9,0.2,1.7,0.4,2.7,0.4c0.1-0.1,0.4-0.2,0.2-0.4c-0.1-0.4-0.4-1-1-1.1c-0.1-0.2-0.4-0.2-0.6-0.3
	c-2.5-1.4-5.6-0.7-8.6-0.6c-1.5,0.2-3.1,0.4-4.4-0.4c-0.6-0.7-0.2-3-0.2-3c0-0.9,2.2-7.2,2.5-7.7c0.1-0.6,0.3-1.2,0.2-1.8
	c0.3-0.8,0.2-1.8,0.2-2.7c0.2-1.3,0.8-2.5,1.2-3.7c0.2-0.6,0.4-1.2,0.7-1.8c0.2-0.8,0.3-1.5,0.8-2.1c1.3,0.8,2.6,0.8,3.2,2.3
	l0.5,3.3c0,0.2,0.2,0.6,0.4,0.4c1-0.7,0.7-2.2,0.7-3.2c0.2-1.2-0.6-1.8-1-2.9C51.1,33,50.6,32,50.6,32c-0.2-0.9-2.1-1.5-1.6-2.6
	c0.2-0.9,0.5-1.8,1.3-2.3c0.1,0.1,0.2,0.2,0.2,0.3l0.5-0.3l0-3.3c1.3,0,3.2,0.2,4.5,0.2c0.4,0.1,0.6,0.4,1,0.4l0.3-0.4l3.2-0.6
	C58.7,23.5,57.9,21.9,56.6,21.9L56.6,21.9z"/>
<path class="st1" d="M60.1,23.4c0.1,0,0.2,0,0.3-0.1L60.1,23.4L60.1,23.4z"/>
<path class="st1" d="M25.6,34.5c0,0.5-0.2,0.8-0.6,0.9c-0.3-0.1-0.6-0.2-0.8-0.5c-0.2-0.4,0.2-0.8,0.6-0.9
	C25.1,34.1,25.5,34.1,25.6,34.5L25.6,34.5z"/>
<path class="st1" d="M23,34.5c0.2,0.2,0.3,0.6,0.2,0.9c-0.3,0.2-0.7,0.4-1,0.1c-0.2-0.2-0.5-0.5-0.3-0.8
	C22.2,34.4,22.7,34.2,23,34.5L23,34.5z"/>
<path class="st1" d="M78.2,34.9C78.2,34.9,78.2,35,78.2,34.9"/>
<path class="st1" d="M108.4,35.6c0.2,0.4-0.2,0.8-0.5,0.9c-0.4-0.1-0.9-0.2-0.9-0.7c0-0.3,0.3-0.5,0.6-0.6
	C107.9,35.1,108.3,35.4,108.4,35.6L108.4,35.6z"/>
<path class="st1" d="M110.5,35.5c0.1,0.2,0.4,0.5,0.1,0.7c-0.2,0.1-0.3,0.2-0.4,0.3c-0.4,0.1-0.8-0.1-1-0.5
	c-0.1-0.4,0.3-0.6,0.6-0.8C110.1,35.2,110.3,35.4,110.5,35.5L110.5,35.5z"/>
<path class="st1" d="M13,36c-0.2,0.5-0.6,0.7-1.1,0.5c-0.1-0.1-0.2-0.3-0.3-0.5c0-0.3,0.1-0.6,0.4-0.7C12.5,35.4,12.9,35.6,13,36
	L13,36z"/>
<path class="st1" d="M26.4,36.7c0,0.3-0.4,0.6-0.7,0.8c-0.4,0-0.7-0.3-0.9-0.6c0-0.3,0.2-0.7,0.5-0.8C25.8,35.9,26.2,36.2,26.4,36.7
	L26.4,36.7z"/>
<path class="st1" d="M24.1,36.4c0.1,0.1,0.2,0.4,0.1,0.6c-0.2,0.2-0.6,0.6-1,0.3c-0.2-0.2-0.5-0.4-0.4-0.8c0.2-0.2,0.4-0.4,0.6-0.5
	C23.7,36,23.8,36.2,24.1,36.4L24.1,36.4z"/>
<path class="st1" d="M116.6,36.9c0,0.3-0.3,0.6-0.5,0.8c-0.3,0.1-0.7,0-0.9-0.2c-0.2-0.1-0.2-0.4-0.2-0.6c0.2-0.3,0.5-0.4,0.8-0.5
	C116.2,36.4,116.4,36.6,116.6,36.9L116.6,36.9z"/>
<path class="st1" d="M119.1,37.2c-0.1,0.4-0.4,0.7-0.8,0.7c-0.2,0-0.7-0.1-0.6-0.5c0-0.3,0.2-0.6,0.4-0.6
	C118.5,36.6,119,36.8,119.1,37.2L119.1,37.2z"/>
<path class="st1" d="M17.5,37.8c0.1,0.5-0.1,0.8-0.5,1c-0.3,0.2-0.6,0-0.8-0.2c-0.2-0.2-0.4-0.5-0.2-0.8c0.1-0.4,0.4-0.3,0.7-0.4
	C17.1,37.4,17.3,37.5,17.5,37.8L17.5,37.8z"/>
<path class="st1" d="M19.5,38.2c0.1,0.3-0.2,0.4-0.3,0.7c-0.2,0.1-0.5,0.2-0.7,0.1c-0.3-0.2-0.6-0.6-0.3-1
	C18.5,37.4,19.3,37.7,19.5,38.2L19.5,38.2z"/>
<path class="st1" d="M114.2,38c0,0.4-0.3,0.7-0.6,0.9c-0.4,0.1-0.7-0.2-0.8-0.5c0-0.3,0.2-0.6,0.4-0.8
	C113.7,37.6,114.1,37.6,114.2,38L114.2,38z"/>
<path class="st1" d="M117.5,38.6c-0.1,0.4,0,0.8-0.4,1c-0.3,0.1-0.7,0-1-0.2c-0.2-0.2-0.3-0.6-0.2-0.8c0.2-0.3,0.6-0.6,1-0.5
	C117.2,38.3,117.3,38.5,117.5,38.6L117.5,38.6z"/>
<path class="st1" d="M16,39.4c0.2,0.3-0.2,0.4-0.3,0.6c-0.3,0.2-0.6,0-0.8-0.1c-0.3-0.2-0.2-0.6-0.1-0.8C15.2,38.5,15.9,39,16,39.4
	L16,39.4z"/>
<path class="st1" d="M115,40.2c0.2,0,0.1,0.3,0,0.4c-1,0.5-2.4,0.6-3.2-0.2c-0.5-0.4-1.1-0.6-1.6-0.9c0.2-0.5,0.9-0.5,1.4-0.6
	C112.8,39.1,113.7,40.2,115,40.2L115,40.2z"/>
<path class="st1" d="M17.9,39.8c0.1,0.3-0.2,0.4-0.2,0.7c-0.2,0.2-0.5,0.2-0.7,0.1c-0.4-0.2-0.5-0.7-0.3-1
	C17.2,39.2,17.7,39.4,17.9,39.8L17.9,39.8z"/>
<path class="st1" d="M21.4,40.1c0.2,0.4-0.1,0.7-0.4,0.9c-0.3,0.2-0.5-0.1-0.8-0.1c-0.2-0.3-0.6-0.6-0.2-0.9
	C20.4,39.3,21.2,39.6,21.4,40.1L21.4,40.1z"/>
<path class="st1" d="M67.3,41.8c-0.1,0.8-1.4-0.1-1.2,0.9c0.2,0.8,0.3,1.7,0.8,2.2c0.4,0.5,0.2,1.4,0.2,2c-0.3,0.6-0.9,1-1.5,1.3
	c-1.1-0.1-2.8,0.6-3.3-0.8c-0.2-0.6-0.6-1.2-0.6-1.9c0.1-0.1,0.3-0.1,0.4-0.2c0-0.3-0.3-0.4-0.3-0.7c1.3-0.2-0.5-1.4,0.6-1.4
	c0.9,0.9,2.4,0.6,3.2,1.7c0.2,0.2,0.3,0.4,0.6,0.5c-0.2-0.9-0.6-1.9-0.8-2.9c-0.1-0.5,0.1-1,0.5-1.3C66.4,40.6,66.9,41.3,67.3,41.8
	L67.3,41.8z"/>
<path class="st1" d="M24.9,41.5c0.1,0.4-0.2,0.6-0.4,0.8c-0.4,0.2-0.6-0.2-0.7-0.4c-0.1-0.4,0.2-0.6,0.4-0.8
	C24.4,41.1,24.8,41.2,24.9,41.5L24.9,41.5z"/>
<path class="st1" d="M49.4,41.9c0.5,1.6,0.3,3.2-0.5,4.5c0,0.3,0.1,0.8-0.4,0.8c-1.1-1.5-0.3-3.6,0.2-5.1
	C48.8,41.7,49.3,41.5,49.4,41.9L49.4,41.9z"/>
<path class="st1" d="M83.4,42.7c0.6,1.1,0.6,2.6,0.1,3.7l-0.3,0.3c-0.4-0.9-0.8-1.8-0.9-2.8c0.2-0.7,0.4-1.4,0.5-2.1
	C83.2,41.6,83.2,42.3,83.4,42.7L83.4,42.7z"/>
<path class="st1" d="M28,43.1c-0.2,0.5-0.9,0.6-1.3,0.9c-1,0.7-2.3,0.9-3.5,0.7c1-1.4,2.6-2.3,4.5-1.9C27.7,43,27.9,42.9,28,43.1
	L28,43.1z"/>
<path class="st1" d="M11.7,44.5c1.5,1,1.9,2.5,2.7,3.9c0.1,0.2,0.5,0.2,0.4,0.5c-0.3,0.2-0.6-0.2-1.1-0.2c-1.5-0.7-2.5-2.4-2.4-4.1
	C11.3,44.5,11.6,44.5,11.7,44.5L11.7,44.5z"/>
<path class="st1" d="M81.8,45.8c0,0.4,0,0.8-0.4,0.9c-0.4,0.1-0.8-0.1-0.9-0.5c-0.1-0.3,0.1-0.4,0.2-0.6
	C81.1,45.3,81.6,45.4,81.8,45.8L81.8,45.8z"/>
<path class="st1" d="M98.5,47.9c0-0.8,0.2-1.5,0.3-2.2c0.1-0.2,0.2-0.5,0.2-0.8c1-1.3,2.9-0.9,4.4-0.8c0.6,0.3,1.3,0.3,2,0.4
	c0.3-0.2,0.7-0.2,1-0.2c1.3-0.7,0.4-2.2,0.5-3.3l-0.5-1.2c-0.1-0.2-0.2-0.5-0.3-0.8c-0.2-0.3-0.4-0.8-0.6-1.1
	c-0.7-1.8-2-2.8-3.1-4.2c-2-2.6-5.2-4.1-8.4-5.2c-3.1-1.1-6.3,0.3-9.1,1.3c-0.9-0.2-1.3-0.9-1.5-1.7c-0.2-1.5,0.2-3,0.8-4.2
	c0.1-1,0.8-1.8,1.1-2.7c0.7-2.2,1.5-4.4,1.6-6.9c0.1-1.5-1-2.5-2.1-3.2c-0.8-0.2-1.6-0.2-2.2,0.4c-0.5,1.1-1.6,1.8-2.6,2.3
	c-0.1,0.7,0.8,0.2,1,0.5c0.9,0.2,1.9-0.1,2.6,0.4c0.1,1.6-0.8,2.9-1.7,4.1c-1.3,2-2.8,4-3.6,6.2L78,25.2l0.2,9.8
	c1.3,2.1,2.8,4.5,5.2,5.3c1.3,1,2.9,2.3,4.6,1.4c0.9-0.3,1,1,1.4,1.5c0.5,1.5-0.6,2.5-0.7,3.9l-1,2.2c-1.2,2.3-2.3,4.8-4.1,6.8
	c-0.6,0-1,0.6-1.5,0.7c-0.3,0.4-1,0.1-1.3,0.3c-1.2,0.5-3,0.2-3.8,1.4c0.1,0.1,0.2,0.2,0.3,0.2c2.4,0,5.1,0.2,7.7,0.1
	c0.3-0.1,0.6-0.4,0.6-0.8c-0.4-0.7,0.1-1.3,0.4-1.8c0.2-1,0.8-1.6,1.1-2.5c0.8-1.6,1.8-3.2,2.7-4.9l1.2-2c0.3-0.7,0.8-1.5,1.2-2.2
	c0.3-0.3,0.5-0.7,0.7-1.1c0-0.4-0.2-0.6-0.4-0.8c0.3-0.3,0.7-0.2,1.1-0.3c1,0.6,2,1.6,2.2,2.6l0.4,1l0.2,0.5l-0.1,1.3l0.2,1.2
	c0.2,1.9-0.2,3.9-0.4,5.8c-0.7,2.3-3.3,2.1-5.2,2.6c-0.5,0.3-1.4,0.2-1.4,1c2.3,0.5,5,0.2,7.5,0.2c0.4-0.2,0.5-0.5,0.7-0.9
	c0.1-0.5,0.6-1,0.4-1.5c-0.4-0.6,0-1.4-0.2-2.2c0.1-0.2,0.1-0.5,0-0.8c0.3-1.2,0.2-2.6,0.5-3.7L98.5,47.9L98.5,47.9z"/>
<path class="st1" d="M118.1,46.3c-1.3,1.8-2.6,3.8-4.8,4.5c-0.2,0-0.3,0.1-0.4-0.1c1.3-1.4,2.1-3.7,4.2-4.2
	C117.3,46.3,117.7,46.2,118.1,46.3L118.1,46.3z"/>
<path class="st1" d="M9.8,48.3c-0.2,0.2,0,0.5-0.4,0.6c-0.3,0.2-0.7,0-0.8-0.4c-0.2-0.4,0.2-0.8,0.5-0.9C9.4,47.8,9.7,47.9,9.8,48.3
	L9.8,48.3z"/>
<path class="st1" d="M21.2,48.9c0.1,0.4-0.3,0.4-0.5,0.4c-1.7,0.6-3.4,0-4.6-1.2c0-0.2,0-0.3,0.2-0.4C17.9,48.2,19.8,47.9,21.2,48.9
	L21.2,48.9z"/>
<path class="st1" d="M12,48.3c0.1,0.2,0.1,0.4,0.1,0.6c-0.2,0.4-0.6,0.4-1,0.4c-0.2-0.1-0.4-0.3-0.5-0.5c0-0.4,0.4-0.6,0.7-0.8
	C11.5,48.1,11.8,48.1,12,48.3L12,48.3z"/>
<path class="st1" d="M49.1,48.5c0.1,0.4-0.2,0.6-0.5,0.8c-0.4,0.1-0.7-0.1-0.8-0.3c-0.1-0.3,0-0.7,0.3-0.8
	C48.4,48.1,49,48.2,49.1,48.5L49.1,48.5z"/>
<path class="st1" d="M119.6,48.7c0.1,0.4-0.2,0.6-0.5,0.8c-0.2,0.1-0.5,0-0.8-0.1c0-0.2-0.3-0.4-0.2-0.6c0.2-0.4,0.5-0.5,0.9-0.5
	C119.2,48.5,119.4,48.5,119.6,48.7L119.6,48.7z"/>
<path class="st1" d="M122.2,48.5c0.2,0.4,0,0.6-0.2,0.9c-0.2,0.3-0.5,0.4-0.7,0.2c-0.2-0.2-0.6-0.4-0.6-0.7c0-0.3,0.4-0.6,0.6-0.7
	C121.7,48.1,121.9,48.5,122.2,48.5L122.2,48.5z"/>
<path class="st1" d="M8.1,49.7c0,0.3-0.2,0.4-0.3,0.7c-0.2,0.1-0.4,0.2-0.6,0.2c-0.3-0.1-0.5-0.4-0.6-0.6c0.1-0.4,0.3-0.7,0.7-0.8
	C7.6,49.2,8,49.3,8.1,49.7L8.1,49.7z"/>
<path class="st1" d="M91.6,49.7c0.1,0.2,0,0.4,0,0.5c-0.2,0.3-0.6,0.6-1,0.4c-0.2-0.2-0.5-0.5-0.4-0.8
	C90.7,49.3,91.3,49.2,91.6,49.7L91.6,49.7z"/>
<path class="st1" d="M14.5,50.3c-0.1,0.3-0.2,0.6-0.6,0.6c-0.4,0-0.5-0.3-0.7-0.4c0-0.4,0-0.7,0.3-0.9
	C14.1,49.4,14.5,49.8,14.5,50.3L14.5,50.3z"/>
<path class="st1" d="M10.7,50.4c0.1,0.4-0.2,0.7-0.4,0.9c-0.5,0.2-0.9-0.2-1.1-0.6c0-0.4,0.3-0.8,0.7-0.9
	C10.3,49.8,10.5,50.2,10.7,50.4L10.7,50.4z"/>
<path class="st1" d="M94.3,50.3c0.1,0.4,0,0.8-0.4,1c-0.5,0.2-0.9-0.2-1.1-0.6c0.2-0.3,0.2-0.8,0.7-0.8C93.8,49.9,94.1,50,94.3,50.3
	L94.3,50.3z"/>
<path class="st1" d="M12.5,50.5c0.1,0.3-0.1,0.4-0.2,0.6c-0.2,0-0.3,0.2-0.6,0.2c-0.2-0.2-0.5-0.3-0.5-0.6c0-0.4,0.2-0.6,0.5-0.8
	C12.2,49.9,12.4,50.1,12.5,50.5L12.5,50.5z"/>
<path class="st1" d="M117.4,50.8c-0.1,0.3-0.4,0.5-0.7,0.6c-0.3,0.1-0.5-0.2-0.8-0.3c-0.2-0.2-0.1-0.5,0-0.7
	C116.3,49.7,117.4,50,117.4,50.8L117.4,50.8z"/>
<path class="st1" d="M120.4,50.9c-0.1,0.4-0.6,0.6-1,0.7c-0.4-0.2-0.8-0.4-0.5-0.9c0.2-0.2,0.2-0.3,0.5-0.4
	C119.9,50.2,120.3,50.5,120.4,50.9L120.4,50.9z"/>
<path class="st1" d="M101.6,51.2c0.2,0.5-0.3,0.7-0.6,0.9c-0.3,0-0.5-0.2-0.8-0.3c-0.1-0.4,0.1-0.8,0.6-1
	C101.1,50.8,101.3,50.9,101.6,51.2L101.6,51.2z"/>
<path class="st1" d="M90.7,51.7c0.2,0.1,0.1,0.4,0.1,0.5c-0.2,0.2-0.6,0.6-0.9,0.3c-0.3-0.2-0.5-0.4-0.4-0.8
	C89.6,51.3,90.5,51.3,90.7,51.7L90.7,51.7z"/>
<path class="st1" d="M92.9,52c0,0.3,0,0.5-0.3,0.6c-0.3,0.3-0.6,0-0.9-0.1c-0.1-0.2-0.2-0.4,0-0.6c0.1-0.2,0.3-0.3,0.5-0.3
	C92.4,51.7,92.8,51.7,92.9,52L92.9,52z"/>
<path class="st1" d="M25.6,52c0.2,0.2,0,0.5-0.1,0.8c-0.2,0.2-0.6,0.4-1,0.2c-0.4-0.2-0.4-0.7-0.3-1c0.2-0.1,0.2-0.4,0.6-0.4
	C25.1,51.7,25.3,51.8,25.6,52L25.6,52z"/>
<path class="st1" d="M105.8,52.2c0.1,0.4-0.3,0.6-0.6,0.6c-0.5,0.2-0.7-0.2-0.9-0.5c0-0.2,0.2-0.4,0.3-0.6
	C105.2,51.5,105.5,51.9,105.8,52.2L105.8,52.2z"/>
<path class="st1" d="M103.7,52.2c0.2,0.4-0.3,0.6-0.4,0.8c-0.3,0.1-0.6,0.1-0.9-0.2c-0.2-0.1-0.2-0.4-0.2-0.6
	c0.2-0.2,0.4-0.4,0.6-0.5C103.1,51.7,103.5,51.9,103.7,52.2L103.7,52.2z"/>
<path class="st1" d="M121.5,52.7c0.1,0.6-0.6,0.3-0.9,0.4c-1.7,1-3.8,0.2-5.4-0.4c0.1-0.5,0.7-0.3,1-0.5c1.7-1.1,3.5,0.2,5.2,0.3
	L121.5,52.7L121.5,52.7z"/>
<path class="st1" d="M13,52.2l-0.2,0.3c-1.5,0.9-3.4,1.5-5.1,0.9l-0.2-0.2c1.5-1.1,3.4-1.4,5.3-1.1L13,52.2L13,52.2z"/>
<path class="st1" d="M109.8,52.5c0,0.3-0.2,0.6-0.4,0.8c-0.4,0.1-0.9,0-1-0.4c-0.1-0.3,0.2-0.6,0.5-0.8
	C109.2,52,109.7,52.1,109.8,52.5L109.8,52.5z"/>
<path class="st1" d="M20.1,52.6c-0.2,0.3-0.1,0.6-0.5,0.8c-0.4,0.2-0.9-0.2-1-0.5c-0.1-0.4,0.2-0.6,0.4-0.8
	C19.5,51.9,19.8,52.3,20.1,52.6L20.1,52.6z"/>
<path class="st1" d="M17.3,52.8c0.1,0.3-0.1,0.4-0.2,0.6c-0.2,0.2-0.6,0.2-0.8,0.1c-0.3-0.2-0.6-0.5-0.4-1c0.2-0.2,0.4-0.3,0.6-0.4
	C16.8,52.3,17.2,52.4,17.3,52.8L17.3,52.8z"/>
<path class="st1" d="M112.6,53.7c0,0.4-0.3,0.6-0.6,0.7c-0.3,0-0.6-0.2-0.8-0.4c-0.1-0.2-0.1-0.6,0.2-0.8c0.1-0.1,0.4-0.1,0.5-0.2
	C112.3,53.1,112.5,53.4,112.6,53.7L112.6,53.7z"/>
<path class="st1" d="M14.3,53.3c0.1,0.3-0.2,0.4-0.2,0.7c-0.1,0.7-0.6,1.1-0.9,1.7c-0.8,0.9-1.8,0.9-2.9,1.2l-0.2-0.3
	c1.2-1.5,2.4-2.6,4-3.4L14.3,53.3L14.3,53.3z"/>
<path class="st1" d="M110.6,54.2c0.1,0.5-0.3,0.6-0.6,0.8c-0.4,0-0.6-0.2-0.8-0.5c-0.1-0.4,0.3-0.6,0.5-0.8
	C110.2,53.6,110.5,53.9,110.6,54.2L110.6,54.2z"/>
<path class="st1" d="M18.9,54.2c0,0.1,0,0.2,0.1,0.2c0,0.4-0.4,0.6-0.6,0.8c-0.4,0-0.6-0.1-0.9-0.4c-0.2-0.4,0-0.8,0.4-0.9
	C18.3,53.8,18.8,53.8,18.9,54.2L18.9,54.2z"/>
<path class="st1" d="M117.9,55.4c0.4,0,0.5-0.5,0.9-0.6c0.4-0.1,0.8,0.2,1,0.4c0.2,0.5-0.2,0.7-0.5,0.9c-0.3,0.2-0.9-0.2-0.8,0.3
	c0.3,0.2,0.5,0.5,0.6,0.8c-0.1,0.2-0.4,0.1-0.5,0c-1.2-0.5-2.4-1.3-2.9-2.5c-0.2-0.4-0.9-0.6-0.5-1
	C116.4,53.7,117.3,54.7,117.9,55.4L117.9,55.4z"/>
<path class="st1" d="M121.7,54.1c0.2,0.2,0.1,0.6,0,0.8c-0.2,0.4-0.8,0.2-1.2,0.2c-0.2-0.2-0.4-0.4-0.3-0.7c0.2-0.2,0.3-0.4,0.6-0.5
	C121.2,53.8,121.5,53.9,121.7,54.1L121.7,54.1z"/>
<path class="st1" d="M107.3,56.3c0.4,0.4,0.7,1.1,0.9,1.6c-0.1,0.1-0.3,0.1-0.4,0.1c-1.3-0.8-3.1-1.6-3.6-3.2
	c-0.1-0.2-0.4-0.4-0.4-0.6c1-0.2,2,0.6,2.7,1.1C106.9,55.7,107.2,55.9,107.3,56.3L107.3,56.3z"/>
<path class="st1" d="M16.7,54.8c0.2,0.4-0.2,0.6-0.4,0.8c-0.4,0.1-0.7-0.1-0.9-0.3c-0.3-0.4,0.2-0.8,0.6-1
	C16.3,54.3,16.5,54.6,16.7,54.8L16.7,54.8z"/>
<path class="st1" d="M112.3,55.7c0,0.2-0.3,0.4-0.4,0.6c-0.3,0-0.6,0.2-0.9-0.1c-0.1-0.2-0.3-0.5,0-0.7
	C111.4,54.9,112,55.3,112.3,55.7L112.3,55.7z"/>
<path class="st1" d="M122.2,56.3c0.1,0.5-0.2,0.8-0.6,1c-0.4,0.1-0.7-0.2-1-0.4c-0.2-0.2,0-0.5,0-0.8c0.3-0.2,0.6-0.4,1-0.3
	C121.9,56,122,56.1,122.2,56.3L122.2,56.3z"/>
<path class="st1" d="M94.7,61.8c0,0.5-0.9,0.4-1.2,0.7c-1.2,0.6-2.7,0.6-4.2,0.6v-0.2C90.8,61.6,92.8,61.2,94.7,61.8L94.7,61.8z"/>
<path class="st1" d="M36.9,63.5c0,0.4-0.2,0.6-0.6,0.7c-0.3,0-0.6-0.2-0.7-0.4c-0.2-0.5,0.2-0.7,0.5-0.9
	C36.5,62.9,36.8,63.2,36.9,63.5L36.9,63.5z"/>
<path class="st1" d="M94.1,63.9c-0.1,0.4-0.2,0.8-0.6,0.9c-0.4,0.1-0.6-0.1-0.9-0.3c-0.2-0.2-0.1-0.4-0.1-0.6
	C92.8,63.2,93.8,63.2,94.1,63.9L94.1,63.9z"/>
<path class="st1" d="M102,64.1c-1,0.6-2.1,1.4-3.4,1.4l-2.1,0l-0.2-0.2c1.3-1.6,3.7-1.6,5.8-1.4V64.1L102,64.1z"/>
<path class="st1" d="M26,65c0,0.4-0.2,0.6-0.5,0.8c-0.4,0.1-0.7-0.1-0.8-0.4c-0.2-0.4,0-0.7,0.3-0.9C25.4,64.2,25.8,64.7,26,65
	L26,65z"/>
<path class="st1" d="M28,65.4c0.1,0.2-0.1,0.3-0.2,0.5c-0.2,0.1-0.6,0.2-0.8,0c-0.3-0.2-0.4-0.4-0.2-0.7c0.1-0.2,0.4-0.2,0.5-0.4
	C27.6,65,27.9,65.2,28,65.4L28,65.4z"/>
<path class="st1" d="M12.8,69.5c-0.4,0.5-1-0.1-1.5-0.4c-1.4-0.8-1.3-2.4-2.7-3.3c0.2-0.5,0.5,0,0.8,0c0.2,0.2,0.6,0.3,0.8,0.4
	C11.6,67,11.9,68.3,12.8,69.5L12.8,69.5z"/>
<path class="st1" d="M128.4,54c-0.6-1.2-1.7-1.6-3-1.6c-1,0.1-1.8,0.8-2.2,1.6c-0.2,0.9,0.1,1.7,0.8,2.2c0.3,0.1,0.6,0.1,0.8-0.2
	c0.2-0.5-0.4-0.5-0.4-0.9c-0.2-0.6,0-1,0.4-1.4c0.4-0.4,1.1-0.2,1.5-0.2c0.5,0.3,1,0.6,1.2,1.2c0.2,0.7,0.2,1.4,0,2.1
	c-0.4,1-1.4,1.8-2.5,2c-3.3,0.5-39.4,0.3-39.4,0.3c-4.2,0.4-9.1-0.8-12.7,1.4c-1.7,0.8-2.5,2.6-2.9,4.3c-1.1,1-2.2,2.1-3.1,3.2
	l-0.1-0.1c0.2-1,0.6-1.8,0.8-2.8c0.6-0.8,0.6-1.9,1-2.8c1.5-2.4,2.9-4.9,5.3-6.6c1-1.3,2.7-1.1,4.2-1.1c1.6,0.8,3.5,1,5.5,0.8
	c0.1-0.1,0.1-0.2,0.1-0.3c-0.6-0.5-1.5-0.7-2.1-1.2c-1.6-0.8-3.1,0.2-4.8,0.1c-0.1-0.1-0.2-0.1-0.1-0.2c1.5-1.1,3.2-1.9,4.9-2.6
	c1.4-0.8,2.9-1.2,4.3-1.7c0.6,0,1.2-0.5,1.7-0.2l2.1-0.6c0.1,0,0.2,0.2,0.3,0.1c1.8-0.6,4,0,6.1-0.1l0.3,0.2l1.9,0.5
	c0.7,0.1,1,0.9,1.8,1c0.4-0.6-0.4-0.8-0.6-1.2c0.9-0.2,1.9,0,2.7,0.4l-0.4,0.4c-0.2,0.4,0.1,0.8,0.5,0.9c0.3,0.1,0.5-0.1,0.7-0.2
	c0.5-0.4,0-0.7,0.1-1c2.9,0.5,5.8,1.2,8.4,2.4c0.8,0.2,1.5,0.8,2.3,0.8c-0.8-0.8-2-1.2-3-1.6c-0.7-0.4-1.6-0.4-2.1-1
	c0.1-0.2,0.4-0.1,0.5-0.3c1.4-0.2,2.5-1.2,3.5-2.2c0.1-0.2,0.5-0.2,0.5-0.5c-0.4-0.4-1,0.1-1.4,0.1c-1.7,0.3-2.4,2.3-4,2.6
	c-2-0.5-4.1-1-6.1-1.5c-1-0.2-2.1-0.2-3-0.6l-2.2-0.2h-4c0-0.1-0.2-0.1-0.1-0.2c1.4-0.4,2.7-1.2,4.1-1.6l10.6-4.9
	c1.1-1,2.1-2.1,3-3.3c0-0.3-0.2-0.6-0.4-0.8c-0.3-0.1-0.6-0.1-0.8,0.2c-0.5,0.4,0,0.8,0,1.2c-0.5,0.6-1.2,1.2-1.8,1.6
	c-0.2,0-10.9,4.9-10.9,4.9c-1.6,0.7-3.2,1.4-4.8,1.8L88.7,47c-0.2,0.5-0.6,0.8-1,0.9c-0.6,0.1-1.1,0.5-1.8,0.5
	c-5.2,2-10.5,4.1-14.6,8.2c0.2-0.5,0.4-1.1,0.4-1.7c-0.1-0.6,0-1.3-0.4-1.8c-0.1-0.2-0.4-0.9-0.3-1.1l-0.6,0.4
	c-0.4,0.9-0.7,2.5-0.3,3.4c0.1,0.7,0.7,1.6,0.2,2.2c-1.9,2.3-3,5.1-4.2,7.8c-0.5-0.1-0.7-0.5-0.9-1c1.3-1.7,2.4-3.6,2.8-5.8
	c0.3-0.2,0.1-0.7,0.4-1c-0.1-0.6,0.4-1.3,0-1.8c0.3-0.9-1.2-1.7-0.3-2.2l-0.7,0.4c-1.7,2.2,0.9,5.6-1.1,7.8v0.2
	c-0.6,0.7-0.8,1.4-1.6,1.9c-1-0.4-1.3-1.5-1.9-2.3c-0.9-0.8-0.9-2.6-0.4-3.7c0.4-1.2-0.2-2.2-0.4-3.2l-0.4-0.2
	c-1,1.2-1.3,3.2-0.6,4.7c0.4,0.7,0.4,1.7,1,2.3c0.4,1.2,1.1,1.9,1.7,3c0.2,0.4-0.2,0.5-0.4,0.7c-0.4-0.3-0.4-0.9-0.8-1.2
	c-1.3-2.8-3-5-5.1-7.3c-0.1-0.4-0.4-0.7-0.2-1.1c0.8-0.7,0.9-2.1,0.5-3c-0.1-0.2-0.3-0.4-0.3-0.6L57,51.7c0.1,1.4-0.8,2.6-0.4,4.1
	v0.1c-4.1-3.1-8.6-5.8-13.2-8l-0.4,1c1.2,0.3,4.2,2.2,4.2,2.2c1.4,0.5,2.7,1.4,4,2.1c5.4,3,9,8,11.4,13.5c0,0.4,0.4,0.9,0.2,1.4
	c-0.8-1.3-2-2-3-3c-0.3-1.9-1.4-3.7-3-4.4c-0.6-0.9-1.9-1-2.9-1.2l-14.4-0.1C27.7,59.1,17,59.6,5.3,59.4c-1.6-0.2-3.6-0.7-4.1-2.4
	c-0.3-0.6-0.3-1.6,0-2.2c0.4-0.8,1.2-1,2-1.1c0.6,0.1,1.1,0.7,1.4,1.1c0,0.5-0.4,1-0.6,1.4c0,0.2,0.2,0.5,0.5,0.4
	c0.5-0.2,0.9-0.8,1-1.3c0-0.3,0.2-0.7-0.1-0.9c-0.2-0.8-1.1-1.4-1.9-1.6c-1-0.1-2,0.2-2.7,0.9c-1,0.8-0.9,2.2-0.6,3.4
	c0.6,1.8,2.5,3,4.3,3.2l38.6,0.2c3.8,0.2,8-0.4,11.8,0.3c1.4,0.4,2.9,1.5,3.2,3c0,0.1-0.2,0-0.3,0c-3.1-2-7.3-2.8-11.3-2.3
	c-1.6-0.1-3,0.5-4.4,0.9c-0.8,0.2-1.5-0.2-1.9-0.6c-1.4-1.3-3.9-1.2-5.8-0.7c0,0.1,0,0.2,0,0.3c1.9-0.2,3.1,1.5,4.8,1.7
	c0.4,0.1,0.7-0.4,1.1,0c-1.8,0.9-3.6,1.9-5.5,2.5c-0.6-0.1-0.9-0.7-1.4-1c-0.8-0.8-2.1-0.5-3.2-0.6c-0.4,0.1-0.7-0.2-0.9,0
	c0.3,0.6,1,1,1.7,1.3c1,0.4,2.1,0,3.1,0.6c-0.2,0.3-0.6,0.4-0.8,0.6c-1.9,0.7-3.4,2.4-5.5,2.3c-2.2,0.2-4.4-0.4-5.9-1.9
	c-0.6-1.6-2.3-2.4-4-2.3c-0.1,0.1-0.3,0.1-0.2,0.3c0.9,0.5,1.5,1.6,2.4,2.2c0.6,0.7,1.6,0,2.1,0.8c0.8,0.5,1.7,1,2.6,1.1
	c0.6,0.3,1.3,0.4,2.1,0.6l-0.3,0.2c-3.6,1.2-7.8,1.3-11.8,1.2c-1.2,0-2.3-0.4-3.5-0.4c0.2,0.2,0.6,0.4,1,0.6
	c-0.3,0.2-0.7,0.3-1.1,0.3c-0.5,0.1-1,0.2-1.5,0.4c-0.6,0-1.2,0.2-1.7,0.4c-0.7,0.7-1.5,1.5-2.3,1.8c0,0.2,0,0.4,0.2,0.4
	c0.8-0.3,1.7-0.1,2.5-0.4c1.3-0.1,2.1-1.6,3.1-2.2c1.1-0.9,2.7-0.7,4-0.5c0.8,0.2-0.1,0.5,0.2,1c0.3,0.3,0.6,0.6,1,0.5
	c0.1-0.1,0.2-0.2,0.3-0.2c0.2-0.3,0.2-0.7,0-1c0.6-0.4,1.3,0,1.9-0.2c1.5,0,3-0.4,4.5-0.4c0.2,0,0.5-0.3,0.8,0
	c-0.1,0.3-0.5,0.4-0.4,0.8c0.1,0.4,0.5,0.5,0.8,0.6c0.4-0.2,0.8-0.4,0.6-1C25,71,24.7,71,24.5,70.8c0.8-0.4,1.8-0.5,2.6-0.9
	c0.6-0.1,1.2-0.3,1.7-0.6c0.5,0,1-0.5,1.4-0.3c-0.2,0.7-0.5,1.3-0.8,1.9c-0.6,2.1-1.1,4.9,0,7c0.1,0,0.2,0,0.2-0.1
	c-0.8-2.1-0.4-4.6,0.4-6.6c0.6-3.4,4-4.4,6.5-5.7l0.1,0.2c-0.7,1.8-1.7,3.4-1.5,5.6c0.1,0.4-0.2,0.7,0,1c0.7-0.4,1.1-1.2,1.5-1.8
	c0.3-1.8-0.8-4,1.1-5.4c3.3-1.3,6.3-3,10.1-3c0.1,0.1,0.4-0.1,0.4,0.2c-0.8,0.9-1.9,1.7-2.3,2.8c-1.3,1.8-1.2,4.8-0.7,6.9
	c0.4,1.2-0.7,1.9-1.2,2.9c-0.2,0.3-0.3,0.9-0.5,1.3l0.8,0.1c0.7-0.7,1.3-1.6,1.3-2.6c0.1,0.4,0.4,0.7,0.8,0.8
	c0.3-0.4-0.2-0.8-0.3-1.2c0.6-0.4,0.9,0.4,1.4,0.6c0.8,0.2,1.5,0.6,2.4,0.6l0.3-0.3c-0.9-1.4-2.6-1.6-4.1-1.7
	c-0.8-1.3-0.8-3-0.7-4.6c0.2-0.8,0.3-1.7,0.8-2.5c0.2-0.6,0.8-1.1,1.1-1.5c0.7-0.7,1.6-1.2,2.5-1.4h0.1c0,0.1,0,0.1,0,0.1
	c-1.1,0.8-1.2,2-1.8,3c-0.7,1-1,2.4-0.4,3.5c0.2,0.5,0.1,1.3,0.7,1.7c0.5-0.7,0.6-1.6,0.8-2.4c-0.1-1.3-0.9-2.6-0.2-3.8
	c0.4-1,1.2-1.4,2.1-1.8c2.2-0.2,4.1,0.9,6,1.8c0.4,0.3,1.1,0.5,1.2,1.1c0,1.1-0.6,2.2-1.5,2.7c-1.1,0.6-2.6,0.7-3.6,0
	c-0.6-0.6-0.8-1.6-0.6-2.4c0.4-0.5,1-0.9,1.7-0.6c0.4,0.2,0.8,0.6,1.3,0.4c0.2-0.1,0.3-0.4,0.2-0.6c-0.4-0.2-0.6-0.8-1.2-0.9
	c-0.8-0.1-1.7-0.1-2.2,0.4c-0.8,0.7-1.2,1.8-0.9,2.8c0.3,1.3,1.2,2.2,2.5,2.6c1.8,0.4,3.7-0.1,4.9-1.7c0.5-0.5,0.6-1.1,0.9-1.7
	c1.9,1.2,3.3,3.2,4.1,5.3c0,0.7,0.2,1.4,0,2l1.4,0.1c-0.1-0.3,0-0.7,0.1-1c0.5-2.6,2.1-4.8,4.1-6.6c0.7-0.4,0.5,0.5,0.7,0.8
	c0.6,1.5,2,2.6,3.5,3c1.7,0.3,3.3-0.1,4.3-1.4c0.5-1,1.2-2.4,0.3-3.4c-0.6-0.7-1.3-1-2.2-1c-1,0-1.7,0.7-2.2,1.5
	c0,0.3,0,0.7,0.2,0.8c0.2,0,0.5,0,0.6-0.2c0.1-0.6,0.6-0.9,1.1-1.2c0.4-0.2,0.9,0,1.3,0.2c0.4,0.4,0.5,1,0.6,1.6
	c-0.1,0.8-0.6,1.6-1.3,1.9c-1.2,0.6-2.8,0.3-3.8-0.4c-0.5-0.5-0.8-1.1-1.1-1.8c-0.1-0.6-0.3-1.2,0-1.8c1.7-1,3.6-1.8,5.7-2
	c0.8,0.2,1.5,0.7,2.1,1.3c1.8,1.9-0.4,4.6,0.9,6.6c0.5-0.1,0.5-0.7,0.7-1.1c0.6-1.4-0.2-3-0.5-4.4c-0.5-0.9-0.8-1.6-1.5-2.4
	c0.2-0.1,0.3-0.1,0.5-0.1c0.8,0.6,1.7,1.2,2.4,2.1c1.2,1.9,1.7,4.1,1.5,6.6c-0.3,1.2-1.6,1.8-2.6,2.2c-0.4,0.3-0.9,0.8-1.1,1.3
	c0.5,0.3,1.2,0,1.6-0.2c0.8-0.3,1.2-1.2,1.7-1.7c0.1,0,0,0.2,0.1,0.2c0,0.4-0.2,1,0.2,1.2c0.2-0.6,0.2-1.4,0.4-2
	c0.5,0.6,0.6,1.3,0.8,2c0.4,0.7,1,1.7,1.9,1.8c0.2-0.4,0-0.7-0.1-1c-0.1-1-1-1.5-1.5-2.2c-1.4-1.9-0.8-4.9-1.8-7.1
	c-0.4-1.2-1.2-2-2.1-3l0.2-0.2c1.9,0,3.6,0.6,5.4,1c2.2,1.1,5.4,0.8,6.4,3.7c0.4,1.6,1.2,3.1,2.3,4.3l0.1-0.1c0.2-0.4,0.2-1.1,0-1.5
	c-0.2-2-2-2.5-2.9-4.2l0.1-0.2c1,0.3,1.9,0.5,2.9,0.9c3.2,0.9,5.4,4,5.8,7.2c0,2.6-0.5,4.7-1.5,6.8c-0.1,0.3-0.7,0.7-0.3,1
	c0.4-0.3,0.5-0.8,0.8-1.2c1.3-2.2,2-5.2,1.3-8c0-0.5-0.6-0.9-0.4-1.4c0.2,0.2,0.4,0.3,0.7,0.4c0.2-0.2,0.6-0.2,0.8-0.4
	c0-0.2,0.2-0.5,0-0.7c-0.2-0.4-0.8-0.4-1.2-0.3c-0.2,0.2-0.4,0.6-0.5,0.9c-0.4-0.7-0.8-1.6-1.4-2.1l0.1-0.1c1.8,0.6,3.4,1.5,5.2,2
	c0.4,0.2,0.8,0.4,1.4,0.4c1.5,0.6,3.3,0.8,4.9,1.2c1.2-0.1,2.2,0.4,3.4,0.2v-0.1l0,0c-0.4-0.6-1.4,0-1.9-0.4c-2.7-0.3-5.4-1-7.8-2
	c0-0.1,0.2-0.1,0.3-0.1c0.4-0.2,0.7-0.6,0.6-1c-0.2-0.3-0.5-0.4-0.9-0.4c-0.2,0.1-0.6,0.4-0.6,0.7c0,0.3,0.3,0.7,0.6,0.8
	c-0.1,0.1-0.2,0-0.4,0c-1.2-0.6-2.4-1.1-3.6-1.6c-0.4-0.1-0.8-0.4-1.2-0.5c-0.9-0.4-1.8-0.9-2.7-1.2c-2.5-1.3-5.4-2-8.1-3
	c-0.6-0.2-1.2-0.3-1.7-0.5c-1-0.3-2-0.5-3-0.8c-3.4-0.8-7.9-0.9-10.8,0.9c-0.5-0.2-0.8,0.6-1,0.1c0.8-2.2,3.3-2.9,5.4-3
	c15.9-0.2,30.8-0.3,46.5-0.5c1.8,0,3.6-0.6,4.6-2.3C128.8,56.7,128.9,55.1,128.4,54L128.4,54z M65.3,68.7c-0.2,0.5-0.5,0.9-0.4,1.4
	l-0.2,0.1c0.1-0.6-0.5-1-0.3-1.6c-0.3-0.5-0.3-1.1-0.6-1.6c-0.4-0.6,0.3-0.9,0.6-1.4c0.6,0.2,0.8,0.8,1.2,1.2
	C65.8,67.6,65.3,68.1,65.3,68.7L65.3,68.7z"/>
<path class="st1" d="M108.4,66.2c0,0.1,0.2,0.2,0.2,0.4c-1.4,1.2-3.3,1.6-5.3,1.7c-0.2,0-0.3,0.2-0.5,0.1c-0.1-0.1-0.2-0.2-0.1-0.3
	C104.1,66.5,106.2,65.7,108.4,66.2L108.4,66.2z"/>
<path class="st1" d="M102,66.8c0.2,0.6-0.2,0.9-0.6,1.1c-0.4,0-0.7-0.3-0.9-0.6c-0.1-0.3,0.2-0.5,0.3-0.7
	C101.1,66.3,101.8,66.3,102,66.8L102,66.8z"/>
<path class="st1" d="M26.6,66.9c0.1,0.3,0,0.6-0.2,0.8C26.2,68,25.9,68,25.7,68c-0.3,0-0.4-0.4-0.5-0.6c0-0.4,0.2-0.6,0.5-0.8
	C26,66.6,26.4,66.6,26.6,66.9L26.6,66.9z"/>
<path class="st1" d="M19.5,69.5v0.3c-1,0.2-1.9,0-2.6-0.6c-0.6-0.8-1.2-1.6-2.1-2c0-0.1-0.2-0.3,0-0.4C16.8,66.8,18,68.4,19.5,69.5
	L19.5,69.5z"/>
<path class="st1" d="M114.4,66.9c-0.9,1.4-1.7,3-3.3,3.6c-0.3,0-0.5,0.4-0.8,0.1c0.6-1.5,2-3.2,3.5-3.8
	C114,66.8,114.2,66.8,114.4,66.9L114.4,66.9z"/>
<path class="st1" d="M28.9,67.4c0,0.4-0.3,0.5-0.6,0.8c-0.3,0-0.5-0.2-0.7-0.4c-0.2-0.4,0.2-0.6,0.4-0.8
	C28.4,66.8,28.7,67.1,28.9,67.4L28.9,67.4z"/>
<path class="st1" d="M119.4,67.6c-0.4,0.5-0.2,1.3-0.6,1.8c-0.8,0.9-1.5,2-2.7,2.2c-0.2-0.4,0.3-0.8,0.5-1.2
	c0.6-1.2,1.3-2.6,2.6-3.1L119.4,67.6L119.4,67.6z"/>
<path class="st1" d="M7.2,68c0.1,0.3,0.2,0.6,0,0.9C7,69,6.6,69.1,6.3,69c-0.4-0.2-0.5-0.6-0.3-1C6.2,67.7,6.9,67.5,7.2,68L7.2,68z"
	/>
<path class="st1" d="M4.9,68.4c0,0.2,0.2,0.4,0.1,0.6c-0.1,0.2-0.3,0.4-0.6,0.5c-0.4,0.1-0.7-0.2-0.9-0.5c0-0.4,0.1-0.7,0.4-0.8
	C4.3,68,4.7,68.2,4.9,68.4L4.9,68.4z"/>
<path class="st1" d="M9.6,68.7c0.1,0.3,0.2,0.9-0.3,1c-0.6,0.2-0.9-0.2-1.2-0.5c0-0.4,0.2-0.6,0.5-0.8C9,68.3,9.3,68.4,9.6,68.7
	L9.6,68.7z"/>
<path class="st1" d="M16.1,69.2c0,0.3,0,0.7-0.3,0.8c-0.2,0.2-0.6,0.1-0.8,0.1c-0.1-0.2-0.5-0.4-0.3-0.7c0.2-0.2,0.3-0.3,0.6-0.4
	C15.6,69,16,68.9,16.1,69.2L16.1,69.2z"/>
<path class="st1" d="M123.2,69.5c-0.1,0.3-0.3,0.6-0.6,0.6c-0.4,0-0.7-0.1-0.9-0.4c-0.2-0.4,0.2-0.7,0.5-0.8
	C122.6,68.9,123.1,69,123.2,69.5L123.2,69.5z"/>
<path class="st1" d="M116,69.7c0,0.3-0.3,0.6-0.5,0.7c-0.6,0.2-1-0.2-1.2-0.6c0.1-0.4,0.4-0.6,0.7-0.7C115.4,69,115.7,69.3,116,69.7
	L116,69.7z"/>
<path class="st1" d="M120.9,69.6c0,0.3-0.2,0.6-0.4,0.7c-0.3,0.1-0.7,0.1-1-0.2c-0.4-0.3-0.1-0.6,0.2-0.8
	C120.1,69.1,120.8,69.1,120.9,69.6L120.9,69.6z"/>
<path class="st1" d="M6.2,70.3c0.1,0.4-0.1,0.8-0.5,1c-0.4,0-0.8-0.2-0.9-0.6c0-0.4,0.1-0.7,0.4-0.8C5.6,69.8,5.9,70,6.2,70.3
	L6.2,70.3z"/>
<path class="st1" d="M114,70.7c0.1,0.4-0.1,0.8-0.6,1c-0.3,0.1-0.5-0.1-0.8-0.3c-0.2-0.2-0.4-0.6,0-0.8
	C112.9,70,113.7,70.3,114,70.7L114,70.7z"/>
<path class="st1" d="M27.5,71.2c0.2,0.4-0.3,0.5-0.4,0.8c-0.2,0.1-0.5,0.1-0.6,0c-0.2-0.2-0.4-0.5-0.3-0.8c0.2-0.2,0.3-0.3,0.5-0.4
	C27.1,70.5,27.3,70.9,27.5,71.2L27.5,71.2z"/>
<path class="st1" d="M122.5,71.4c0.1,0.3-0.2,0.4-0.2,0.6c-0.2,0.2-0.6,0.2-0.9,0.2c-0.4-0.2-0.4-0.5-0.4-0.9
	c0.2-0.2,0.3-0.4,0.6-0.4C121.9,70.9,122.4,71,122.5,71.4L122.5,71.4z"/>
<path class="st1" d="M120,71.6c0.2,0.5-0.3,0.7-0.6,0.8c-0.2,0-0.4-0.1-0.4,0.2c1,0.5,1.7,1.4,2.5,2.1V75c-1.4,0-2.9-0.4-3.9-1.5
	c-0.3-0.2-0.8-0.2-1.1-0.5c0.5-0.5,1.5-0.3,2.2-0.4c0.5-0.6-0.6-1,0.1-1.4c0.2,0,0.4-0.3,0.7-0.2C119.7,71.1,119.9,71.3,120,71.6
	L120,71.6z"/>
<path class="st1" d="M103.8,71.6c0.1,0.2-0.2,0.4-0.2,0.6c-0.2,0.2-0.6,0.3-0.9,0.2c-0.2-0.3-0.5-0.5-0.4-0.9
	C102.7,70.9,103.7,71,103.8,71.6L103.8,71.6z"/>
<path class="st1" d="M15.1,73c-0.1,0.4-0.3,0.6-0.7,0.6c-0.3,0-0.6-0.2-0.7-0.5c0-0.3,0.2-0.4,0.2-0.6C14.4,72.2,15.2,72.4,15.1,73
	L15.1,73z"/>
<path class="st1" d="M18.3,72.5c0,0.6-0.6,0.9-0.8,1.4c-0.6,1.3-1.7,2.5-3.2,2.6c-0.2-0.4,0.5-0.8,0.7-1.2c0.6-1.4,1.9-2.1,3.1-2.9
	H18.3L18.3,72.5z"/>
<path class="st1" d="M102.9,73c0,0.4-0.4,0.8-0.7,0.9c-0.4,0.1-0.6-0.2-0.8-0.3c-0.3-0.3-0.1-0.6,0-1
	C101.9,72.2,102.5,72.6,102.9,73L102.9,73z"/>
<path class="st1" d="M105.3,73.3c0,0.4-0.3,0.8-0.7,0.9c-0.1-0.1-0.3,0-0.4-0.1c-0.3-0.2-0.5-0.4-0.5-0.7c0.2-0.2,0.3-0.5,0.6-0.6
	C104.6,72.8,105.2,72.8,105.3,73.3L105.3,73.3z"/>
<path class="st1" d="M24.5,73.3c0,0.4-0.3,0.7-0.6,0.8c-0.4,0-0.6-0.2-0.8-0.5c-0.1-0.4,0.3-0.6,0.5-0.8
	C24.1,72.7,24.2,73,24.5,73.3L24.5,73.3z"/>
<path class="st1" d="M27.2,73.4c-0.1,0.4-0.4,0.6-0.8,0.7c-0.3-0.1-0.6-0.2-0.7-0.5c0-0.4,0.3-0.6,0.6-0.8
	C26.7,72.8,27.1,73,27.2,73.4L27.2,73.4z"/>
<path class="st1" d="M113.9,76.2c0.2,0.2,0.6,0.4,0.5,0.6c-0.6,0.3-1.1-0.4-1.7-0.6c-1-1-1.7-2-2.1-3.2c0.4-0.4,0.8,0.1,1.1,0.2
	C112.5,74.1,113.4,75.1,113.9,76.2L113.9,76.2z"/>
<path class="st1" d="M115.3,73.4c0.1,0.3,0.1,0.6-0.1,0.9c-0.2,0.4-0.8,0.3-1.1,0.2c-0.2-0.2-0.6-0.6-0.3-0.9
	c0.1-0.3,0.5-0.4,0.8-0.5C114.8,73.1,115,73.3,115.3,73.4L115.3,73.4z"/>
<path class="st1" d="M30.9,74.5c0,0.3,0.1,0.8-0.3,1c-0.4,0.1-0.8,0-1-0.5c-0.2-0.5,0.2-0.6,0.5-0.8C30.4,74.1,30.6,74.3,30.9,74.5
	L30.9,74.5z"/>
<path class="st1" d="M105.2,77.1c0.6,0.8,1,1.8,1,2.8c-0.1,0.3,0.2,0.6,0,0.8H106c-1.8-1.3-2.2-3.1-2.9-4.9
	c-0.2-0.1-0.2-0.2-0.2-0.4c0.4-0.4,0.7,0.4,1.1,0.5L105.2,77.1L105.2,77.1z"/>
<path class="st1" d="M36,75.7C36,75.7,36,75.8,36,75.7c-1.5,1.2-3.8,1.9-5.6,0.8c0-0.1,0-0.3,0.2-0.4c1.2-0.4,2.3-0.9,3.5-0.8
	L36,75.7L36,75.7z"/>
<path class="st1" d="M27,75.9c-1.3,0.8-2.6,2.5-4.2,2.9c-0.3,0.1-0.5,0.6-0.9,0.3c0.7-2.2,3.1-3.3,5.2-3.5V75.9L27,75.9z"/>
<path class="st1" d="M102.9,77.7c0.1,0.3,0,0.8-0.3,0.8c-0.2,0.2-0.6,0.2-0.8,0c-0.4-0.2-0.4-0.5-0.4-0.8c0.1-0.3,0.4-0.3,0.6-0.4
	C102.4,77.4,102.7,77.4,102.9,77.7L102.9,77.7z"/>
<path class="st1" d="M99.6,77.9c-0.2,0.6-0.9,0.9-1.4,1c-1.3,0.5-2.6-0.2-3.8-0.5c0-0.3,0.4-0.2,0.6-0.4c1.3-0.3,2.7-0.6,4-0.2
	C99.2,77.8,99.5,77.7,99.6,77.9L99.6,77.9z"/>
<path class="st1" d="M27,79.1c-0.1,0.2-0.2,0.5-0.5,0.6c-0.3,0.1-0.6,0-0.8-0.2c-0.1-0.2-0.4-0.4-0.2-0.7c0.1-0.3,0.4-0.4,0.6-0.4
	C26.6,78.4,26.9,78.7,27,79.1L27,79.1z"/>
<path class="st1" d="M29.3,79.4c-0.1,0.2-0.2,0.6-0.6,0.8c-0.3,0.1-0.6-0.1-0.8-0.3c-0.1-0.2-0.2-0.5-0.1-0.8
	c0.1-0.2,0.4-0.2,0.6-0.4C28.8,78.7,29.2,79.1,29.3,79.4L29.3,79.4z"/>
<path class="st1" d="M102.1,79.8c0,0.3-0.1,0.5-0.3,0.8c-0.2,0.3-0.6,0.3-0.9,0.2c-0.3,0-0.4-0.4-0.5-0.6c-0.2-0.3,0.2-0.5,0.3-0.8
	C101.2,79,101.9,79.2,102.1,79.8L102.1,79.8z"/>
<path class="st1" d="M103.9,79.7c0,0.2,0.2,0.4,0.1,0.6c-0.2,0.2-0.4,0.7-0.9,0.5c-0.2,0.1-0.4-0.2-0.5-0.3c-0.2-0.4,0-1,0.5-1.1
	C103.4,79.3,103.7,79.6,103.9,79.7L103.9,79.7z"/>
<path class="st1" d="M27.9,80.9c0.1,0.4-0.1,0.8-0.4,1.1c-0.4,0.1-1,0.1-1.2-0.4c0-0.4,0-0.9,0.5-1.2C27.2,80.3,27.7,80.4,27.9,80.9
	L27.9,80.9z"/>
<path class="st1" d="M30.2,80.7c-0.1,1.1-0.3,2.5-1.4,3.1c-0.6,0.1-1.3,0.7-1.9,0.3V84C27.7,82.8,29.2,81.9,30.2,80.7L30.2,80.7z"/>
<path class="st1" d="M95.9,81.7c0.2,0.2-0.1,0.4-0.2,0.6c-0.2,0.3-0.7,0.2-1,0c-0.3-0.1-0.3-0.5-0.2-0.8c0.1-0.2,0.3-0.4,0.5-0.4
	C95.4,81.1,95.7,81.4,95.9,81.7L95.9,81.7z"/>
<path class="st1" d="M34.1,83.5c0.6,0.9,0.2,2.2,0.6,3.2c-0.7,0.1-1-0.7-1.4-1.1c-0.9-1.2-0.8-2.8-1.1-4.2c0.1-0.1,0.2-0.1,0.3-0.1
	c0.6,0.4,1,1.2,1.5,1.7C33.8,83.3,34.2,83.3,34.1,83.5L34.1,83.5z"/>
<path class="st1" d="M97.9,82c0,0.3-0.4,0.4-0.6,0.6c-0.3,0-0.5-0.2-0.8-0.4c-0.1-0.4,0.2-0.5,0.4-0.7C97.4,81.3,97.7,81.5,97.9,82
	L97.9,82z"/>
<path class="st1" d="M102.6,85.5c0,0.1,0,0.4-0.2,0.3h-0.2c-1.1-1-2.3-2.2-2.1-3.8l0.2,0C101.4,82.9,102.5,83.9,102.6,85.5
	L102.6,85.5z"/>
<path class="st1" d="M99.6,84.3c0,0.3-0.2,0.6-0.4,0.8c-0.4,0.1-1.1,0.1-1.2-0.5c0-0.4,0.4-0.6,0.6-0.8
	C99.1,83.6,99.5,83.9,99.6,84.3L99.6,84.3z"/>
<path class="st1" d="M97,85.1c-0.6,1.5-2.1,2.2-3.1,3.4c-0.2-0.1-0.1-0.4-0.1-0.6c0.4-1.5,1.6-3,3.1-3.6
	C97.5,84.3,96.9,84.8,97,85.1L97,85.1z"/>
<path class="st1" d="M100,86.3c0,0.4-0.4,0.5-0.6,0.7c-0.3,0-0.6-0.1-0.9-0.4c0-0.4,0.3-0.5,0.5-0.7C99.5,85.8,99.8,86,100,86.3
	L100,86.3z"/>
<path class="st1" d="M70.5,13.8c0.5,0,1,0.4,1,1c0,0.5-0.4,1-1,1H58.7c-0.5,0-1-0.4-1-1c0-0.5,0.4-1,1-1H70.5L70.5,13.8z M62.1,15.5
	c1.1,0,0.1-1.4-0.6-1.4h-1.1c-1.1,0-0.1,1.4,0.6,1.4H62.1L62.1,15.5z M67,15.5c1.1,0,0.1-1.4-0.6-1.4h-1.1c-1.1,0-0.1,1.4,0.6,1.4
	H67L67,15.5z M70.5,14.1h-0.4c-1.1,0-0.2,1.4,0.4,1.4C71.3,15.5,71.3,14.1,70.5,14.1L70.5,14.1z"/>
<path class="st1" d="M69.4,27.3l2.2,0.9l2.2-0.9L73,30.6l1.8-0.4l-0.6,2l0.6,1.9l-1.6-0.4l0.7,3.6l-2.2-0.9l-2.2,0.9l0.9-3.6
	l-1.8,0.5l0.5-2l-0.5-1.9l1.7,0.3L69.4,27.3L69.4,27.3z M72.7,33.2c0.5,0,0.5-0.7,0.5-1.3c0-1.4-1.1,0-1.6-1.3
	c-0.4,1.1-1.5,0.1-1.5,1.2c0,0.8,0,1.3,0.8,1.3H72.7L72.7,33.2z M70.5,32c0,0.5,0.7,0.2,1.2,0.2c0.5,0,1.2,0.3,1.2-0.2
	c0-0.7-0.7-0.5-1.2-0.5C71.2,31.5,70.5,31.3,70.5,32L70.5,32z"/>
<polygon class="st1" points="64.2,32.1 64.2,31.7 63.8,31.6 64.1,31.3 63.9,31 64.3,31 64.5,30.6 64.7,31 65.1,31 65,31.3 
	65.3,31.6 64.9,31.7 64.9,32.1 64.5,31.9 64.2,32.1 "/>
<polygon class="st1" points="62.4,34.4 62.4,34 62,33.9 62.3,33.6 62.2,33.2 62.5,33.3 62.8,32.9 63,33.3 63.4,33.2 63.2,33.6 
	63.5,33.9 63.1,34 63.1,34.4 62.8,34.1 62.4,34.4 "/>
<polygon class="st1" points="65.4,34.1 65.4,33.7 65,33.6 65.3,33.3 65.1,33 65.5,33 65.7,32.6 66,33 66.4,33 66.2,33.3 66.5,33.6 
	66.1,33.7 66.1,34.1 65.7,33.8 65.4,34.1 "/>
<polygon class="st1" points="65.7,35.8 65.7,35.5 65.5,35.5 65.7,35.3 65.6,35.1 65.8,35.1 65.9,34.9 66.1,35.1 66.3,35.1 
	66.2,35.3 66.3,35.5 66.1,35.5 66.1,35.8 65.9,35.6 65.7,35.8 "/>
<polygon class="st1" points="63,37.7 63,37 62.3,36.8 62.8,36.3 62.5,35.7 63.2,35.8 63.6,35.1 64,35.8 64.7,35.7 64.3,36.3 
	64.8,36.8 64.2,37 64.2,37.7 63.6,37.2 63,37.7 "/>
<polygon class="st1" points="64.4,0 65.8,3.4 69.3,2.4 67.5,5.6 70.5,7.8 66.9,8.4 67.1,12.1 64.4,9.6 61.6,12.1 61.9,8.4 58.2,7.8 
	61.2,5.6 59.4,2.4 63,3.4 64.4,0 "/>
<path class="st1" d="M51.6,77c-0.4,0.2-0.6,0.3-0.5,0.7l0.5,2.1c0.1,0.4,0.1,1-0.1,1.4c-0.3,0.5-1,0.7-1.4,0.9
	c-0.3,0.1-1.1,0.2-1.7,0c-0.4-0.2-0.7-0.4-0.8-1.1L47,78.8c-0.1-0.6-0.3-0.5-0.8-0.5l0-0.2l2.7-0.6l0,0.2c-0.5,0.1-0.8,0.2-0.6,0.8
	l0.5,2.2c0.1,0.4,0.3,1.3,1.4,1c1.4-0.3,1.2-1.3,1.1-1.8l-0.5-2c-0.1-0.4-0.2-0.6-0.9-0.5l0-0.2l1.7-0.4L51.6,77L51.6,77z"/>
<path class="st1" d="M55.5,77.5c-0.2-0.4-0.9-1.1-1.8-0.9c-0.4,0.1-0.8,0.4-0.7,0.8c0.1,0.4,0.3,0.5,1,0.6l1.3,0.2
	c0.3,0.1,1,0.3,1.1,1c0.1,0.6-0.2,1.5-1.7,1.8c-0.7,0.2-1.2,0-1.4,0.1c-0.2,0-0.2,0.2-0.2,0.3l-0.2,0.1l-0.4-1.6l0.2-0.1
	c0.3,0.6,0.9,1.3,1.9,1.1c0.9-0.2,0.8-0.9,0.8-1c-0.1-0.4-0.5-0.5-1.1-0.6l-0.6-0.1c-1.5-0.2-1.6-0.8-1.7-1.1
	c-0.1-0.4,0-1.4,1.5-1.7c0.6-0.1,1.1,0,1.3-0.1c0.2,0,0.2-0.1,0.2-0.3l0.2-0.1l0.3,1.4L55.5,77.5L55.5,77.5z"/>
<path class="st1" d="M60.8,80.1l-2.9,0.3l0-0.2c0.6-0.1,0.8-0.1,0.7-0.7l-0.3-3.6c-0.6,0.1-1.4,0.2-1.4,1.3l-0.2,0l-0.1-1.4l4.8-0.5
	l0.1,1.4l-0.2,0c-0.3-1.1-1.1-1-1.7-1l0.3,3.6c0.1,0.6,0.2,0.6,0.8,0.5L60.8,80.1L60.8,80.1z"/>
<path class="st1" d="M67.5,80.1l-1.7,0l-1.6-2.2l-0.2,0l0,1.3c0,0.5,0.2,0.6,0.7,0.6l0,0.2L61.9,80l0-0.2c0.6,0,0.7-0.1,0.7-0.6
	l0.1-3c0-0.6-0.2-0.6-0.7-0.6l0-0.2l2.6,0.1c0.6,0,2.3,0.1,2.3,1.2c0,0.8-0.9,1-1.3,1.1l1.6,2c0.1,0.1,0.2,0.1,0.3,0.1L67.5,80.1
	L67.5,80.1z M64,77.7c1.1,0,1.5-0.1,1.5-1c0-0.7-0.3-1-1-1c-0.4,0-0.5,0.1-0.5,0.3L64,77.7L64,77.7z"/>
<path class="st1" d="M72.8,80.8l-2.6-0.3l0-0.2c0.5,0,0.6,0,0.7-0.2c0-0.2-0.2-0.7-0.3-0.9l-1.8-0.2c-0.3,0.5-0.4,0.7-0.5,0.8
	c0,0.3,0.4,0.3,0.6,0.4l0,0.2l-1.6-0.2l0-0.2c0.4,0,0.6-0.2,0.9-0.7l2.2-3.5l0.2,0l1.4,3.8c0.3,0.8,0.4,1,0.8,1L72.8,80.8L72.8,80.8
	z M70.5,78.9l-0.6-1.7l-1,1.5L70.5,78.9L70.5,78.9z"/>
<path class="st1" d="M77.5,81.7l-4.6-0.8l0-0.2c0.5,0,0.7,0.1,0.8-0.3l0.6-3.2c0.1-0.4-0.2-0.5-0.6-0.6l0-0.2l2.8,0.5l0,0.2
	c-0.6-0.1-0.8-0.1-0.9,0.5L75,80.7c-0.1,0.3,0.1,0.4,0.6,0.5c1.2,0.2,1.7-0.3,2.3-0.9l0.2,0L77.5,81.7L77.5,81.7z"/>
<path class="st1" d="M80.6,82.4l-2.8-0.6l0-0.2c0.4,0.1,0.7,0.1,0.8-0.3l0.7-3.2c0.1-0.4-0.3-0.5-0.6-0.6l0-0.2l2.8,0.6l0,0.2
	c-0.4-0.1-0.8-0.1-0.8,0.3l-0.7,3.2c-0.1,0.4,0.2,0.5,0.7,0.6L80.6,82.4L80.6,82.4z"/>
<path class="st1" d="M86.2,83.1l-2.6-0.3l0-0.2c0.5,0,0.6,0,0.7-0.2c0-0.2-0.2-0.7-0.3-0.9l-1.8-0.2c-0.3,0.5-0.4,0.7-0.4,0.8
	c0,0.3,0.4,0.3,0.6,0.4l0,0.2l-1.6-0.2l0-0.2c0.4,0,0.6-0.2,0.9-0.7l2.2-3.5l0.2,0l1.4,3.7c0.3,0.8,0.4,1,0.8,1L86.2,83.1L86.2,83.1
	z M83.9,81.3l-0.6-1.7l-0.9,1.6L83.9,81.3L83.9,81.3z"/>
<path class="st1" d="M65.5,28.4c0-1.6-0.9-0.1-1.4-1.5c-0.4,1.2-1.5,0.2-1.5,1.4c0,0.5,0.1,0.8,0.4,0.9v0.5c0,0.1,0.1,0.2,0.2,0.2
	h1.7c0.1,0,0.2-0.1,0.2-0.2v-0.5C65.4,29,65.5,28.7,65.5,28.4L65.5,28.4z M64.1,28.7c-0.5,0-1.1,0.3-1.1-0.2c0-0.8,0.5-0.6,1-0.6
	c0.5,0,1.2-0.2,1.2,0.6C65.2,29,64.6,28.7,64.1,28.7L64.1,28.7z"/>
<path class="st1" d="M79.7,48.4c0.4,0,0.7-0.3,0.7-0.7c0-0.4-0.3-0.7-0.7-0.7c-0.4,0-0.7,0.3-0.7,0.7C78.9,48.1,79.3,48.4,79.7,48.4
	L79.7,48.4z"/>
<path class="st1" d="M76.2,24.2c0,0-0.4,0.6-0.4,0.7c0,0.2,0.2,0.4,0.4,0.4c0.2,0,0.4-0.2,0.4-0.4C76.5,24.9,76.2,24.2,76.2,24.2
	L76.2,24.2z"/>
<path class="st1" d="M52.2,24.2c0,0-0.4,0.6-0.4,0.7c0,0.2,0.2,0.4,0.4,0.4c0.2,0,0.4-0.2,0.4-0.4C52.6,24.9,52.2,24.2,52.2,24.2
	L52.2,24.2z"/>
<path class="st1" d="M58.2,24.2c0,0-0.4,0.6-0.4,0.7c0,0.2,0.2,0.4,0.4,0.4c0.2,0,0.4-0.2,0.4-0.4C58.6,24.9,58.2,24.2,58.2,24.2
	L58.2,24.2z"/>
<path class="st1" d="M64.2,24.2c0,0-0.4,0.6-0.4,0.7c0,0.2,0.2,0.4,0.4,0.4c0.2,0,0.4-0.2,0.4-0.4C64.6,24.9,64.2,24.2,64.2,24.2
	L64.2,24.2z"/>
<path class="st1" d="M70.2,24.2c0,0-0.3,0.6-0.3,0.7c0,0.2,0.2,0.4,0.4,0.4c0.2,0,0.4-0.2,0.4-0.4C70.5,24.9,70.2,24.2,70.2,24.2
	L70.2,24.2z"/>
<path class="st1" d="M52.2,32.4c0,0,0.3,0.6,0.3,0.7c0,0.2-0.2,0.4-0.4,0.4c-0.2,0-0.4-0.2-0.4-0.4C51.9,33.1,52.2,32.4,52.2,32.4
	L52.2,32.4z"/>
<path class="st1" d="M52.2,40.4c0,0,0.3,0.6,0.3,0.7c0,0.2-0.2,0.4-0.4,0.4c-0.2,0-0.4-0.2-0.4-0.4C51.9,41.1,52.2,40.4,52.2,40.4
	L52.2,40.4z"/>
<path class="st1" d="M53.2,46.8c0,0,0.4,0.6,0.4,0.7c0,0.2-0.2,0.4-0.4,0.4c-0.2,0-0.4-0.2-0.4-0.4C52.8,47.4,53.2,46.8,53.2,46.8
	L53.2,46.8z"/>
<path class="st1" d="M58.2,50.1c0,0,0.4,0.6,0.4,0.7c0,0.2-0.2,0.4-0.4,0.4c-0.2,0-0.4-0.2-0.4-0.4C57.8,50.8,58.2,50.1,58.2,50.1
	L58.2,50.1z"/>
<path class="st1" d="M76.5,32.4c0,0-0.3,0.6-0.3,0.7c0,0.2,0.2,0.4,0.4,0.4c0.2,0,0.4-0.2,0.4-0.4C76.8,33.1,76.5,32.4,76.5,32.4
	L76.5,32.4z"/>
<path class="st1" d="M76.5,40.4c0,0-0.3,0.6-0.3,0.7c0,0.2,0.2,0.4,0.4,0.4c0.2,0,0.4-0.2,0.4-0.4C76.8,41.1,76.5,40.4,76.5,40.4
	L76.5,40.4z"/>
<path class="st1" d="M75.5,46.8c0,0-0.4,0.6-0.4,0.7c0,0.2,0.2,0.4,0.4,0.4c0.2,0,0.4-0.2,0.4-0.4C75.9,47.4,75.5,46.8,75.5,46.8
	L75.5,46.8z"/>
<path class="st1" d="M70.5,50.1c0,0-0.3,0.6-0.3,0.7c0,0.2,0.2,0.4,0.4,0.4c0.2,0,0.4-0.2,0.4-0.4C70.9,50.8,70.5,50.1,70.5,50.1
	L70.5,50.1z"/>
<path class="st1" d="M64.4,53.7c0,0-0.3,0.6-0.3,0.7c0,0.2,0.2,0.4,0.4,0.4c0.2,0,0.4-0.2,0.4-0.4C64.7,54.4,64.4,53.7,64.4,53.7
	L64.4,53.7z"/>
<path class="st1" d="M74.1,41.8c0.1,0.1,0.3,0.2,0.5,0.1l0.2-0.6c0,0-0.3-0.3-0.4-0.3c-0.6,0.2-1.3,0.2-1.7,0.8c0,0.4,0.3,0.8,0.6,1
	c0.2-0.1,0.3,0.2,0.4,0.3c0,0.2-0.1,0.3-0.3,0.3c-0.5-0.5-1.2,0.2-1.6-0.4c0.1-0.6,0.5-1.2,0-1.7c0-0.1,0.2-0.2,0.1-0.3
	c-0.2-0.5-0.8-0.1-1.1-0.1c-0.6-0.1-1,0.2-1.4,0.7c0,0.2,0.1,0.4,0.3,0.6c0.2,0,0.2,0,0.3,0.2l-0.4,0.2c0.1,0.1,0.1,0.3,0.2,0.4
	c-0.3,0.1-0.5-0.3-0.6-0.5c0-0.3,0-0.8-0.4-0.9c-0.1,0-0.3,0.1-0.3,0.1c-0.1,0.1-0.2,0.4-0.2,0.6c0,0.3,0.1,0.7,0.1,0.7
	s1.2,0.9,1.4,1.4c-0.3,0.7-0.3,1.6-1.1,2c-0.2,0.2-0.2,0.4-0.2,0.6l0.2,0.2c0.5-0.3,1.4-0.3,1.4-1.2c0.2-0.3,0.4-0.7,0.7-1
	c0.4-0.1,0.7,0.1,0.9,0.4c-0.1,0.6-0.5,0.9-1,1.1c-0.1,0.1,0,0.2,0,0.3c0.2,0.3,0.6,0.2,0.8,0.1c0.6-0.4,0.9-1.2,1.5-1.4
	c0.1,0.4-0.8,0.5-0.2,0.9c0.3-0.1,0.8,0,1-0.4c-0.3-0.6,0.9-0.9,0.2-1.5c0-0.6,0.6-0.8,0.6-1.4c-0.2-0.6-0.9-0.6-1.1-1.2
	C73.6,41.6,73.9,41.6,74.1,41.8L74.1,41.8z"/>
<path class="st1" d="M46.6,48.7c0.4,0,0.7-0.3,0.7-0.7c0-0.4-0.3-0.7-0.7-0.7c-0.4,0-0.7,0.3-0.7,0.7C45.9,48.4,46.2,48.7,46.6,48.7
	L46.6,48.7z"/>
<path class="st1" d="M7.8,71.4c0.4,0,0.7-0.3,0.7-0.7c0-0.4-0.3-0.7-0.7-0.7c-0.4,0-0.7,0.3-0.7,0.7C7,71,7.3,71.4,7.8,71.4
	L7.8,71.4z"/>
<path class="st1" d="M32.5,76.9L32.5,76.9L32.5,76.9l-0.1-0.1v0C32.4,76.9,32.4,76.9,32.5,76.9L32.5,76.9h-0.2v0c0,0,0,0,0,0v-0.1
	c0,0,0,0,0,0v0h0.1C32.4,76.7,32.5,76.7,32.5,76.9C32.5,76.8,32.4,76.8,32.5,76.9L32.5,76.9C32.5,76.9,32.5,76.9,32.5,76.9
	L32.5,76.9L32.5,76.9z M32.4,76.8C32.4,76.8,32.4,76.8,32.4,76.8C32.4,76.8,32.4,76.7,32.4,76.8C32.4,76.7,32.4,76.7,32.4,76.8
	L32.4,76.8L32.4,76.8z"/>
<path class="st1" d="M32.6,76.8C32.6,76.8,32.6,76.7,32.6,76.8C32.5,76.7,32.5,76.7,32.6,76.8C32.5,76.8,32.5,76.8,32.6,76.8
	L32.6,76.8C32.6,76.8,32.6,76.8,32.6,76.8C32.6,76.9,32.6,76.9,32.6,76.8C32.5,76.9,32.5,76.9,32.6,76.8
	C32.5,76.9,32.5,76.9,32.6,76.8l-0.1,0.1v0L32.6,76.8C32.5,76.8,32.5,76.9,32.6,76.8C32.6,76.9,32.6,76.8,32.6,76.8
	C32.6,76.8,32.6,76.8,32.6,76.8L32.6,76.8C32.5,76.8,32.5,76.8,32.6,76.8C32.5,76.8,32.5,76.7,32.6,76.8
	C32.6,76.7,32.6,76.7,32.6,76.8C32.6,76.7,32.6,76.7,32.6,76.8L32.6,76.8L32.6,76.8L32.6,76.8L32.6,76.8z"/>
<path class="st1" d="M32.8,76.7C32.8,76.7,32.8,76.7,32.8,76.7l-0.1,0.1h0l0-0.1h0l0,0.1h0l0-0.1c0,0,0,0,0,0v0h0.1v0c0,0,0,0,0,0
	c0,0,0,0,0,0l0,0.1h0l0-0.1l0,0c0,0,0,0,0,0v0L32.8,76.7L32.8,76.7C32.8,76.7,32.7,76.7,32.8,76.7C32.7,76.8,32.7,76.8,32.8,76.7
	L32.8,76.7L32.8,76.7L32.8,76.7C32.8,76.8,32.8,76.8,32.8,76.7C32.8,76.7,32.8,76.7,32.8,76.7L32.8,76.7L32.8,76.7L32.8,76.7
	L32.8,76.7z"/>
<path class="st1" d="M32.8,76.9C32.9,76.9,32.9,76.9,32.8,76.9C32.9,76.8,32.9,76.8,32.8,76.9C32.9,76.8,32.9,76.8,32.8,76.9
	C32.9,76.8,32.8,76.8,32.8,76.9c0-0.1,0-0.1,0.1-0.1c0,0,0.1,0,0.1,0.1C32.9,76.8,32.9,76.9,32.8,76.9L32.8,76.9L32.8,76.9z
	 M32.9,76.8C32.9,76.8,32.9,76.8,32.9,76.8C32.9,76.8,32.9,76.8,32.9,76.8C32.9,76.8,32.9,76.7,32.9,76.8
	C32.9,76.7,32.9,76.8,32.9,76.8C32.9,76.8,32.9,76.8,32.9,76.8L32.9,76.8z"/>
<path class="st1" d="M33,76.8C33,76.8,33,76.8,33,76.8C33,76.8,33,76.8,33,76.8C33,76.9,33,76.9,33,76.8C33,76.9,32.9,76.9,33,76.8
	C32.9,76.8,33,76.8,33,76.8C33,76.8,33,76.9,33,76.8C33,76.9,33,76.9,33,76.8C33,76.8,33,76.8,33,76.8C33,76.8,33,76.8,33,76.8
	L33,76.8L33,76.8L33,76.8L33,76.8L33,76.8L33,76.8z"/>
<path class="st1" d="M78.2,23.3L78.2,23.3l-27.6,0v0h0l0,21.1c0,2.2,0.9,4,2.2,4.6l10.6,6.8c0.2,0.3,0.6,0.4,1,0.4
	c0.3,0,0.6-0.1,0.9-0.3L76,49c1.3-0.6,2.2-2.5,2.2-4.6L78.2,23.3L78.2,23.3L78.2,23.3z M77.4,44.7c-0.1,1.6-0.7,2.9-1.8,3.7L65.2,55
	h-0.1c-0.2,0.2-0.5,0.3-0.8,0.3c-0.3,0-0.6-0.1-0.8-0.3l-10.4-6.6c-1.1-0.8-1.6-2.1-1.8-3.7V24h26.1V44.7L77.4,44.7z"/>
<path class="st1" d="M68.1,54.1l0.3-0.2C68.3,53.9,68.2,54,68.1,54.1L68.1,54.1z"/>
<path class="st1" d="M47.2,82.9l-2.6,0.3l0-0.2c0.5-0.1,0.6-0.1,0.6-0.3c0-0.2-0.3-0.7-0.5-0.9l-1.8,0.2c-0.2,0.5-0.3,0.8-0.3,0.9
	c0,0.3,0.4,0.2,0.7,0.2l0,0.2l-1.6,0.2l0-0.2c0.4-0.1,0.5-0.3,0.7-0.9l1.4-3.9l0.2,0l2.2,3.3c0.4,0.7,0.6,0.9,1,0.8L47.2,82.9
	L47.2,82.9z M44.6,81.6l-1-1.5L43,81.8L44.6,81.6L44.6,81.6z"/>
<path class="st1" d="M93,73c-0.5-1.2-1.5-2.1-2.7-2.5c-1.3-0.3-2.6-0.1-3.5,0.9c-1.4,1.2-0.4,3.1-0.4,4.6c0,0.3,0,0.6-0.3,0.7
	c-5.8-0.5-11.1-2-16.8-2.6c-1.3-0.2-2.6-0.2-3.9-0.4l-1.6-0.2c-5,0.2-9.9,0.4-14.6,1.6c-1,0.3-2.1,0.4-3.1,0.8
	c-0.7-0.1-1.3,0.4-2,0.2l-1.3,0.3c-0.1,0-0.3,0-0.4,0c-0.6-1.6,1.3-2.6,0.7-4.2c-0.5-0.9-1.5-1.8-2.7-1.6c-1.3-0.2-2.5,0.6-3.2,1.6
	c-0.9,2,0.2,4.1,0.6,6c-0.1,0.6,0.6,1.4,0,1.9c-1.3-0.9-2.9-1.4-4.5-0.9c-0.5,0.2-1.3-0.1-1.6,0.5c1.7,0.9,3.9,0.8,5.8,0.7
	c0.2-0.1,0.4-0.1,0.6,0c0.2,1-0.2,2.4,0.4,3.4c0.7,1,1.9,1.2,3.1,1.3c3.7-0.1,6.9-1.2,10.2-2c0.5,0,0.9-0.3,1.5-0.3
	c1.8-0.4,3.7-0.7,5.6-0.8c-0.8,1.1-1.3,2.3-1.7,3.6c-0.5,1.1,0.8,1.2,1.2,1.8c-1.2,0.4-2.1,1.2-3.3,1.7c-2.5-0.1-4.7,0.9-7.1,1.2
	c0,0.5,0.8,0.4,0.9,0.9c-0.1,0.4-0.5,0.4-0.8,0.6c0,0.2,0,0.3,0.2,0.3c0.2-0.3,0.8-0.1,1-0.4c0.8,0,1.5-0.2,2.2-0.3
	c0.7-0.3,1.4-0.3,2-0.8c0.8-0.2,1.3-0.8,2.2-1c1.2,0,2.3-0.4,3.4-0.5v0.2c-0.9,1.5-1.9,3-2.8,4.4c-0.2,0.3,0,0.6,0.3,0.6
	c0.6,0.2,1.1,0,1.5-0.2c0.8-1.4,1.6-2.8,2.3-4.3c0.3-1.4,1.3-2.1,2.3-3c0.2-0.1,0.4-0.3,0.6-0.1c-0.8,0.9-1.3,1.8-1.9,2.8
	c-0.3,1.1-0.4,2.6,0.6,3.5c0.5,0.4,1.2,0.3,1.8,0.3c1.5-0.8,3.5,0.5,4.7-1c0.7-0.1,0.8,0.7,1.2,1.1c0.7,0.2,1.4,0.9,2.1,0.4
	c0-0.4-0.5-0.8-0.8-1.2c-0.5-0.8-1.1-1.5-1.5-2.3c-0.2-0.6-0.6-0.9-0.6-1.5c0.7,0.2,1.3,0.7,2.1,0.8c0.7,0.3,1.5,0.2,2.1,0.6
	c0.5,0.7,1.3,1.1,2,1.5c1,0.5,2.1,0.6,3.1,1c0.4,0,1,0.4,1.3,0c-0.2-0.2-0.4-0.3-0.6-0.4c-0.1-0.5,0.7-0.2,1-0.6
	c-0.1-0.2-0.3-0.3-0.5-0.3c-0.6-0.3-2-0.4-2.4-0.6c-0.5-0.1-0.9-0.3-1.4-0.4c-2.4,0-3.7-2.2-5.6-3c0.4-0.4,1.1-0.7,1.4-1.3
	c0.4-0.6,0.5-1.5,0.1-2.1c-0.4-1.2-1.9-1.1-2.9-1.8l0.1-0.1c1.5-0.1,2.9,0.3,4.3,0.6c3.8,0.5,7.3,2,11.3,2c2.2,0,4.9,0.1,6-2
	c0.2-1.2,0.4-2.5,0.6-3.7C91.9,77.1,93.2,75.2,93,73L93,73z M50.2,91.2l-0.6-0.5c0.3-0.4,0.9-0.2,1.3-0.4c1-0.3,2.2-0.7,3.4-0.5
	C53.1,90.8,51.5,90.9,50.2,91.2L50.2,91.2z M74.9,90.6c0.9,0.4,2.9,0.8,4.2,1c-0.1,0.5-1.1,0-1,0.8c-1.2-0.5-2.7-0.7-3.6-1.7
	C74.7,90.7,74.8,90.6,74.9,90.6L74.9,90.6z M37.7,73.6c0.1-0.7,0.3-1.5,1-2c1-0.5,2.3-0.4,3.1,0.1c0.3,0.2,0.5,0.4,0.6,0.8
	c0.2,0.7-0.1,1.4-0.6,1.8h-0.4c0-0.6,0-1.3,0.2-1.8c0-0.5-0.4-0.5-0.8-0.7c-0.7-0.2-1.3,0.1-1.8,0.4c-0.4,0.5-0.8,1.1-0.5,1.8
	c0.3,0.4,0,1,0.2,1.5l-0.1,0.2C38.2,75.1,37.6,74.5,37.7,73.6L37.7,73.6z M39.6,74.8c0.6,0.4,1.4,0.2,2.1,0.4c0.1,0.4,0.1,1-0.2,1.4
	c-0.7-0.2-1.5-0.1-1.9-0.7C39.7,75.5,39.5,75.1,39.6,74.8L39.6,74.8z M39.4,73.4c0.1-0.3,0-0.8,0.4-0.9c0.3-0.1,0.7-0.1,0.8,0.2
	c0,0.5-0.1,1-0.2,1.4C39.9,74.2,39.6,73.9,39.4,73.4L39.4,73.4z M58,86.3c-0.2-1.4,0.4-2.6,1.3-3.6c0.6-0.1,1.2-0.2,1.7,0.1
	c-1,0.3-2.3,0.5-2.6,1.8c0,0.5-0.1,0.8,0.1,1.2c0.4,0.8,1.4,0.4,2,1c0,0.2-0.2,0.4-0.4,0.5C59.5,86.9,58.7,86.8,58,86.3L58,86.3z
	 M56.6,89c1-0.4,1.9-1.2,3-0.9C58.9,88.7,57.6,89,56.6,89L56.6,89z M60.4,89.4c-0.6,1.3-1.2,2.5-1.9,3.8c-0.1,0.2-0.4,0.2-0.6,0.3
	c0-0.6,0.6-1,0.8-1.5c0.8-1.1,1.1-2.2,2-3.3C60.9,88.9,60.4,89.1,60.4,89.4L60.4,89.4z M61.4,87.1v0.2h-0.1L61.4,87.1L61.4,87.1
	L61.4,87.1C61.4,87.1,61.3,87.1,61.4,87.1L61.4,87.1L61.4,87.1z M61,86c-0.7-0.1-1.3-0.3-1.9-0.5c-0.4-0.4,0-0.8,0-1.3
	c0.6-0.9,2.1-1.3,2.9-0.5C61.9,84.6,61.6,85.4,61,86L61,86z M61.9,86c0.1-0.5,0.4-1.2,0.6-1.7C62.5,84.9,62.2,85.6,61.9,86L61.9,86z
	 M62.3,82.8c-0.5-0.1-0.8-0.7-1.3-0.7c0.5-0.2,1-0.1,1.5,0C62.7,82.3,62.4,82.5,62.3,82.8L62.3,82.8z M62.8,84L62.8,84l0-0.4h0V84
	L62.8,84z M62.8,85.8c0-0.2,0.1-0.4,0.1-0.6c0.2-0.2,0.4,0.2,0.5,0.3C63.3,85.7,63.1,85.9,62.8,85.8L62.8,85.8z M63.4,83.3
	c0.2-0.6,0.2-1,0.6-1.5c0.4,0,0.8,0,1.1,0.2c0.1,0.8,1.1,1.9,0,2.6c-0.4,0.2-0.9,0.5-1.3,0.2C63.3,84.3,63.2,83.9,63.4,83.3
	L63.4,83.3z M66.3,82.2c-0.1-0.4,0.4-0.1,0.5-0.2l1.2,0.1C67.4,82,66.7,83.5,66.3,82.2L66.3,82.2z M68.3,82.7
	c-0.5,0.2-0.8,0.7-1.3,0.8C67.2,83.1,67.8,82.7,68.3,82.7L68.3,82.7z M66.7,85.2v0.1h0L66.7,85.2L66.7,85.2L66.7,85.2z M66.7,87.7
	c0,0.1,0,0.2-0.1,0.3l-0.9-0.7C66.2,87.1,66.5,87.3,66.7,87.7L66.7,87.7z M65.7,86.4c0.1-0.1,0.3-0.1,0.4,0H65.7L65.7,86.4z
	 M65.1,85.8c0.2-0.2,0.4-0.6,0.6-0.6c0,0,0,0.1,0.1,0.1C65.6,85.5,65.4,85.7,65.1,85.8L65.1,85.8z M64.2,85.7H64l0.2-0.2
	C64.4,85.6,64.2,85.7,64.2,85.7L64.2,85.7z M64.3,87.3c0.5-0.6,1,0.3,1.2,0.8c0.6,0.9,2.1,1.7,1.5,2.9c-0.8,0.7-1.9,0-2.8,0.6
	c-0.4,0-1.2,0.1-1.4-0.4C63.3,89.8,63.7,88.4,64.3,87.3L64.3,87.3z M63.2,88l0.2-0.3c-0.3,1-0.8,2-1.3,2.9
	C61.9,89.6,62.8,88.9,63.2,88L63.2,88z M64.9,92.8c-0.8,0-1.9,0.5-2.6-0.2c0-0.3-0.3-0.5-0.3-0.8c0.6-0.2,1.2,0.5,1.8,0
	c0.9,0,1.9-0.1,2.8,0.1c0.4,0.1,1.1-0.7,1.2,0.1C67.5,93.3,65.9,92.4,64.9,92.8L64.9,92.8z M67.2,87v-0.1h0.1L67.2,87L67.2,87
	L67.2,87z M67.5,89.5c0,0.4,0.4,0.6,0.2,0.9C67.6,90.3,67.4,89.9,67.5,89.5L67.5,89.5z M68.6,91.9L68.4,92c-0.2-0.2-0.1-0.6-0.1-0.8
	C68.6,91.4,68.8,91.6,68.6,91.9L68.6,91.9z M70.6,92.9c0,0.1-0.2,0.1-0.3,0c-1.2-1.5-1.7-3.1-2.5-4.8l0.2,0
	C68.9,89.7,69.6,91.4,70.6,92.9L70.6,92.9z M72,89.2c-0.1,0-0.1,0.1-0.1,0.2c-1.2,0-1.9-0.6-2.8-1.2l0-0.2
	C70.2,88,71.1,88.7,72,89.2L72,89.2z M71,83.9c0.5,0.1,0.5,0.6,0.6,1c0,0.9-0.5,1.6-1.3,2c-0.4,0.2-1.1,0.3-1.5,0.2
	c1,0,2-0.4,2.4-1.4L71,83.9L71,83.9z M70.1,83.7c0.2,0.6,0.6,1.1,0.4,1.8c-0.4,0.8-1.2,0.8-1.9,0.9c-0.4,0-0.6-0.1-0.9-0.3
	c0-0.2,0-0.3-0.2-0.4c0.1-0.5-0.9-1-0.2-1.5C68,83.7,69.5,82.3,70.1,83.7L70.1,83.7z M90.3,80.8c-0.3,0.4,0,1-0.4,1.4
	c0,0.7-0.6,1.1-1.1,1.4c-4.7,1-9.4-0.6-13.9-1.4c-6.4-1.4-13.8-1.8-20.3-0.3c-3.1,0.6-6,1.3-9,2.1c-1.8,0.2-3.8,0.5-5.6,0
	c-1.4-0.7-0.8-2.5-1.3-3.8c0.1-1-0.3-1.8-0.3-2.8c-0.1-0.3-0.2-0.7-0.2-1c0.6,0.1,1.2,0.5,1.8,0.7c3.3,0.6,6.3-0.4,9.4-1
	c3-0.6,6-1.2,9.2-1.4c3.6,0,7.2-0.2,10.6,0.4c1.1,0,2.1,0.3,3.1,0.4c2.2,0.3,4.3,0.9,6.5,1c0.4,0.1,0.8,0.1,1.2,0.2
	c3.6,0.6,7.6,1.6,11,0C91.1,78.1,90.5,79.4,90.3,80.8L90.3,80.8z M89.2,75.9c0,0.6-0.6,0.5-0.9,0.7h-1c-0.2-0.3-0.1-0.8-0.1-1.1
	C87.9,75.7,88.6,75.7,89.2,75.9L89.2,75.9z M88.7,74.9c0.4-0.4-0.1-3,1.1-1.3c0,0.3,0,0.8-0.3,1C89.4,74.8,89.1,75.1,88.7,74.9
	L88.7,74.9z M92,74.5c-0.4,0.7-0.9,1.2-1.7,1.4c0-1,0.9-1.6,0.6-2.7c-0.5-0.8-1.5-1-2.5-0.8c-0.4,0.2-0.2,0.6-0.3,1l-0.2,1.3
	c-0.8,0-0.8-0.7-1.1-1.3c0-0.8,0.4-1.7,1.2-2.1c0.6-0.3,1.7-0.3,2.3,0.1c0.5,0.1,1.1,0.4,1.3,0.8C92.2,72.8,92.1,73.8,92,74.5
	L92,74.5z"/>
<line class="st2" x1="140.8" y1="59.7" x2="541.2" y2="59.7"/>
<path class="st0" d="M140.8,87.1v-0.4h0.5c0.5,0,0.8-0.1,1.1-0.2c0.2-0.1,0.4-0.3,0.6-0.6c0.1-0.2,0.1-0.7,0.1-1.5V74
	c0-0.8,0-1.3-0.1-1.5s-0.3-0.4-0.5-0.5c-0.3-0.2-0.6-0.2-1.1-0.2h-0.5v-0.4h7.1c1.9,0,3.4,0.3,4.6,0.8c1.4,0.6,2.5,1.6,3.2,2.9
	c0.7,1.3,1.1,2.7,1.1,4.3c0,1.1-0.2,2.1-0.5,3.1c-0.4,0.9-0.8,1.7-1.4,2.3c-0.6,0.6-1.2,1.1-2,1.5c-0.7,0.4-1.7,0.7-2.7,0.9
	c-0.5,0.1-1.2,0.1-2.2,0.1H140.8L140.8,87.1z M146.9,72.2v12.4c0,0.7,0,1.1,0.1,1.2c0.1,0.1,0.2,0.3,0.3,0.3
	c0.2,0.1,0.5,0.2,0.9,0.2c1.3,0,2.3-0.4,3-1.3c0.9-1.2,1.4-3.1,1.4-5.6c0-2-0.3-3.7-1-4.9c-0.5-1-1.2-1.6-2-1.9
	C149.1,72.3,148.2,72.1,146.9,72.2L146.9,72.2z"/>
<path class="st0" d="M167.3,81.3h-6c0.1,1.5,0.5,2.6,1.2,3.4c0.5,0.6,1.2,1,1.9,1c0.5,0,0.9-0.1,1.3-0.4c0.4-0.3,0.8-0.7,1.2-1.4
	l0.4,0.3c-0.6,1.2-1.3,2.1-2,2.6c-0.7,0.5-1.6,0.7-2.5,0.8c-1.6,0-2.9-0.6-3.7-1.9c-0.7-1-1-2.3-1-3.8c0-1.8,0.5-3.3,1.5-4.4
	c1-1.1,2.2-1.6,3.5-1.6c1.1,0,2.1,0.5,2.9,1.4C166.8,78.1,167.3,79.5,167.3,81.3L167.3,81.3z M164.4,80.5c0-1.3-0.1-2.1-0.2-2.6
	c-0.1-0.5-0.3-0.8-0.6-1.1c-0.2-0.1-0.4-0.2-0.7-0.2c-0.4,0-0.7,0.2-1,0.6c-0.5,0.7-0.7,1.6-0.7,2.9v0.4H164.4L164.4,80.5z"/>
<path class="st0" d="M172.5,86v4.1c0,0.6,0,0.9,0.1,1.1c0.1,0.2,0.2,0.4,0.4,0.4c0.2,0.1,0.6,0.1,1.1,0.1v0.4h-6.2v-0.4
	c0.5,0,0.8-0.2,1.1-0.4c0.2-0.2,0.2-0.6,0.2-1.4V78.5c0-0.8-0.1-1.3-0.3-1.5c-0.2-0.2-0.5-0.3-1-0.4v-0.4h4.6v1.4
	c0.4-0.6,0.8-1,1.2-1.2c0.6-0.4,1.2-0.6,1.9-0.6c0.8,0,1.5,0.3,2.2,0.8c0.7,0.5,1.2,1.2,1.5,2.1c0.3,0.9,0.5,1.9,0.5,2.9
	c0,1.1-0.2,2.1-0.5,3c-0.4,0.9-0.9,1.6-1.5,2.1c-0.7,0.5-1.4,0.7-2.2,0.7c-0.6,0-1.2-0.1-1.7-0.4C173.3,86.9,172.9,86.5,172.5,86
	L172.5,86z M172.5,84.8c0.7,1,1.4,1.4,2.2,1.4c0.4,0,0.8-0.2,1-0.7c0.4-0.7,0.6-1.9,0.6-3.8c0-1.9-0.2-3.2-0.7-3.9
	c-0.3-0.5-0.7-0.7-1.2-0.7c-0.8,0-1.4,0.6-1.9,1.7V84.8L172.5,84.8z"/>
<path class="st0" d="M187.1,85.5c-1.3,1.2-2.5,1.8-3.6,1.8c-0.6,0-1.1-0.2-1.6-0.6c-0.4-0.4-0.6-0.9-0.6-1.5c0-0.8,0.4-1.6,1.1-2.2
	c0.7-0.7,2.3-1.6,4.7-2.7v-1.1c0-0.8,0-1.3-0.1-1.6c-0.1-0.2-0.3-0.4-0.5-0.6c-0.3-0.2-0.5-0.2-0.8-0.2c-0.5,0-0.9,0.1-1.3,0.3
	c-0.2,0.1-0.3,0.3-0.3,0.5c0,0.2,0.1,0.4,0.3,0.6c0.3,0.3,0.4,0.7,0.4,1c0,0.4-0.1,0.7-0.4,1c-0.3,0.3-0.7,0.4-1.1,0.4
	c-0.5,0-0.9-0.1-1.2-0.4c-0.3-0.3-0.5-0.6-0.5-1c0-0.6,0.2-1.1,0.7-1.6c0.4-0.5,1.1-0.9,1.9-1.2s1.6-0.4,2.5-0.4
	c1,0,1.9,0.2,2.5,0.7c0.6,0.4,1,0.9,1.2,1.4c0.1,0.3,0.2,1.1,0.2,2.3v4.3c0,0.5,0,0.8,0.1,0.9c0,0.1,0.1,0.2,0.2,0.3
	c0.1,0.1,0.2,0.1,0.3,0.1c0.2,0,0.4-0.1,0.6-0.4l0.4,0.3c-0.4,0.6-0.8,1-1.2,1.3c-0.4,0.3-0.9,0.4-1.4,0.4c-0.6,0-1.1-0.1-1.5-0.4
	C187.4,86.6,187.2,86.1,187.1,85.5L187.1,85.5z M187.1,84.7V81c-0.9,0.6-1.6,1.1-2.1,1.8c-0.3,0.4-0.5,0.8-0.5,1.3
	c0,0.4,0.1,0.7,0.4,0.9c0.2,0.2,0.5,0.3,0.8,0.3C186.2,85.3,186.6,85.1,187.1,84.7L187.1,84.7z"/>
<path class="st1" d="M196.9,76.2v2.5c0.7-1.1,1.4-1.9,1.9-2.2c0.5-0.4,1.1-0.6,1.6-0.6c0.4,0,0.8,0.1,1,0.4c0.3,0.3,0.4,0.6,0.4,1.1
	c0,0.5-0.1,0.9-0.4,1.2c-0.2,0.3-0.6,0.4-0.9,0.4c-0.4,0-0.8-0.1-1.1-0.4c-0.3-0.3-0.5-0.4-0.5-0.4c-0.1,0-0.2-0.1-0.3-0.1
	c-0.2,0-0.4,0.1-0.6,0.3c-0.3,0.3-0.6,0.6-0.7,1.1c-0.2,0.8-0.4,1.6-0.4,2.5v2.5l0,0.7c0,0.4,0,0.7,0.1,0.9c0.1,0.2,0.2,0.4,0.4,0.5
	c0.2,0.1,0.5,0.2,0.9,0.2v0.4h-5.9v-0.4c0.5,0,0.8-0.2,1-0.4c0.2-0.2,0.3-0.8,0.3-1.8v-6.1c0-0.6,0-1-0.1-1.2
	c-0.1-0.2-0.2-0.4-0.3-0.5c-0.1-0.1-0.4-0.2-0.8-0.2v-0.4H196.9L196.9,76.2z"/>
<path class="st1" d="M207.4,72.2v4h2.6v1.2h-2.6v6.8c0,0.6,0,1,0.1,1.2c0.1,0.2,0.2,0.3,0.3,0.4c0.1,0.1,0.3,0.2,0.4,0.2
	c0.5,0,1-0.4,1.4-1.2L210,85c-0.6,1.5-1.7,2.2-3.1,2.2c-0.7,0-1.3-0.2-1.8-0.6c-0.5-0.4-0.8-0.8-0.9-1.3c-0.1-0.3-0.1-1-0.1-2.2
	v-5.9h-1.4v-0.4c1-0.7,1.8-1.4,2.5-2.2c0.7-0.8,1.3-1.6,1.8-2.6H207.4L207.4,72.2z"/>
<path class="st1" d="M215.5,76.2v1.4c0.6-0.7,1.2-1.1,1.7-1.4c0.5-0.3,1.1-0.4,1.7-0.4c0.7,0,1.3,0.2,1.8,0.5
	c0.5,0.3,0.8,0.8,1.1,1.5c0.6-0.7,1.2-1.2,1.8-1.5c0.6-0.3,1.2-0.5,1.8-0.5c0.8,0,1.4,0.2,1.8,0.5c0.5,0.3,0.8,0.8,0.9,1.3
	c0.2,0.5,0.3,1.4,0.3,2.6v4.5c0,0.8,0.1,1.4,0.2,1.6c0.2,0.2,0.5,0.3,1,0.4v0.4h-5.7v-0.4c0.4,0,0.8-0.2,1-0.5
	c0.1-0.2,0.2-0.7,0.2-1.5V80c0-1,0-1.6-0.1-1.9c-0.1-0.3-0.2-0.5-0.4-0.6c-0.2-0.1-0.4-0.2-0.6-0.2c-0.3,0-0.7,0.1-1,0.4
	c-0.3,0.2-0.7,0.6-1,1.1v5.9c0,0.8,0.1,1.3,0.2,1.5c0.2,0.3,0.5,0.4,1,0.5v0.4h-5.7v-0.4c0.3,0,0.5-0.1,0.7-0.2
	c0.2-0.1,0.3-0.3,0.4-0.5c0.1-0.2,0.1-0.6,0.1-1.3V80c0-1,0-1.6-0.1-1.9c-0.1-0.2-0.2-0.4-0.4-0.6c-0.2-0.1-0.4-0.2-0.6-0.2
	c-0.3,0-0.6,0.1-0.9,0.2c-0.4,0.2-0.8,0.7-1.2,1.2v5.9c0,0.8,0.1,1.3,0.2,1.5c0.2,0.2,0.5,0.4,1,0.4v0.4h-5.6v-0.4
	c0.5,0,0.8-0.2,1-0.4c0.1-0.2,0.2-0.7,0.2-1.5v-6.2c0-0.8-0.1-1.3-0.2-1.5c-0.1-0.2-0.5-0.3-0.9-0.4v-0.4H215.5L215.5,76.2z"/>
<path class="st0" d="M239.6,81.3h-6c0.1,1.5,0.5,2.6,1.2,3.4c0.5,0.6,1.2,1,1.9,1c0.5,0,0.9-0.1,1.3-0.4c0.4-0.3,0.8-0.7,1.2-1.4
	l0.4,0.3c-0.6,1.2-1.2,2.1-2,2.6c-0.7,0.5-1.6,0.7-2.5,0.8c-1.6,0-2.9-0.6-3.7-1.9c-0.7-1-1-2.3-1-3.8c0-1.8,0.5-3.3,1.5-4.4
	c1-1.1,2.2-1.6,3.5-1.6c1.1,0,2.1,0.5,2.9,1.4C239.1,78.1,239.5,79.5,239.6,81.3L239.6,81.3z M236.7,80.5c0-1.3-0.1-2.1-0.2-2.6
	c-0.1-0.5-0.3-0.8-0.6-1.1c-0.2-0.1-0.4-0.2-0.7-0.2c-0.4,0-0.7,0.2-1,0.6c-0.5,0.7-0.7,1.6-0.7,2.9v0.4H236.7L236.7,80.5z"/>
<path class="st1" d="M245.2,76.2v1.4c0.6-0.6,1.1-1.1,1.6-1.3c0.5-0.3,1.1-0.4,1.7-0.4c0.7,0,1.3,0.2,1.8,0.6
	c0.5,0.4,0.8,0.9,0.9,1.5c0.1,0.4,0.2,1.3,0.2,2.6v4.3c0,0.8,0.1,1.4,0.2,1.6c0.2,0.2,0.5,0.3,1,0.4v0.4H247v-0.4
	c0.4-0.1,0.7-0.2,0.9-0.5c0.1-0.2,0.2-0.7,0.2-1.5v-4.9c0-0.9,0-1.5-0.1-1.7c-0.1-0.2-0.2-0.4-0.4-0.5c-0.2-0.1-0.3-0.2-0.6-0.2
	c-0.7,0-1.3,0.5-1.9,1.4v5.9c0,0.8,0.1,1.3,0.2,1.6c0.2,0.2,0.4,0.4,0.9,0.4v0.4h-5.5v-0.4c0.5,0,0.8-0.2,1-0.4
	c0.1-0.2,0.2-0.7,0.2-1.5v-6.2c0-0.8-0.1-1.3-0.2-1.5c-0.1-0.2-0.5-0.3-0.9-0.4v-0.4H245.2L245.2,76.2z"/>
<path class="st1" d="M257.5,72.2v4h2.6v1.2h-2.6v6.8c0,0.6,0,1,0.1,1.2c0.1,0.2,0.2,0.3,0.3,0.4c0.1,0.1,0.3,0.2,0.4,0.2
	c0.5,0,1-0.4,1.4-1.2l0.4,0.3c-0.6,1.5-1.7,2.2-3.1,2.2c-0.7,0-1.3-0.2-1.8-0.6c-0.5-0.4-0.8-0.8-0.9-1.3c-0.1-0.3-0.1-1-0.1-2.2
	v-5.9h-1.4v-0.4c1-0.7,1.8-1.4,2.5-2.2c0.7-0.8,1.3-1.6,1.8-2.6H257.5L257.5,72.2z"/>
<path class="st0" d="M271.6,75.9c1,0,1.8,0.2,2.7,0.7s1.4,1.2,1.9,2.1c0.4,0.9,0.6,1.9,0.6,3c0,1.6-0.4,2.9-1.2,3.9
	c-1,1.3-2.3,1.9-3.9,1.9c-1.6,0-2.9-0.6-3.8-1.7c-0.9-1.2-1.3-2.5-1.3-4c0-1.6,0.5-2.9,1.4-4.1C268.8,76.4,270,75.9,271.6,75.9
	L271.6,75.9z M271.7,76.7c-0.4,0-0.7,0.2-1,0.5c-0.3,0.3-0.5,0.9-0.6,1.8c-0.1,0.9-0.1,2.1-0.1,3.7c0,0.8,0.1,1.6,0.2,2.3
	c0.1,0.6,0.3,1,0.6,1.3c0.3,0.3,0.6,0.4,1,0.4c0.4,0,0.6-0.1,0.9-0.3c0.3-0.3,0.5-0.6,0.6-1.1c0.2-0.7,0.2-2.2,0.2-4.5
	c0-1.3-0.1-2.2-0.2-2.7c-0.1-0.5-0.4-0.9-0.7-1.1C272.3,76.8,272,76.7,271.7,76.7L271.7,76.7z"/>
<path class="st1" d="M282.7,77.3v7.6c0,0.7,0.1,1.2,0.2,1.4c0.2,0.3,0.7,0.4,1.4,0.4v0.4h-6.5v-0.4c0.5,0,0.8-0.1,1-0.2
	c0.2-0.1,0.4-0.3,0.4-0.4s0.1-0.6,0.1-1.2v-7.6h-1.6v-1.1h1.6v-0.8l0-0.6c0-1.1,0.4-2.1,1.2-2.8c0.8-0.8,1.9-1.1,3.4-1.1
	c1,0,1.7,0.2,2.1,0.5c0.5,0.4,0.7,0.8,0.7,1.2c0,0.4-0.1,0.7-0.4,0.9c-0.3,0.3-0.7,0.4-1.1,0.4c-0.4,0-0.7-0.1-1-0.3
	c-0.2-0.2-0.4-0.4-0.4-0.7c0-0.1,0-0.2,0.1-0.4c0-0.1,0-0.3,0-0.4c0-0.2,0-0.3-0.1-0.4c-0.1-0.1-0.3-0.2-0.5-0.2
	c-0.2,0-0.4,0.1-0.6,0.3c-0.1,0.2-0.2,0.5-0.2,0.9l0,2.1v1.4h1.6v1.1H282.7L282.7,77.3z"/>
<path class="st1" d="M296.7,72.2v6.5h0.5c0.7,0,1.3-0.1,1.7-0.3c0.4-0.2,0.8-0.6,1.1-1.1c0.3-0.5,0.5-1.2,0.6-2h0.4v8h-0.4
	c-0.1-1.5-0.6-2.5-1.2-3c-0.7-0.5-1.4-0.7-2.2-0.7h-0.5v4.9c0,0.8,0,1.3,0.1,1.5c0.1,0.2,0.3,0.4,0.5,0.5c0.3,0.1,0.6,0.2,1.1,0.2
	h0.5v0.4h-8.3v-0.4h0.5c0.5,0,0.8-0.1,1.1-0.2c0.2-0.1,0.4-0.3,0.5-0.6c0.1-0.2,0.1-0.7,0.1-1.5V74c0-0.8,0-1.3-0.1-1.5
	c-0.1-0.2-0.3-0.4-0.5-0.5c-0.3-0.2-0.6-0.2-1.1-0.2h-0.5v-0.4H304v4.6h-0.5c-0.1-1.1-0.4-1.9-0.8-2.4c-0.4-0.5-1.1-0.9-1.9-1.1
	c-0.5-0.1-1.3-0.2-2.6-0.2H296.7L296.7,72.2z"/>
<path class="st0" d="M309.3,75.9c1,0,1.8,0.2,2.7,0.7c0.8,0.5,1.4,1.2,1.9,2.1c0.4,0.9,0.6,1.9,0.6,3c0,1.6-0.4,2.9-1.2,3.9
	c-1,1.3-2.3,1.9-4,1.9c-1.6,0-2.9-0.6-3.8-1.7c-0.9-1.2-1.3-2.5-1.3-4c0-1.6,0.5-2.9,1.4-4.1C306.5,76.4,307.7,75.9,309.3,75.9
	L309.3,75.9z M309.3,76.7c-0.4,0-0.7,0.2-1,0.5c-0.3,0.3-0.5,0.9-0.6,1.8c-0.1,0.9-0.1,2.1-0.1,3.7c0,0.8,0.1,1.6,0.2,2.3
	c0.1,0.6,0.3,1,0.6,1.3c0.3,0.3,0.6,0.4,1,0.4c0.4,0,0.6-0.1,0.9-0.3c0.3-0.3,0.5-0.6,0.6-1.1c0.2-0.7,0.2-2.2,0.2-4.5
	c0-1.3-0.1-2.2-0.2-2.7c-0.1-0.5-0.4-0.9-0.7-1.1C309.9,76.8,309.7,76.7,309.3,76.7L309.3,76.7z"/>
<path class="st1" d="M319.7,76.2v2.5c0.7-1.1,1.4-1.9,1.9-2.2c0.5-0.4,1.1-0.6,1.6-0.6c0.4,0,0.8,0.1,1,0.4c0.3,0.3,0.4,0.6,0.4,1.1
	c0,0.5-0.1,0.9-0.4,1.2c-0.3,0.3-0.6,0.4-0.9,0.4c-0.4,0-0.8-0.1-1.1-0.4c-0.3-0.3-0.5-0.4-0.5-0.4c-0.1,0-0.2-0.1-0.3-0.1
	c-0.2,0-0.4,0.1-0.6,0.3c-0.3,0.3-0.6,0.6-0.7,1.1c-0.3,0.8-0.4,1.6-0.4,2.5v2.5l0,0.7c0,0.4,0,0.7,0.1,0.9c0.1,0.2,0.2,0.4,0.4,0.5
	c0.2,0.1,0.5,0.2,0.9,0.2v0.4h-5.9v-0.4c0.5,0,0.8-0.2,1-0.4c0.2-0.2,0.3-0.8,0.3-1.8v-6.1c0-0.6,0-1-0.1-1.2
	c-0.1-0.2-0.2-0.4-0.3-0.5c-0.1-0.1-0.4-0.2-0.8-0.2v-0.4H319.7L319.7,76.2z"/>
<path class="st0" d="M333.9,81.3h-6c0.1,1.5,0.5,2.6,1.2,3.4c0.5,0.6,1.2,1,1.9,1c0.5,0,0.9-0.1,1.3-0.4c0.4-0.3,0.8-0.7,1.2-1.4
	l0.4,0.3c-0.6,1.2-1.2,2.1-2,2.6c-0.7,0.5-1.6,0.7-2.5,0.8c-1.6,0-2.9-0.6-3.7-1.9c-0.7-1-1-2.3-1-3.8c0-1.8,0.5-3.3,1.5-4.4
	c1-1.1,2.2-1.6,3.5-1.6c1.1,0,2.1,0.5,2.9,1.4C333.4,78.1,333.8,79.5,333.9,81.3L333.9,81.3z M331,80.5c0-1.3-0.1-2.1-0.2-2.6
	c-0.1-0.5-0.3-0.8-0.6-1.1c-0.2-0.1-0.4-0.2-0.7-0.2c-0.4,0-0.7,0.2-1,0.6c-0.5,0.7-0.7,1.6-0.7,2.9v0.4H331L331,80.5z"/>
<path class="st0" d="M337.4,70.9c0.5,0,0.9,0.2,1.3,0.5c0.4,0.4,0.5,0.8,0.5,1.3s-0.2,0.9-0.5,1.3c-0.4,0.4-0.8,0.5-1.3,0.5
	s-0.9-0.2-1.3-0.5c-0.4-0.4-0.5-0.8-0.5-1.3s0.2-0.9,0.5-1.3C336.5,71.1,336.9,70.9,337.4,70.9L337.4,70.9z M339.1,76.2v8.7
	c0,0.8,0.1,1.3,0.3,1.5c0.2,0.2,0.5,0.3,1.1,0.4v0.4h-5.9v-0.4c0.5,0,0.8-0.2,1.1-0.4c0.2-0.2,0.2-0.7,0.2-1.4v-6.4
	c0-0.8-0.1-1.3-0.3-1.5c-0.2-0.2-0.5-0.3-1-0.4v-0.4H339.1L339.1,76.2z"/>
<path class="st0" d="M347.8,76.3h3.7v1.3h-2.1c0.4,0.4,0.6,0.7,0.8,1c0.2,0.4,0.3,0.9,0.3,1.3c0,0.8-0.2,1.5-0.7,2
	c-0.4,0.6-1,1-1.8,1.3c-0.7,0.3-1.4,0.5-2,0.5c0,0-0.5,0-1.4-0.1c-0.4,0-0.6,0.1-0.9,0.4c-0.2,0.2-0.4,0.5-0.4,0.8
	c0,0.3,0.1,0.5,0.3,0.7c0.2,0.2,0.6,0.3,1.1,0.3l2,0c1.6,0,2.8,0.2,3.4,0.5c0.9,0.5,1.3,1.3,1.3,2.3c0,0.7-0.2,1.3-0.6,1.8
	c-0.4,0.5-0.9,0.9-1.6,1.2c-1,0.4-2.2,0.6-3.5,0.6c-1,0-1.9-0.1-2.7-0.3c-0.8-0.2-1.4-0.5-1.7-0.8c-0.4-0.3-0.5-0.7-0.5-1.1
	c0-0.4,0.1-0.7,0.4-1c0.3-0.3,0.8-0.5,1.5-0.7c-1-0.5-1.5-1.2-1.5-2.1c0-0.5,0.2-1.1,0.6-1.6c0.4-0.5,1.1-0.9,2-1.3
	c-1-0.4-1.8-0.9-2.3-1.5c-0.5-0.6-0.7-1.3-0.7-2.2c0-1.1,0.4-2,1.3-2.8c0.9-0.8,2-1.2,3.4-1.2C346.2,75.9,347,76,347.8,76.3
	L347.8,76.3z M345.7,76.6c-0.5,0-0.8,0.2-1.1,0.7c-0.3,0.5-0.5,1.4-0.5,2.8c0,1.2,0.2,2,0.5,2.4c0.3,0.4,0.7,0.6,1.1,0.6
	c0.5,0,0.9-0.2,1.2-0.6c0.3-0.4,0.5-1.3,0.5-2.5c0-1.4-0.2-2.4-0.5-2.9C346.5,76.8,346.2,76.6,345.7,76.6L345.7,76.6z M345,88.8
	c-0.8,0-1.3,0.1-1.6,0.2c-0.4,0.2-0.7,0.6-0.7,1c0,0.4,0.2,0.8,0.7,1.1c0.5,0.3,1.3,0.5,2.6,0.5c1.1,0,1.9-0.1,2.6-0.4
	c0.6-0.3,0.9-0.7,0.9-1.2c0-0.2-0.1-0.4-0.2-0.5c-0.2-0.2-0.5-0.4-1-0.5C348,88.8,346.9,88.8,345,88.8L345,88.8z"/>
<path class="st1" d="M356.7,76.2v1.4c0.6-0.6,1.1-1.1,1.6-1.3c0.5-0.3,1.1-0.4,1.7-0.4c0.7,0,1.3,0.2,1.8,0.6
	c0.5,0.4,0.8,0.9,0.9,1.5c0.1,0.4,0.2,1.3,0.2,2.6v4.3c0,0.8,0.1,1.4,0.2,1.6c0.2,0.2,0.5,0.3,1,0.4v0.4h-5.5v-0.4
	c0.4-0.1,0.7-0.2,0.9-0.5c0.1-0.2,0.2-0.7,0.2-1.5v-4.9c0-0.9,0-1.5-0.1-1.7c-0.1-0.2-0.2-0.4-0.4-0.5c-0.2-0.1-0.3-0.2-0.6-0.2
	c-0.7,0-1.3,0.5-1.9,1.4v5.9c0,0.8,0.1,1.3,0.2,1.6c0.2,0.2,0.4,0.4,0.9,0.4v0.4h-5.5v-0.4c0.5,0,0.8-0.2,1-0.4
	c0.1-0.2,0.2-0.7,0.2-1.5v-6.2c0-0.8-0.1-1.3-0.2-1.5c-0.1-0.2-0.5-0.3-0.9-0.4v-0.4H356.7L356.7,76.2z"/>
<path class="st0" d="M379.1,82.6h-5.6l-0.7,1.5c-0.2,0.5-0.3,0.9-0.3,1.3c0,0.4,0.2,0.8,0.5,1c0.2,0.1,0.7,0.2,1.6,0.3v0.4h-5.3
	v-0.4c0.6-0.1,1-0.3,1.4-0.7c0.4-0.4,0.8-1.2,1.4-2.4l5.7-12.7h0.2l5.7,13c0.5,1.2,1,2,1.3,2.3c0.3,0.2,0.6,0.4,1.1,0.4v0.4h-7.7
	v-0.4h0.3c0.6,0,1.1-0.1,1.3-0.3c0.2-0.1,0.3-0.3,0.3-0.5c0-0.1,0-0.3-0.1-0.4c0-0.1-0.1-0.4-0.4-0.9L379.1,82.6L379.1,82.6z
	 M378.7,81.8l-2.4-5.5l-2.4,5.5H378.7L378.7,81.8z"/>
<path class="st1" d="M390.9,77.3v7.6c0,0.7,0.1,1.2,0.2,1.4c0.2,0.3,0.7,0.4,1.4,0.4v0.4H386v-0.4c0.5,0,0.8-0.1,1-0.2
	c0.2-0.1,0.4-0.3,0.4-0.4c0.1-0.2,0.1-0.6,0.1-1.2v-7.6H386v-1.1h1.6v-0.8l0-0.6c0-1.1,0.4-2.1,1.2-2.8c0.8-0.8,1.9-1.1,3.4-1.1
	c1,0,1.7,0.2,2.1,0.5c0.5,0.4,0.7,0.8,0.7,1.2c0,0.4-0.1,0.7-0.4,0.9c-0.3,0.3-0.7,0.4-1.1,0.4c-0.4,0-0.7-0.1-1-0.3
	c-0.2-0.2-0.4-0.4-0.4-0.7c0-0.1,0-0.2,0.1-0.4c0-0.1,0-0.3,0-0.4c0-0.2,0-0.3-0.1-0.4c-0.1-0.1-0.3-0.2-0.5-0.2
	c-0.2,0-0.4,0.1-0.6,0.3c-0.1,0.2-0.2,0.5-0.2,0.9l0,2.1v1.4h1.6v1.1H390.9L390.9,77.3z"/>
<path class="st1" d="M398.8,77.3v7.6c0,0.7,0.1,1.2,0.2,1.4c0.2,0.3,0.7,0.4,1.4,0.4v0.4H394v-0.4c0.5,0,0.8-0.1,1-0.2
	c0.2-0.1,0.4-0.3,0.4-0.4c0.1-0.2,0.1-0.6,0.1-1.2v-7.6H394v-1.1h1.6v-0.8l0-0.6c0-1.1,0.4-2.1,1.2-2.8c0.8-0.8,1.9-1.1,3.4-1.1
	c1,0,1.7,0.2,2.1,0.5c0.5,0.4,0.7,0.8,0.7,1.2c0,0.4-0.1,0.7-0.4,0.9c-0.3,0.3-0.7,0.4-1.1,0.4c-0.4,0-0.7-0.1-1-0.3
	c-0.2-0.2-0.4-0.4-0.4-0.7c0-0.1,0-0.2,0.1-0.4c0-0.1,0-0.3,0-0.4c0-0.2,0-0.3-0.1-0.4c-0.1-0.1-0.3-0.2-0.5-0.2
	c-0.2,0-0.4,0.1-0.6,0.3c-0.1,0.2-0.2,0.5-0.2,0.9l0,2.1v1.4h1.6v1.1H398.8L398.8,77.3z"/>
<path class="st0" d="M408.1,85.5c-1.3,1.2-2.5,1.8-3.6,1.8c-0.6,0-1.1-0.2-1.6-0.6c-0.4-0.4-0.6-0.9-0.6-1.5c0-0.8,0.4-1.6,1.1-2.2
	c0.7-0.7,2.3-1.6,4.7-2.7v-1.1c0-0.8,0-1.3-0.1-1.6c-0.1-0.2-0.3-0.4-0.5-0.6c-0.2-0.2-0.5-0.2-0.8-0.2c-0.5,0-0.9,0.1-1.3,0.3
	c-0.2,0.1-0.3,0.3-0.3,0.5c0,0.2,0.1,0.4,0.3,0.6c0.3,0.3,0.4,0.7,0.4,1c0,0.4-0.1,0.7-0.4,1c-0.3,0.3-0.7,0.4-1.1,0.4
	c-0.5,0-0.9-0.1-1.2-0.4c-0.3-0.3-0.5-0.6-0.5-1c0-0.6,0.2-1.1,0.7-1.6c0.4-0.5,1.1-0.9,1.9-1.2c0.8-0.3,1.6-0.4,2.5-0.4
	c1,0,1.9,0.2,2.5,0.7c0.6,0.4,1,0.9,1.2,1.4c0.1,0.3,0.2,1.1,0.2,2.3v4.3c0,0.5,0,0.8,0.1,0.9c0,0.1,0.1,0.2,0.2,0.3
	c0.1,0.1,0.2,0.1,0.3,0.1c0.2,0,0.4-0.1,0.6-0.4l0.4,0.3c-0.4,0.6-0.8,1-1.2,1.3c-0.4,0.3-0.9,0.4-1.4,0.4c-0.6,0-1.1-0.1-1.5-0.4
	C408.4,86.6,408.2,86.1,408.1,85.5L408.1,85.5z M408.1,84.7V81c-0.9,0.6-1.6,1.1-2.1,1.8c-0.3,0.4-0.5,0.8-0.5,1.3
	c0,0.4,0.1,0.7,0.4,0.9c0.2,0.2,0.5,0.3,0.8,0.3C407.1,85.3,407.6,85.1,408.1,84.7L408.1,84.7z"/>
<path class="st0" d="M416.4,70.9c0.5,0,0.9,0.2,1.3,0.5c0.4,0.4,0.5,0.8,0.5,1.3s-0.2,0.9-0.5,1.3c-0.4,0.4-0.8,0.5-1.3,0.5
	c-0.5,0-0.9-0.2-1.3-0.5c-0.4-0.4-0.5-0.8-0.5-1.3s0.2-0.9,0.5-1.3C415.5,71.1,415.9,70.9,416.4,70.9L416.4,70.9z M418.1,76.2v8.7
	c0,0.8,0.1,1.3,0.3,1.5c0.2,0.2,0.5,0.3,1.1,0.4v0.4h-5.9v-0.4c0.5,0,0.8-0.2,1.1-0.4c0.2-0.2,0.2-0.7,0.2-1.4v-6.4
	c0-0.8-0.1-1.3-0.3-1.5c-0.2-0.2-0.5-0.3-1-0.4v-0.4H418.1L418.1,76.2z"/>
<path class="st1" d="M424.8,76.2v2.5c0.7-1.1,1.4-1.9,1.9-2.2c0.5-0.4,1.1-0.6,1.6-0.6c0.4,0,0.8,0.1,1,0.4c0.3,0.3,0.4,0.6,0.4,1.1
	c0,0.5-0.1,0.9-0.4,1.2c-0.2,0.3-0.6,0.4-0.9,0.4c-0.4,0-0.8-0.1-1.1-0.4c-0.3-0.3-0.5-0.4-0.5-0.4c-0.1,0-0.2-0.1-0.3-0.1
	c-0.2,0-0.4,0.1-0.6,0.3c-0.3,0.3-0.6,0.6-0.7,1.1c-0.2,0.8-0.4,1.6-0.4,2.5v2.5l0,0.7c0,0.4,0,0.7,0.1,0.9c0.1,0.2,0.2,0.4,0.4,0.5
	c0.2,0.1,0.5,0.2,0.9,0.2v0.4h-5.9v-0.4c0.5,0,0.8-0.2,1-0.4c0.2-0.2,0.3-0.8,0.3-1.8v-6.1c0-0.6,0-1-0.1-1.2
	c-0.1-0.2-0.2-0.4-0.3-0.5c-0.1-0.1-0.4-0.2-0.8-0.2v-0.4H424.8L424.8,76.2z"/>
<path class="st1" d="M437.3,75.9l0.2,3.7h-0.4c-0.5-1.1-1-1.9-1.5-2.3c-0.5-0.4-1-0.6-1.5-0.6c-0.3,0-0.6,0.1-0.8,0.3
	c-0.2,0.2-0.3,0.5-0.3,0.7c0,0.2,0.1,0.4,0.2,0.6c0.2,0.3,0.9,0.9,2.1,1.7c1.1,0.8,1.9,1.4,2.3,2c0.4,0.5,0.5,1.1,0.6,1.8
	c0,0.6-0.2,1.2-0.5,1.8c-0.3,0.6-0.7,1-1.3,1.3c-0.6,0.3-1.2,0.5-1.8,0.5c-0.5,0-1.2-0.2-2.1-0.5c-0.2-0.1-0.4-0.1-0.5-0.1
	c-0.3,0-0.5,0.2-0.6,0.6h-0.4l-0.2-3.9h0.4c0.4,1,0.8,1.8,1.4,2.3c0.6,0.5,1.2,0.8,1.7,0.8c0.4,0,0.7-0.1,0.9-0.3
	c0.2-0.2,0.4-0.5,0.4-0.8c0-0.4-0.1-0.7-0.4-1c-0.2-0.3-0.8-0.7-1.6-1.2c-1.2-0.8-2-1.5-2.3-1.9c-0.5-0.6-0.8-1.3-0.8-2.1
	c0-0.8,0.3-1.6,0.9-2.3c0.6-0.7,1.4-1,2.5-1c0.6,0,1.2,0.1,1.7,0.4c0.2,0.1,0.4,0.2,0.5,0.2c0.1,0,0.3,0,0.3-0.1
	c0.1-0.1,0.2-0.2,0.4-0.5H437.3L437.3,75.9z"/>
<path class="st0" d="M450.1,85.5c-1.3,1.2-2.5,1.8-3.6,1.8c-0.6,0-1.1-0.2-1.6-0.6c-0.4-0.4-0.6-0.9-0.6-1.5c0-0.8,0.4-1.6,1.1-2.2
	c0.7-0.7,2.3-1.6,4.7-2.7v-1.1c0-0.8,0-1.3-0.1-1.6c-0.1-0.2-0.3-0.4-0.5-0.6c-0.2-0.2-0.5-0.2-0.8-0.2c-0.5,0-0.9,0.1-1.3,0.3
	c-0.2,0.1-0.3,0.3-0.3,0.5c0,0.2,0.1,0.4,0.3,0.6c0.3,0.3,0.4,0.7,0.4,1c0,0.4-0.1,0.7-0.4,1c-0.3,0.3-0.7,0.4-1.1,0.4
	c-0.5,0-0.9-0.1-1.2-0.4c-0.3-0.3-0.5-0.6-0.5-1c0-0.6,0.2-1.1,0.7-1.6c0.4-0.5,1.1-0.9,1.9-1.2c0.8-0.3,1.6-0.4,2.5-0.4
	c1,0,1.9,0.2,2.5,0.7c0.6,0.4,1,0.9,1.2,1.4c0.1,0.3,0.2,1.1,0.2,2.3v4.3c0,0.5,0,0.8,0.1,0.9c0,0.1,0.1,0.2,0.2,0.3
	c0.1,0.1,0.2,0.1,0.3,0.1c0.2,0,0.4-0.1,0.6-0.4l0.4,0.3c-0.4,0.6-0.8,1-1.2,1.3c-0.4,0.3-0.9,0.4-1.4,0.4c-0.6,0-1.1-0.1-1.5-0.4
	C450.4,86.6,450.2,86.1,450.1,85.5L450.1,85.5z M450.1,84.7V81c-0.9,0.6-1.6,1.1-2.1,1.8c-0.3,0.4-0.5,0.8-0.5,1.3
	c0,0.4,0.1,0.7,0.4,0.9c0.2,0.2,0.5,0.3,0.8,0.3C449.1,85.3,449.6,85.1,450.1,84.7L450.1,84.7z"/>
<path class="st1" d="M459.8,76.2v1.4c0.6-0.6,1.1-1.1,1.6-1.3c0.5-0.3,1.1-0.4,1.7-0.4c0.7,0,1.3,0.2,1.8,0.6
	c0.5,0.4,0.8,0.9,0.9,1.5c0.1,0.4,0.2,1.3,0.2,2.6v4.3c0,0.8,0.1,1.4,0.2,1.6c0.2,0.2,0.5,0.3,1,0.4v0.4h-5.5v-0.4
	c0.4-0.1,0.7-0.2,0.9-0.5c0.1-0.2,0.2-0.7,0.2-1.5v-4.9c0-0.9,0-1.5-0.1-1.7c-0.1-0.2-0.2-0.4-0.4-0.5c-0.2-0.1-0.3-0.2-0.6-0.2
	c-0.7,0-1.3,0.5-1.9,1.4v5.9c0,0.8,0.1,1.3,0.2,1.6c0.2,0.2,0.4,0.4,0.9,0.4v0.4h-5.5v-0.4c0.5,0,0.8-0.2,1-0.4
	c0.1-0.2,0.2-0.7,0.2-1.5v-6.2c0-0.8-0.1-1.3-0.2-1.5c-0.1-0.2-0.5-0.3-0.9-0.4v-0.4H459.8L459.8,76.2z"/>
<path class="st0" d="M478.1,71.3v12.6c0,0.9,0,1.4,0.1,1.5c0.1,0.3,0.2,0.4,0.4,0.6c0.2,0.1,0.5,0.2,0.9,0.2v0.4l-4.6,0.9v-1.7
	c-0.6,0.7-1.1,1.1-1.5,1.4c-0.4,0.2-0.9,0.4-1.5,0.4c-1.4,0-2.5-0.6-3.3-1.9c-0.7-1-1-2.3-1-3.7c0-1.2,0.2-2.2,0.6-3.2
	c0.4-0.9,1-1.6,1.7-2.1c0.7-0.5,1.5-0.7,2.3-0.7c0.5,0,1,0.1,1.4,0.3c0.4,0.2,0.8,0.6,1.3,1.1v-3.3c0-0.8,0-1.3-0.1-1.5
	c-0.1-0.2-0.2-0.4-0.4-0.5c-0.2-0.1-0.5-0.2-1.1-0.2v-0.5H478.1L478.1,71.3z M474.9,78.7c-0.6-1.1-1.3-1.7-2.1-1.7
	c-0.3,0-0.5,0.1-0.7,0.2c-0.3,0.2-0.5,0.7-0.7,1.3c-0.2,0.6-0.3,1.5-0.3,2.8c0,1.4,0.1,2.4,0.3,3.1c0.2,0.7,0.5,1.1,0.8,1.4
	c0.2,0.1,0.4,0.2,0.7,0.2c0.7,0,1.3-0.5,1.9-1.6V78.7L474.9,78.7z"/>
<path class="st1" d="M499.5,71.3v4.3h-0.4c-0.2-1-0.5-1.7-0.8-2.1c-0.3-0.4-0.7-0.8-1.3-1c-0.3-0.1-0.8-0.2-1.6-0.2h-1.2v12.3
	c0,0.8,0,1.3,0.1,1.5c0.1,0.2,0.3,0.4,0.5,0.5c0.3,0.1,0.6,0.2,1.1,0.2h0.5v0.4h-8.3v-0.4h0.5c0.5,0,0.8-0.1,1.1-0.2
	c0.2-0.1,0.4-0.3,0.5-0.6c0.1-0.2,0.1-0.7,0.1-1.5V72.2h-1.1c-1.1,0-1.8,0.2-2.3,0.7c-0.7,0.6-1.1,1.5-1.3,2.7h-0.4v-4.3H499.5
	L499.5,71.3z"/>
<path class="st1" d="M504,76.2v2.5c0.7-1.1,1.4-1.9,1.9-2.2c0.5-0.4,1.1-0.6,1.6-0.6c0.4,0,0.8,0.1,1,0.4c0.3,0.3,0.4,0.6,0.4,1.1
	c0,0.5-0.1,0.9-0.4,1.2c-0.2,0.3-0.6,0.4-0.9,0.4c-0.4,0-0.8-0.1-1.1-0.4c-0.3-0.3-0.5-0.4-0.5-0.4c-0.1,0-0.2-0.1-0.3-0.1
	c-0.2,0-0.4,0.1-0.6,0.3c-0.3,0.3-0.6,0.6-0.7,1.1c-0.2,0.8-0.4,1.6-0.4,2.5v2.5l0,0.7c0,0.4,0,0.7,0.1,0.9c0.1,0.2,0.2,0.4,0.4,0.5
	c0.2,0.1,0.5,0.2,0.9,0.2v0.4h-5.9v-0.4c0.5,0,0.8-0.2,1-0.4c0.2-0.2,0.3-0.8,0.3-1.8v-6.1c0-0.6,0-1-0.1-1.2
	c-0.1-0.2-0.2-0.4-0.3-0.5c-0.1-0.1-0.4-0.2-0.8-0.2v-0.4H504L504,76.2z"/>
<path class="st0" d="M515,85.5c-1.3,1.2-2.5,1.8-3.6,1.8c-0.6,0-1.1-0.2-1.6-0.6c-0.4-0.4-0.6-0.9-0.6-1.5c0-0.8,0.4-1.6,1.1-2.2
	c0.7-0.7,2.3-1.6,4.7-2.7v-1.1c0-0.8,0-1.3-0.1-1.6c-0.1-0.2-0.3-0.4-0.5-0.6c-0.2-0.2-0.5-0.2-0.8-0.2c-0.5,0-0.9,0.1-1.3,0.3
	c-0.2,0.1-0.3,0.3-0.3,0.5c0,0.2,0.1,0.4,0.3,0.6c0.3,0.3,0.4,0.7,0.4,1c0,0.4-0.1,0.7-0.4,1c-0.3,0.3-0.7,0.4-1.1,0.4
	c-0.5,0-0.9-0.1-1.2-0.4c-0.3-0.3-0.5-0.6-0.5-1c0-0.6,0.2-1.1,0.7-1.6c0.4-0.5,1.1-0.9,1.9-1.2c0.8-0.3,1.6-0.4,2.5-0.4
	c1,0,1.9,0.2,2.5,0.7c0.6,0.4,1,0.9,1.2,1.4c0.1,0.3,0.2,1.1,0.2,2.3v4.3c0,0.5,0,0.8,0.1,0.9c0,0.1,0.1,0.2,0.2,0.3
	c0.1,0.1,0.2,0.1,0.3,0.1c0.2,0,0.4-0.1,0.6-0.4l0.4,0.3c-0.4,0.6-0.8,1-1.2,1.3c-0.4,0.3-0.9,0.4-1.4,0.4c-0.6,0-1.1-0.1-1.5-0.4
	C515.3,86.6,515.1,86.1,515,85.5L515,85.5z M515,84.7V81c-0.9,0.6-1.6,1.1-2.1,1.8c-0.3,0.4-0.5,0.8-0.5,1.3c0,0.4,0.1,0.7,0.4,0.9
	c0.2,0.2,0.5,0.3,0.8,0.3C514,85.3,514.5,85.1,515,84.7L515,84.7z"/>
<path class="st0" d="M530.6,71.3v12.6c0,0.9,0,1.4,0.1,1.5c0.1,0.3,0.2,0.4,0.4,0.6c0.2,0.1,0.5,0.2,0.9,0.2v0.4l-4.6,0.9v-1.7
	c-0.6,0.7-1.1,1.1-1.5,1.4c-0.4,0.2-0.9,0.4-1.5,0.4c-1.4,0-2.5-0.6-3.3-1.9c-0.7-1-1-2.3-1-3.7c0-1.2,0.2-2.2,0.6-3.2
	c0.4-0.9,1-1.6,1.7-2.1c0.7-0.5,1.5-0.7,2.3-0.7c0.5,0,1,0.1,1.4,0.3c0.4,0.2,0.8,0.6,1.3,1.1v-3.3c0-0.8,0-1.3-0.1-1.5
	c-0.1-0.2-0.2-0.4-0.4-0.5c-0.2-0.1-0.5-0.2-1.1-0.2v-0.5H530.6L530.6,71.3z M527.3,78.7c-0.6-1.1-1.3-1.7-2.1-1.7
	c-0.3,0-0.5,0.1-0.7,0.2c-0.3,0.2-0.5,0.7-0.7,1.3c-0.2,0.6-0.3,1.5-0.3,2.8c0,1.4,0.1,2.4,0.3,3.1c0.2,0.7,0.5,1.1,0.8,1.4
	c0.2,0.1,0.4,0.2,0.7,0.2c0.7,0,1.3-0.5,1.9-1.6V78.7L527.3,78.7z"/>
<path class="st0" d="M541.6,81.3h-6c0.1,1.5,0.5,2.6,1.2,3.4c0.5,0.6,1.2,1,1.9,1c0.5,0,0.9-0.1,1.3-0.4c0.4-0.3,0.8-0.7,1.2-1.4
	l0.4,0.3c-0.6,1.2-1.2,2.1-2,2.6c-0.7,0.5-1.6,0.7-2.5,0.8c-1.6,0-2.9-0.6-3.7-1.9c-0.7-1-1-2.3-1-3.8c0-1.8,0.5-3.3,1.5-4.4
	c1-1.1,2.2-1.6,3.5-1.6c1.1,0,2.1,0.5,2.9,1.4C541.1,78.1,541.6,79.5,541.6,81.3L541.6,81.3z M538.8,80.5c0-1.3-0.1-2.1-0.2-2.6
	c-0.1-0.5-0.3-0.8-0.6-1.1c-0.2-0.1-0.4-0.2-0.7-0.2c-0.4,0-0.7,0.2-1,0.6c-0.5,0.7-0.7,1.6-0.7,2.9v0.4H538.8L538.8,80.5z"/>
</svg>
