<?xml version="1.0" encoding="utf-8"?>
<!-- Generator: Adobe Illustrator 25.0.0, SVG Export Plug-In . SVG Version: 6.00 Build 0)  -->
<svg version="1.1" id="Layer_1" xmlns="http://www.w3.org/2000/svg" xmlns:xlink="http://www.w3.org/1999/xlink" x="0px" y="0px"
	 viewBox="0 0 80 80" style="enable-background:new 0 0 80 80;" xml:space="preserve">
<style type="text/css">
	.st0{fill:#8E8D8A;}
</style>
<path class="st0" d="M57.44,20.75c-4.39-3.97-10.13-6.48-16.44-6.72V14h-2v0.03c-6.31,0.24-12.05,2.75-16.44,6.72
	c0.64,0.29,1.16,0.8,1.43,1.45c2.67-2.4,5.87-4.23,9.42-5.24c-1.34,1.68-3.06,4.26-4.5,7.76c-1.93-0.45-3.52-0.96-4.7-1.38
	c-0.01,0.72-0.3,1.37-0.76,1.86c1.19,0.43,2.79,0.94,4.74,1.41c-1.04,3-1.84,6.59-2.08,10.76c0.28-0.1,0.58-0.16,0.9-0.16
	c0.39,0,0.76,0.08,1.1,0.23c0.25-4.05,1.06-7.5,2.1-10.39c2.1,0.41,4.52,0.73,7.18,0.86c-0.1-0.29-0.17-0.59-0.17-0.91
	c0-0.39,0.08-0.75,0.22-1.09c-2.38-0.12-4.57-0.4-6.49-0.76c2.26-5.28,5.1-8.24,5.82-8.92c0.74-0.1,1.48-0.17,2.24-0.2v8.38
	c0.31-0.12,0.65-0.19,1-0.19s0.69,0.07,1,0.19v-8.38c0.77,0.03,1.52,0.1,2.27,0.2c0.68,0.57,3.67,3.32,5.89,8.89
	c-1.95,0.37-4.17,0.66-6.6,0.79c0.14,0.33,0.22,0.7,0.22,1.09c0,0.32-0.07,0.62-0.16,0.91c2.68-0.14,5.12-0.46,7.23-0.87
	c0.65,2.01,1.2,4.31,1.51,6.96c0.06,0.51,0.49,0.88,0.99,0.88c0.04,0,0.08,0,0.12-0.01c0.55-0.06,0.94-0.56,0.88-1.11
	c-0.32-2.71-0.86-5.08-1.52-7.16c1.94-0.47,3.53-0.97,4.72-1.41c-0.46-0.49-0.75-1.14-0.76-1.86c-1.16,0.41-2.72,0.91-4.62,1.36
	c-1.35-3.52-3-6.03-4.35-7.68c3.46,1.03,6.59,2.8,9.21,5.15C56.3,21.54,56.81,21.03,57.44,20.75z"/>
<path class="st0" d="M40,43.79c-2.09,0-3.79-1.7-3.79-3.79c0-2.09,1.7-3.79,3.79-3.79c2.09,0,3.79,1.7,3.79,3.79
	C43.79,42.09,42.09,43.79,40,43.79z M40,38.21c-0.98,0-1.79,0.8-1.79,1.79c0,0.98,0.8,1.79,1.79,1.79c0.98,0,1.79-0.8,1.79-1.79
	C41.79,39.02,40.98,38.21,40,38.21z"/>
<path class="st0" d="M27,43.79c-2.09,0-3.79-1.7-3.79-3.79c0-2.09,1.7-3.79,3.79-3.79s3.79,1.7,3.79,3.79
	C30.79,42.09,29.09,43.79,27,43.79z M27,38.21c-0.98,0-1.79,0.8-1.79,1.79c0,0.98,0.8,1.79,1.79,1.79s1.79-0.8,1.79-1.79
	C28.79,39.02,27.98,38.21,27,38.21z"/>
<path class="st0" d="M21.43,27.07c-2.09,0-3.79-1.7-3.79-3.79s1.7-3.79,3.79-3.79s3.79,1.7,3.79,3.79S23.52,27.07,21.43,27.07z
	 M21.43,21.5c-0.98,0-1.79,0.8-1.79,1.79s0.8,1.79,1.79,1.79s1.79-0.8,1.79-1.79S22.41,21.5,21.43,21.5z"/>
<path class="st0" d="M40,30.79c-2.09,0-3.79-1.7-3.79-3.79s1.7-3.79,3.79-3.79c2.09,0,3.79,1.7,3.79,3.79S42.09,30.79,40,30.79z
	 M40,25.21c-0.98,0-1.79,0.8-1.79,1.79s0.8,1.79,1.79,1.79c0.98,0,1.79-0.8,1.79-1.79S40.98,25.21,40,25.21z"/>
<path class="st0" d="M58.57,27.07c-2.09,0-3.79-1.7-3.79-3.79s1.7-3.79,3.79-3.79c2.09,0,3.79,1.7,3.79,3.79
	S60.66,27.07,58.57,27.07z M58.57,21.5c-0.98,0-1.79,0.8-1.79,1.79s0.8,1.79,1.79,1.79c0.99,0,1.79-0.8,1.79-1.79
	S59.56,21.5,58.57,21.5z"/>
<path class="st0" d="M29.51,57.81c-2.09,0-3.79-1.7-3.79-3.79s1.7-3.79,3.79-3.79c2.09,0,3.79,1.7,3.79,3.79
	S31.59,57.81,29.51,57.81z M29.51,52.24c-0.98,0-1.79,0.8-1.79,1.79s0.8,1.79,1.79,1.79c0.98,0,1.79-0.8,1.79-1.79
	S30.49,52.24,29.51,52.24z"/>
<path class="st0" d="M40,37.21c0.35,0,0.69,0.07,1,0.19v-7.81c-0.31,0.12-0.65,0.19-1,0.19s-0.69-0.07-1-0.19v7.81
	C39.31,37.29,39.65,37.21,40,37.21z"/>
<path class="st0" d="M37.41,41c-0.12-0.31-0.19-0.65-0.19-1s0.07-0.69,0.19-1h-7.81c0.12,0.31,0.19,0.65,0.19,1s-0.07,0.69-0.19,1
	H37.41z"/>
<path class="st0" d="M29.51,51.24c0.09,0,0.18,0.02,0.28,0.03c-0.82-2.56-1.45-5.46-1.67-8.71c-0.34,0.15-0.72,0.23-1.11,0.23
	c-0.31,0-0.61-0.06-0.89-0.16c0.22,3.44,0.87,6.49,1.71,9.19C28.29,51.46,28.87,51.24,29.51,51.24z"/>
<path class="st0" d="M43.6,52.13c-0.86-0.06-1.73-0.09-2.6-0.11v-9.42c-0.31,0.12-0.65,0.19-1,0.19s-0.69-0.07-1-0.19v9.43
	c-2.59,0.05-4.96,0.29-7.08,0.63c0.23,0.41,0.38,0.87,0.38,1.37c0,0.21-0.03,0.42-0.07,0.61c2.03-0.33,4.3-0.56,6.78-0.61v9.95
	c-0.75-0.03-1.49-0.1-2.22-0.2c-0.67-0.7-3.07-3.46-5.2-7.92c-0.46,0.52-1.1,0.86-1.83,0.93c1.3,2.74,2.72,4.87,3.83,6.32
	c-3.98-1.11-7.54-3.23-10.41-6.05c0.92-0.37,2.33-0.86,4.12-1.35c-0.35-0.47-0.57-1.04-0.57-1.67c0-0.09,0.02-0.17,0.03-0.26
	c-2.39,0.65-4.12,1.33-5.03,1.72c-3.35-3.94-5.47-8.97-5.69-14.48h8.38c-0.12-0.31-0.19-0.65-0.19-1s0.07-0.69,0.19-1h-8.38
	c0.2-4.88,1.88-9.37,4.58-13.07c-0.68-0.21-1.24-0.67-1.59-1.27C15.87,28.97,14,34.27,14,40c0,6.67,2.53,12.76,6.68,17.37
	c0.01,0.02,0.03,0.03,0.04,0.05c4.55,5.03,11.04,8.28,18.28,8.56V66h2V54.02c0.82,0.02,1.64,0.05,2.46,0.1
	c0.57,0.05,1.03-0.38,1.07-0.93C44.56,52.64,44.15,52.17,43.6,52.13z"/>
<path class="st0" d="M47,39h-4.41c0.12,0.31,0.19,0.65,0.19,1s-0.07,0.69-0.19,1H47c0.55,0,1-0.45,1-1S47.55,39,47,39z"/>
<path class="st0" d="M60.98,24.66c-0.34,0.6-0.9,1.05-1.57,1.26C62.29,29.89,64,34.74,64,40c0,0.6-0.02,1.21-0.07,1.8
	c-0.04,0.55,0.37,1.03,0.92,1.07c0.56,0.04,1.03-0.37,1.07-0.92C65.98,41.31,66,40.65,66,40C66,34.27,64.13,28.97,60.98,24.66z"/>
<path class="st0" d="M58,50c3.31,0,6,2.69,6,6v7H47v-7c0-3.31,2.69-6,6-6H58 M58,48h-5c-4.42,0-8,3.58-8,8v7c0,1.1,0.9,2,2,2h17
	c1.1,0,2-0.9,2-2v-7C66,51.58,62.42,48,58,48L58,48z"/>
<path class="st0" d="M55,37c1.93,0,3.5,1.57,3.5,3.5S56.93,44,55,44s-3.5-1.57-3.5-3.5S53.07,37,55,37 M55,35
	c-3.04,0-5.5,2.46-5.5,5.5S51.96,46,55,46s5.5-2.46,5.5-5.5S58.04,35,55,35L55,35z"/>
<g>
	<path class="st0" d="M38,3c20.4,0,37,16.6,37,37S58.4,77,38,77S1,60.4,1,40S17.6,3,38,3 M38,2C17.01,2,0,19.01,0,40s17.01,38,38,38
		s38-17.01,38-38S58.99,2,38,2L38,2z"/>
</g>
<g>
	<path class="st0" d="M42,3c20.4,0,37,16.6,37,37S62.4,77,42,77S5,60.4,5,40S21.6,3,42,3 M42,2C21.01,2,4,19.01,4,40s17.01,38,38,38
		s38-17.01,38-38S62.99,2,42,2L42,2z"/>
</g>
</svg>
