<?xml version="1.0" encoding="utf-8"?>
<!-- Generator: Adobe Illustrator 25.0.0, SVG Export Plug-In . SVG Version: 6.00 Build 0)  -->
<svg version="1.1" id="Layer_1" xmlns="http://www.w3.org/2000/svg" xmlns:xlink="http://www.w3.org/1999/xlink" x="0px" y="0px"
	 viewBox="0 0 80 80" style="enable-background:new 0 0 80 80;" xml:space="preserve">
<style type="text/css">
	.st0{fill:#8E8D8A;}
</style>
<path class="st0" d="M65.75,41.59l-5.65-6.45c-0.14-0.16-0.33-0.27-0.54-0.32L48.27,32.4c-0.54-0.12-1.07,0.23-1.19,0.77
	c-0.12,0.54,0.23,1.07,0.77,1.19l7.08,1.52L40,39.6l-14.93-3.73l7.08-1.52c0.54-0.12,0.88-0.65,0.77-1.19
	c-0.12-0.54-0.64-0.89-1.19-0.77l-11.29,2.42c-0.21,0.05-0.4,0.16-0.54,0.32l-5.65,6.45c-0.22,0.25-0.3,0.6-0.21,0.92
	c0.09,0.32,0.33,0.58,0.65,0.69l4.96,1.65v12.94c0,0.42,0.26,0.79,0.65,0.94l19.35,7.21l0.06-0.15c0.09,0.03,0.19,0.04,0.29,0.04
	c0.12,0,0.24-0.02,0.35-0.06l19.35-7.21c0.39-0.15,0.65-0.52,0.65-0.94V44.85l4.96-1.65c0.32-0.11,0.56-0.36,0.65-0.69
	S65.97,41.84,65.75,41.59z M58.35,56.92L41,63.39V51.92h-2v11.64l-17.35-6.47V45.51l2.19,0.73c0.1,0.04,0.21,0.05,0.32,0.05
	c0.42,0,0.81-0.26,0.95-0.68c0.17-0.52-0.11-1.09-0.63-1.26l-7.73-2.58L21,36.91l17.35,4.34l-4.38,6.26l-4.05-1.35l-0.63,1.9
	l4.76,1.59c0.1,0.04,0.21,0.05,0.32,0.05c0.32,0,0.63-0.15,0.82-0.43L40,42.38l4.83,6.89c0.19,0.27,0.5,0.43,0.82,0.43
	c0.11,0,0.21-0.02,0.32-0.05l12.39-4.13V56.92z M46.04,47.51l-4.38-6.26L59,36.91l4.25,4.86L46.04,47.51z"/>
<path class="st0" d="M42.66,16v7.89c0,1.1,0.9,2,2,2h0.36L40,32.65l-5.02-6.76h0.36c1.1,0,2-0.9,2-2V16H42.66 M44.66,14h-9.32v9.89
	H31L40,36l9-12.11h-4.34V14L44.66,14z M49,23.89L49,23.89L49,23.89z"/>
<path class="st0" d="M-205-304h-34.1l-4.9-35.1c-0.1-0.5-0.5-0.9-1-0.9h-4c-0.5,0-1,0.5-1,1s0.5,1,1,1h3.1l4.9,35.1
	c0.1,0.5,0.5,0.9,1,0.9h35c0.5,0,1-0.5,1-1S-204.5-304-205-304z"/>
<path class="st0" d="M-209-300c-2.2,0-4,1.8-4,4s1.8,4,4,4s4-1.8,4-4S-206.8-300-209-300z M-209-293.6c-1.3,0-2.4-1.1-2.4-2.4
	s1.1-2.4,2.4-2.4s2.4,1.1,2.4,2.4S-207.7-293.6-209-293.6z"/>
<path class="st0" d="M-236-300c-2.2,0-4,1.8-4,4s1.8,4,4,4s4-1.8,4-4S-233.8-300-236-300z M-236-293.6c-1.3,0-2.4-1.1-2.4-2.4
	s1.1-2.4,2.4-2.4s2.4,1.1,2.4,2.4S-234.7-293.6-236-293.6z"/>
<path class="st0" d="M-203-331h-36c-0.3,0-0.6,0.1-0.8,0.3c-0.2,0.2-0.2,0.5-0.2,0.8l3,23c0.1,0.5,0.5,0.9,1,0.9h30.5
	c0.5,0,0.9-0.4,1-0.9l2.5-23c0-0.3-0.1-0.6-0.2-0.8C-202.3-330.9-202.7-331-203-331z M-237.9-329h6.9v0.1l0.9,9.9h-6.5L-237.9-329z
	 M-235.1-308l-1.2-9h6.4l0.8,9H-235.1z M-222-308h-5.1l-0.8-9h5.9V-308z M-222-319h-6.1l-0.9-10h7V-319z M-214-308h-6v-9h6.5
	L-214-308z M-213.5-319h-6.5v-10h7L-213.5-319z M-206.4-308h-5.6l0.4-9h6.1L-206.4-308z M-205.2-319h-6.2l0.4-10l0,0h6.9L-205.2-319
	z"/>
<g>
	<path class="st0" d="M-228-353c20.4,0,37,16.6,37,37s-16.6,37-37,37s-37-16.6-37-37S-248.4-353-228-353 M-228-354
		c-21,0-38,17-38,38s17,38,38,38s38-17,38-38S-207-354-228-354L-228-354z"/>
</g>
<g>
	<path class="st0" d="M-224-353c20.4,0,37,16.6,37,37s-16.6,37-37,37s-37-16.6-37-37S-244.4-353-224-353 M-224-354
		c-21,0-38,17-38,38s17,38,38,38s38-17,38-38S-203-354-224-354L-224-354z"/>
</g>
<g>
	<path class="st0" d="M38,3c20.4,0,37,16.6,37,37S58.4,77,38,77S1,60.4,1,40S17.6,3,38,3 M38,2C17.01,2,0,19.01,0,40s17.01,38,38,38
		s38-17.01,38-38S58.99,2,38,2L38,2z"/>
</g>
<g>
	<path class="st0" d="M42,3c20.4,0,37,16.6,37,37S62.4,77,42,77S5,60.4,5,40S21.6,3,42,3 M42,2C21.01,2,4,19.01,4,40s17.01,38,38,38
		s38-17.01,38-38S62.99,2,42,2L42,2z"/>
</g>
</svg>
