<?xml version="1.0" encoding="utf-8"?>
<!-- Generator: Adobe Illustrator 24.2.1, SVG Export Plug-In . SVG Version: 6.00 Build 0)  -->
<svg version="1.1" id="Layer_1" xmlns="http://www.w3.org/2000/svg" xmlns:xlink="http://www.w3.org/1999/xlink" x="0px" y="0px"
	 viewBox="0 0 96 96" style="enable-background:new 0 0 96 96;" xml:space="preserve">
<style type="text/css">
	.st0{fill:#8E8D8A;}
	.st1{fill-rule:evenodd;clip-rule:evenodd;fill:#8E8D8A;}
</style>
<g>
	<g>
		<path class="st0" d="M48,3.63c24.47,0,44.37,19.9,44.37,44.37c0,24.47-19.9,44.37-44.37,44.37S3.63,72.47,3.63,48
			C3.63,23.53,23.53,3.63,48,3.63 M48,1C22.04,1,1,22.04,1,48s21.04,47,47,47c25.96,0,47-21.04,47-47S73.96,1,48,1L48,1z"/>
	</g>
</g>
<path class="st1" d="M72.96,28.73h7.5c1.06,0,2.03,0.41,2.74,1.07c0.72,0.67,1.16,1.59,1.16,2.61c0,1.02-0.45,1.95-1.16,2.61
	c-0.71,0.66-1.68,1.07-2.74,1.07H78.4v33.48h3.85c0.72,0,1.38,0.3,1.86,0.77c0.48,0.48,0.77,1.13,0.77,1.86
	c0,0.72-0.3,1.38-0.77,1.86c-0.48,0.48-1.13,0.77-1.86,0.77H15.64c-0.72,0-1.38-0.3-1.86-0.77c-0.48-0.48-0.77-1.13-0.77-1.86
	c0-0.72,0.3-1.38,0.77-1.86c0.48-0.48,1.13-0.77,1.86-0.77h3.85V36.09h-2.06c-1.06,0-2.03-0.41-2.74-1.07
	c-0.72-0.67-1.16-1.59-1.16-2.61c0-1.02,0.45-1.95,1.16-2.61c0.71-0.66,1.67-1.07,2.74-1.07h7.5v-9.75c0-0.34,0.28-0.61,0.61-0.61
	h46.79c0.34,0,0.61,0.28,0.61,0.61V28.73L72.96,28.73z M20.72,36.09v33.48h13.96v-25.6v-0.61h0.61H62.6h0.61v0.61v25.6h13.96V36.09
	H20.72L20.72,36.09z M31.72,53.83h-1.25c-0.34,0-0.61,0.28-0.61,0.61s0.28,0.61,0.61,0.61h1.25c0.34,0,0.61-0.28,0.61-0.61
	S32.06,53.83,31.72,53.83L31.72,53.83z M28.56,53.83h-3.69c-0.34,0-0.61,0.28-0.61,0.61c0,0.34,0.28,0.61,0.61,0.61h3.69
	c0.34,0,0.61-0.28,0.61-0.61C29.17,54.11,28.9,53.83,28.56,53.83L28.56,53.83z M67.7,40h1.25c0.34,0,0.61-0.28,0.61-0.61
	c0-0.34-0.28-0.61-0.61-0.61H67.7c-0.34,0-0.61,0.28-0.61,0.61C67.08,39.73,67.36,40,67.7,40L67.7,40z M70.86,40.01h3.69
	c0.34,0,0.61-0.28,0.61-0.61c0-0.34-0.28-0.61-0.61-0.61h-3.69c-0.34,0-0.61,0.28-0.61,0.61C70.25,39.73,70.52,40.01,70.86,40.01
	L70.86,40.01z M35.91,44.59v24.98h12.42V44.59H35.91L35.91,44.59z M44.97,55.58v3.01c0,0.34,0.28,0.61,0.61,0.61
	c0.34,0,0.61-0.28,0.61-0.61v-3.01c0-0.34-0.28-0.61-0.61-0.61C45.25,54.96,44.97,55.24,44.97,55.58L44.97,55.58z M49.56,44.59
	v24.98h12.42V44.59H49.56L49.56,44.59z M52.33,55.58v3.01c0,0.34,0.28,0.61,0.61,0.61s0.61-0.28,0.61-0.61v-3.01
	c0-0.34-0.28-0.61-0.61-0.61S52.33,55.24,52.33,55.58L52.33,55.58z M20.11,34.86h57.68h2.67c0.74,0,1.42-0.28,1.9-0.74
	c0.32-0.3,0.56-0.68,0.68-1.1H69.58c-0.34,0-0.61-0.28-0.61-0.61c0-0.34,0.28-0.61,0.61-0.61h13.46c-0.12-0.42-0.36-0.8-0.68-1.1
	c-0.49-0.45-1.16-0.74-1.9-0.74h-8.11H25.55h-8.11c-0.74,0-1.42,0.28-1.9,0.74c-0.47,0.44-0.77,1.05-0.77,1.72
	c0,0.67,0.29,1.27,0.77,1.72c0.49,0.45,1.16,0.74,1.9,0.74H20.11L20.11,34.86z M65.94,31.8H16.29c-0.34,0-0.61,0.28-0.61,0.61
	c0,0.34,0.28,0.61,0.61,0.61h49.65c0.34,0,0.61-0.28,0.61-0.61C66.55,32.07,66.28,31.8,65.94,31.8L65.94,31.8z M26.16,28.73h45.57
	v-9.14H26.16V28.73L26.16,28.73z M61.59,23.11c0-0.43-0.11-0.79-0.32-1.06c-0.21-0.27-0.47-0.45-0.79-0.54
	c-0.2-0.05-0.64-0.08-1.31-0.08h-1.77v5.46h1.11v-2.06h0.72c0.5,0,0.88-0.03,1.14-0.08c0.19-0.04,0.38-0.13,0.57-0.26
	c0.19-0.13,0.34-0.31,0.46-0.54C61.53,23.73,61.59,23.45,61.59,23.11L61.59,23.11z M54.48,22.08c-0.48-0.5-1.13-0.75-1.93-0.75
	c-0.44,0-0.84,0.07-1.18,0.22c-0.26,0.11-0.49,0.27-0.71,0.49c-0.21,0.22-0.39,0.47-0.51,0.75c-0.17,0.38-0.25,0.85-0.25,1.4
	c0,0.87,0.24,1.56,0.72,2.05c0.48,0.5,1.13,0.75,1.94,0.75c0.8,0,1.44-0.25,1.92-0.75c0.48-0.5,0.72-1.19,0.72-2.07
	C55.21,23.28,54.96,22.58,54.48,22.08L54.48,22.08z M47.65,21.43h-1.11v2.15h-2.15v-2.15h-1.11v5.46h1.11v-2.39h2.15v2.39h1.11
	V21.43L47.65,21.43z M40.79,24.43c-0.15-0.24-0.35-0.42-0.6-0.56c-0.26-0.13-0.65-0.27-1.19-0.39c-0.54-0.13-0.87-0.25-1.01-0.37
	c-0.11-0.09-0.16-0.2-0.16-0.33c0-0.14,0.06-0.26,0.17-0.34c0.18-0.13,0.43-0.2,0.75-0.2c0.31,0,0.54,0.06,0.69,0.19
	c0.15,0.12,0.25,0.33,0.3,0.61L40.85,23c-0.02-0.51-0.2-0.91-0.54-1.22c-0.34-0.3-0.86-0.46-1.54-0.46c-0.42,0-0.78,0.06-1.07,0.19
	c-0.3,0.13-0.52,0.31-0.68,0.55c-0.16,0.24-0.24,0.5-0.24,0.78c0,0.43,0.17,0.8,0.5,1.1c0.24,0.21,0.65,0.4,1.24,0.54
	c0.46,0.11,0.75,0.19,0.88,0.24c0.19,0.07,0.32,0.14,0.4,0.24c0.07,0.09,0.11,0.2,0.11,0.33c0,0.2-0.09,0.38-0.27,0.53
	c-0.18,0.15-0.45,0.23-0.8,0.23c-0.33,0-0.6-0.08-0.8-0.25c-0.2-0.17-0.33-0.43-0.39-0.79l-1.08,0.11c0.07,0.61,0.29,1.07,0.66,1.39
	c0.37,0.32,0.9,0.48,1.59,0.48c0.47,0,0.87-0.07,1.19-0.2c0.32-0.13,0.56-0.34,0.74-0.61c0.17-0.27,0.26-0.57,0.26-0.88
	C41.01,24.96,40.93,24.67,40.79,24.43L40.79,24.43z M51.04,24.16c0,0.62,0.14,1.09,0.43,1.41c0.29,0.32,0.65,0.48,1.09,0.48
	c0.44,0,0.8-0.16,1.09-0.48c0.28-0.32,0.42-0.79,0.42-1.43c0-0.63-0.14-1.09-0.41-1.4c-0.27-0.31-0.64-0.46-1.1-0.46
	c-0.46,0-0.82,0.16-1.1,0.47C51.18,23.06,51.04,23.53,51.04,24.16L51.04,24.16z M58.51,22.35v1.56h0.6c0.43,0,0.72-0.03,0.87-0.09
	c0.15-0.06,0.26-0.15,0.34-0.27c0.08-0.12,0.12-0.26,0.12-0.43c0-0.2-0.06-0.36-0.17-0.49c-0.12-0.13-0.26-0.21-0.44-0.24
	c-0.13-0.02-0.39-0.04-0.79-0.04H58.51L58.51,22.35z M63.21,70.8H34.68H20.72h-1.23h-3.85c-0.38,0-0.73,0.16-0.99,0.41
	c-0.25,0.25-0.41,0.6-0.41,0.99s0.16,0.73,0.41,0.99c0.25,0.25,0.6,0.41,0.99,0.41h66.61c0.38,0,0.73-0.16,0.99-0.41
	c0.25-0.25,0.41-0.6,0.41-0.99s-0.16-0.73-0.41-0.99c-0.25-0.25-0.6-0.41-0.99-0.41H78.4h-1.23H63.21z"/>
</svg>
