<?xml version="1.0" encoding="utf-8"?>
<!-- Generator: Adobe Illustrator 25.0.0, SVG Export Plug-In . SVG Version: 6.00 Build 0)  -->
<svg version="1.1" id="Layer_1" xmlns="http://www.w3.org/2000/svg" xmlns:xlink="http://www.w3.org/1999/xlink" x="0px" y="0px"
	 viewBox="0 0 80 80" style="enable-background:new 0 0 80 80;" xml:space="preserve">
<style type="text/css">
	.st0{fill:#8E8D8A;}
</style>
<path class="st0" d="M50,31.5H20c-0.28,0-0.5-0.22-0.5-0.5s0.22-0.5,0.5-0.5h30c0.28,0,0.5,0.22,0.5,0.5S50.28,31.5,50,31.5z"/>
<path class="st0" d="M60,31.5h-7c-0.28,0-0.5-0.22-0.5-0.5s0.22-0.5,0.5-0.5h7c0.28,0,0.5,0.22,0.5,0.5S60.28,31.5,60,31.5z"/>
<path class="st0" d="M55,38.5h-2c-0.28,0-0.5-0.22-0.5-0.5s0.22-0.5,0.5-0.5h2c0.28,0,0.5,0.22,0.5,0.5S55.28,38.5,55,38.5z"/>
<path class="st0" d="M51,38.5h-1c-0.28,0-0.5-0.22-0.5-0.5s0.22-0.5,0.5-0.5h1c0.28,0,0.5,0.22,0.5,0.5S51.28,38.5,51,38.5z"/>
<path class="st0" d="M61,56h-2V35h1c2.21,0,4-1.79,4-4c0-2.21-1.79-4-4-4h-1v-9H21v9h-1c-2.21,0-4,1.79-4,4c0,2.21,1.79,4,4,4h1v21
	h-2c-1.66,0-3,1.34-3,3s1.34,3,3,3h42c1.66,0,3-1.34,3-3S62.66,56,61,56z M23,20h34v7H23V20z M20,33c-1.1,0-2-0.9-2-2
	c0-1.1,0.9-2,2-2h40c1.1,0,2,0.9,2,2c0,1.1-0.9,2-2,2H20z M23,35h34v21h-7V41H30v15h-7V35z M39,56h-7V43h7V56z M41,43h7v13h-7V43z
	 M61,60H19c-0.55,0-1-0.45-1-1s0.45-1,1-1h42c0.55,0,1,0.45,1,1S61.55,60,61,60z"/>
<path class="st0" d="M37,50.5c-0.28,0-0.5-0.22-0.5-0.5v-2c0-0.28,0.22-0.5,0.5-0.5s0.5,0.22,0.5,0.5v2
	C37.5,50.28,37.28,50.5,37,50.5z"/>
<path class="st0" d="M43,50.5c-0.28,0-0.5-0.22-0.5-0.5v-2c0-0.28,0.22-0.5,0.5-0.5s0.5,0.22,0.5,0.5v2
	C43.5,50.28,43.28,50.5,43,50.5z"/>
<g>
	<path class="st0" d="M34.34,22.62c-0.01-0.02-0.05-0.05-0.13-0.09s-0.16-0.09-0.27-0.14c-0.11-0.05-0.23-0.09-0.35-0.13
		s-0.26-0.05-0.38-0.05c-0.17,0-0.3,0.03-0.39,0.09c-0.09,0.06-0.14,0.15-0.14,0.26c0,0.1,0.04,0.17,0.11,0.23
		c0.07,0.06,0.17,0.1,0.3,0.15c0.13,0.04,0.29,0.09,0.49,0.15c0.27,0.07,0.51,0.16,0.71,0.26c0.2,0.1,0.35,0.23,0.46,0.39
		c0.11,0.16,0.16,0.37,0.16,0.63c0,0.24-0.04,0.44-0.13,0.6s-0.21,0.3-0.36,0.4c-0.15,0.1-0.32,0.17-0.51,0.22
		c-0.19,0.04-0.39,0.07-0.59,0.07c-0.21,0-0.42-0.02-0.64-0.06s-0.43-0.1-0.63-0.18s-0.38-0.17-0.55-0.29l0.43-0.86
		c0.02,0.02,0.07,0.06,0.16,0.11s0.2,0.11,0.33,0.17c0.13,0.06,0.27,0.11,0.43,0.15s0.32,0.07,0.49,0.07c0.18,0,0.31-0.03,0.39-0.08
		s0.13-0.13,0.13-0.23c0-0.11-0.04-0.19-0.13-0.25s-0.21-0.11-0.37-0.16s-0.33-0.1-0.53-0.16c-0.26-0.08-0.47-0.17-0.64-0.27
		s-0.3-0.22-0.38-0.36c-0.08-0.14-0.12-0.32-0.12-0.54c0-0.3,0.07-0.55,0.21-0.75c0.14-0.21,0.33-0.36,0.57-0.47s0.5-0.16,0.79-0.16
		c0.2,0,0.39,0.02,0.58,0.07c0.19,0.05,0.36,0.11,0.52,0.18s0.31,0.14,0.44,0.22L34.34,22.62z"/>
	<path class="st0" d="M39.44,21.37v4.26h-0.98v-1.75h-1.7v1.75h-0.98v-4.26h0.98v1.65h1.7v-1.65H39.44z"/>
	<path class="st0" d="M42.42,25.66c-0.32,0-0.61-0.06-0.87-0.18s-0.48-0.29-0.67-0.49c-0.19-0.21-0.33-0.44-0.43-0.7
		c-0.1-0.26-0.15-0.53-0.15-0.8c0-0.28,0.05-0.55,0.16-0.81c0.11-0.26,0.25-0.48,0.44-0.69c0.19-0.2,0.42-0.36,0.68-0.48
		s0.54-0.17,0.85-0.17c0.32,0,0.6,0.06,0.86,0.18c0.26,0.12,0.48,0.29,0.67,0.5s0.33,0.44,0.43,0.7s0.15,0.52,0.15,0.79
		c0,0.28-0.05,0.55-0.16,0.81c-0.11,0.26-0.25,0.49-0.45,0.69c-0.19,0.2-0.42,0.36-0.67,0.48C43.01,25.6,42.73,25.66,42.42,25.66z
		 M41.31,23.5c0,0.16,0.02,0.32,0.07,0.48c0.05,0.15,0.12,0.29,0.21,0.41c0.09,0.12,0.21,0.22,0.35,0.29
		c0.14,0.07,0.3,0.11,0.48,0.11c0.19,0,0.35-0.04,0.49-0.11s0.26-0.17,0.35-0.3s0.16-0.26,0.21-0.42c0.05-0.15,0.07-0.31,0.07-0.47
		c0-0.16-0.03-0.32-0.07-0.47c-0.05-0.15-0.12-0.29-0.22-0.41s-0.21-0.22-0.35-0.28c-0.14-0.07-0.3-0.1-0.47-0.1
		c-0.19,0-0.35,0.04-0.49,0.11c-0.14,0.07-0.25,0.17-0.35,0.29c-0.1,0.12-0.16,0.26-0.21,0.41C41.33,23.18,41.31,23.34,41.31,23.5z"
		/>
	<path class="st0" d="M45.42,25.63v-4.26h1.82c0.2,0,0.39,0.04,0.56,0.12s0.32,0.19,0.44,0.33c0.12,0.14,0.22,0.29,0.29,0.46
		c0.07,0.17,0.1,0.35,0.1,0.53c0,0.24-0.06,0.48-0.17,0.7s-0.27,0.4-0.47,0.54c-0.2,0.14-0.44,0.21-0.72,0.21H46.4v1.37H45.42z
		 M46.4,23.4h0.8c0.07,0,0.14-0.02,0.21-0.07s0.12-0.11,0.16-0.2c0.04-0.09,0.06-0.2,0.06-0.32c0-0.13-0.02-0.24-0.07-0.33
		c-0.04-0.09-0.1-0.15-0.17-0.19s-0.14-0.06-0.22-0.06H46.4V23.4z"/>
</g>
<g>
	<path class="st0" d="M38,3c20.4,0,37,16.6,37,37S58.4,77,38,77S1,60.4,1,40S17.6,3,38,3 M38,2C17.01,2,0,19.01,0,40s17.01,38,38,38
		s38-17.01,38-38S58.99,2,38,2L38,2z"/>
</g>
<g>
	<path class="st0" d="M42,3c20.4,0,37,16.6,37,37S62.4,77,42,77S5,60.4,5,40S21.6,3,42,3 M42,2C21.01,2,4,19.01,4,40s17.01,38,38,38
		s38-17.01,38-38S62.99,2,42,2L42,2z"/>
</g>
</svg>
