<?xml version="1.0" encoding="utf-8"?>
<!-- Generator: Adobe Illustrator 24.2.1, SVG Export Plug-In . SVG Version: 6.00 Build 0)  -->
<svg version="1.1" id="Layer_1" xmlns="http://www.w3.org/2000/svg" xmlns:xlink="http://www.w3.org/1999/xlink" x="0px" y="0px"
	 viewBox="0 0 96 96" style="enable-background:new 0 0 96 96;" xml:space="preserve">
<style type="text/css">
	.st0{fill:#8E8D8A;}
	.st1{fill:none;stroke:#8E8D8A;stroke-width:2;stroke-miterlimit:10;}
</style>
<g>
	<path class="st0" d="M48,3c24.81,0,45,20.19,45,45c0,24.81-20.19,45-45,45C23.19,93,3,72.81,3,48C3,23.19,23.19,3,48,3 M48,1
		C22.04,1,1,22.04,1,48s21.04,47,47,47c25.96,0,47-21.04,47-47S73.96,1,48,1L48,1z"/>
</g>
<g id="order_picking_1_">
	<g>
		<g>
			<line class="st1" x1="48.17" y1="48.98" x2="74.21" y2="42.47"/>
			<polyline class="st1" points="74.21,54.4 74.21,71.82 48.17,81.53 48.17,64.17 			"/>
			<polyline class="st1" points="48.17,48.98 55.77,59.83 81.81,51.15 74.21,42.47 59.02,39.21 			"/>
			<line class="st1" x1="48.17" y1="48.98" x2="22.13" y2="42.47"/>
			<polyline class="st1" points="22.13,54.4 22.13,71.82 48.17,81.53 			"/>
			<polyline class="st1" points="26.85,55.25 14.53,51.15 22.13,42.47 37.32,39.21 			"/>
			<polyline class="st1" points="48.17,48.98 40.57,59.83 34.17,57.69 			"/>
		</g>
		<g>
			<path class="st0" d="M51.59,16.25v12.11v2h2h1.36l-6.79,8.83l-6.79-8.83h1.36h2v-2V16.25H51.59 M53.59,14.25H42.74v14.11h-5.43
				l10.85,14.11l10.85-14.11h-5.43V14.25L53.59,14.25z"/>
		</g>
	</g>
</g>
</svg>
