<?xml version="1.0" encoding="utf-8"?>
<!-- Generator: Adobe Illustrator 25.0.0, SVG Export Plug-In . SVG Version: 6.00 Build 0)  -->
<svg version="1.1" id="Layer_1" xmlns="http://www.w3.org/2000/svg" xmlns:xlink="http://www.w3.org/1999/xlink" x="0px" y="0px"
	 viewBox="0 0 80 80" style="enable-background:new 0 0 80 80;" xml:space="preserve">
<style type="text/css">
	.st0{fill:#8E8D8A;}
</style>
<path class="st0" d="M61,50H26.9L22,18.9c-0.1-0.5-0.5-0.9-1-0.9h-4c-0.5,0-1,0.5-1,1s0.5,1,1,1h3.1L25,51.1c0.1,0.5,0.5,0.9,1,0.9
	h35c0.5,0,1-0.5,1-1S61.5,50,61,50z"/>
<path class="st0" d="M57,54c-2.2,0-4,1.8-4,4s1.8,4,4,4s4-1.8,4-4S59.2,54,57,54z M57,60.4c-1.3,0-2.4-1.1-2.4-2.4s1.1-2.4,2.4-2.4
	s2.4,1.1,2.4,2.4S58.3,60.4,57,60.4z"/>
<path class="st0" d="M30,54c-2.2,0-4,1.8-4,4s1.8,4,4,4s4-1.8,4-4S32.2,54,30,54z M30,60.4c-1.3,0-2.4-1.1-2.4-2.4s1.1-2.4,2.4-2.4
	c1.3,0,2.4,1.1,2.4,2.4S31.3,60.4,30,60.4z"/>
<path class="st0" d="M63,25H27c-0.3,0-0.6,0.1-0.8,0.3S26,25.8,26,26.1l3,21c0.1,0.5,0.5,0.9,1,0.9h30.5c0.5,0,0.9-0.4,1-0.9l2.5-21
	c0-0.3-0.1-0.6-0.2-0.8S63.3,25,63,25z M28.1,27H35c0,0,0,0.1,0,0.1l0.9,9.9h-6.5L28.1,27z M30.7,46l-1-7h6.4l0.8,7H30.7z M44,46
	h-5.1l-0.8-7H44V46z M44,37h-6.1L37,27h7V37z M52,46h-6v-7h6.5L52,46z M52.5,37H46V27h7L52.5,37z M59.8,46H54l0.4-7h6.1L59.8,46z
	 M60.8,37h-6.2L55,27c0,0,0,0,0,0h6.9L60.8,37z"/>
<g>
	<path class="st0" d="M38,3c20.4,0,37,16.6,37,37S58.4,77,38,77S1,60.4,1,40S17.6,3,38,3 M38,2C17,2,0,19,0,40s17,38,38,38
		s38-17,38-38S59,2,38,2L38,2z"/>
</g>
<g>
	<path class="st0" d="M42,3c20.4,0,37,16.6,37,37S62.4,77,42,77S5,60.4,5,40S21.6,3,42,3 M42,2C21,2,4,19,4,40s17,38,38,38
		s38-17,38-38S63,2,42,2L42,2z"/>
</g>
</svg>
