<?xml version="1.0" encoding="utf-8"?>
<!-- Generator: Adobe Illustrator 24.2.1, SVG Export Plug-In . SVG Version: 6.00 Build 0)  -->
<svg version="1.1" id="Layer_1" xmlns="http://www.w3.org/2000/svg" xmlns:xlink="http://www.w3.org/1999/xlink" x="0px" y="0px"
	 viewBox="0 0 96 96" style="enable-background:new 0 0 96 96;" xml:space="preserve">
<style type="text/css">
	.st0{fill:#8E8D8A;}
	.st1{fill:#8E8D8A;stroke:#FFFFFF;stroke-miterlimit:10;}
	.st2{fill:#8E8D8A;stroke:#FFFFFF;stroke-width:0.8267;stroke-miterlimit:10;}
</style>
<g>
	<g>
		<path class="st0" d="M48,3.63c24.47,0,44.37,19.9,44.37,44.37c0,24.47-19.9,44.37-44.37,44.37S3.63,72.47,3.63,48
			C3.63,23.53,23.53,3.63,48,3.63 M48,1C22.04,1,1,22.04,1,48s21.04,47,47,47c25.96,0,47-21.04,47-47S73.96,1,48,1L48,1z"/>
	</g>
</g>
<g>
	<path class="st1" d="M52.08,62.41c0.08-0.8-0.51-1.51-1.32-1.59c-1.16-0.11-2.32-0.18-3.48-0.21v-8.26
		c1.12-0.41,2.02-1.29,2.45-2.41h5.98c0.81,0,1.46-0.65,1.46-1.46c0-0.81-0.65-1.46-1.46-1.46h-5.95c-0.42-1.15-1.33-2.06-2.48-2.48
		v-5.84c1.19-0.44,2.13-1.41,2.53-2.62c2.5-0.19,4.96-0.55,7.39-1.09c0.64,2.48,1.1,5.01,1.38,7.59c0.08,0.75,0.71,1.3,1.45,1.3
		c0.05,0,0.11,0,0.16-0.01c0.8-0.09,1.38-0.81,1.29-1.61c-0.29-2.71-0.78-5.38-1.45-7.99c1.54-0.44,3.06-0.95,4.57-1.53
		c0.76,0.8,1.83,1.3,3.01,1.3c0.38,0,0.74-0.05,1.09-0.15c3.05,4.79,4.53,10.49,4.19,16.17c-0.05,0.8,0.56,1.5,1.37,1.54
		c0.03,0,0.06,0,0.09,0c0.77,0,1.41-0.6,1.46-1.37c0.38-6.35-1.29-12.72-4.73-18.06c0.44-0.66,0.69-1.45,0.69-2.3
		c0-2.29-1.86-4.15-4.15-4.15c-0.61,0-1.2,0.13-1.72,0.37c-5.51-4.95-12.58-7.67-20.03-7.67c0,0,0,0-0.01,0c-0.01,0-0.02,0-0.03,0
		c0,0,0,0-0.01,0c0,0-0.01,0-0.01,0c-7.41,0.01-14.44,2.71-19.94,7.63c-0.54-0.25-1.14-0.4-1.77-0.4c-2.29,0-4.15,1.86-4.15,4.15
		c0,0.86,0.26,1.66,0.72,2.33c-2.77,4.28-4.4,9.19-4.74,14.28c-0.04,0.53-0.06,1.06-0.06,1.59c-0.05,0.14-0.07,0.29-0.07,0.45
		c0,0.16,0.03,0.31,0.07,0.45c0.08,4.64,1.22,9.2,3.37,13.34c2.53,4.88,6.35,8.96,11.03,11.81c4.69,2.85,10.07,4.36,15.56,4.36
		c0.81,0,1.46-0.65,1.46-1.46V63.54c1.07,0.03,2.14,0.09,3.21,0.19C51.29,63.8,52.01,63.22,52.08,62.41z M40.03,74.91
		c-1.51-2.59-2.8-5.33-3.84-8.14c0.75-0.63,1.28-1.52,1.43-2.53c2.23-0.39,4.49-0.62,6.75-0.69v11.95
		C42.89,75.41,41.44,75.22,40.03,74.91z M18.8,47.03c0.24-4.61,1.67-9.15,4.25-13.17c0.34,0.09,0.69,0.14,1.05,0.14
		c1.18,0,2.25-0.5,3-1.29c1.5,0.59,3.03,1.1,4.57,1.54c-0.86,3.35-1.41,6.79-1.64,10.24c-1.23,0.38-2.22,1.33-2.67,2.54H18.8z
		 M44.37,21.37v9.57c-1.04,0.4-1.88,1.21-2.32,2.23c-2.27-0.18-4.53-0.52-6.74-1.01c1.11-3.51,2.58-6.9,4.39-10.11
		C41.23,21.68,42.8,21.46,44.37,21.37z M45.86,49.69c-0.68,0-1.23-0.55-1.23-1.23s0.55-1.23,1.23-1.23c0.68,0,1.23,0.55,1.23,1.23
		S46.54,49.69,45.86,49.69z M41.96,47.03h-6.79c-0.39-1.06-1.2-1.92-2.22-2.37c0.22-3.27,0.74-6.52,1.56-9.69
		c2.43,0.55,4.9,0.92,7.4,1.12c0.38,1.2,1.3,2.15,2.46,2.61v5.89C43.25,45.01,42.37,45.91,41.96,47.03z M31.27,47.22
		c0.68,0,1.23,0.55,1.23,1.23s-0.55,1.23-1.23,1.23c-0.68,0-1.23-0.55-1.23-1.23S30.59,47.22,31.27,47.22z M44.63,34.82
		c0-0.01,0-0.02,0-0.04c0-0.02,0-0.04,0-0.06c0.04-0.64,0.58-1.15,1.23-1.15c0.68,0,1.23,0.55,1.23,1.23s-0.55,1.23-1.23,1.23
		C45.18,36.05,44.63,35.5,44.63,34.82z M32.47,31.44c-1.42-0.41-2.83-0.88-4.22-1.42c0-0.06,0-0.12,0-0.18
		c0-0.59-0.12-1.15-0.35-1.66c2.38-2.11,5.02-3.73,7.81-4.87C34.43,25.93,33.35,28.65,32.47,31.44z M32.28,63.59
		c0-0.68,0.55-1.23,1.23-1.23s1.23,0.55,1.23,1.23c0,0.68-0.55,1.23-1.23,1.23S32.28,64.27,32.28,63.59z M37.03,61.37
		c-0.65-1.02-1.73-1.74-2.99-1.9c-0.52-2.4-0.87-4.79-1.05-7.24c0.98-0.45,1.76-1.27,2.15-2.29h6.84c0.42,1.09,1.29,1.96,2.38,2.38
		v8.3C41.91,60.7,39.45,60.95,37.03,61.37z M49.68,33.18c-0.45-1.04-1.32-1.87-2.39-2.26v-9.55c1.56,0.08,3.12,0.3,4.65,0.66
		c1.85,3.25,3.34,6.65,4.46,10.17C54.19,32.67,51.94,33,49.68,33.18z M59.23,31.48c-0.88-2.81-1.99-5.55-3.32-8.2
		c2.83,1.14,5.51,2.78,7.91,4.92c-0.24,0.52-0.37,1.1-0.37,1.71c0,0.05,0,0.11,0,0.16C62.07,30.6,60.66,31.07,59.23,31.48z
		 M68.85,29.9c0,0.37-0.17,0.7-0.43,0.93c-0.01,0.01-0.03,0.02-0.04,0.03c-0.04,0.03-0.08,0.06-0.11,0.09
		c-0.19,0.12-0.41,0.19-0.65,0.19c-0.68,0-1.23-0.55-1.23-1.23c0-0.68,0.55-1.23,1.23-1.23C68.29,28.67,68.85,29.22,68.85,29.9z
		 M24.11,28.6c0.27,0,0.53,0.09,0.73,0.24c0.03,0.05,0.07,0.09,0.11,0.13c0.05,0.05,0.1,0.09,0.15,0.13
		c0.15,0.2,0.24,0.45,0.24,0.73c0,0.68-0.55,1.23-1.23,1.23c-0.68,0-1.23-0.55-1.23-1.23C22.87,29.16,23.43,28.6,24.11,28.6z
		 M18.81,49.95h8.58c0.46,1.19,1.45,2.11,2.68,2.48c0.19,2.61,0.57,5.16,1.13,7.72c-1.03,0.7-1.74,1.85-1.83,3.17
		c-1.63,0.55-3.23,1.18-4.8,1.89c-1.03-1.32-1.96-2.74-2.75-4.27C20.02,57.45,19.02,53.71,18.81,49.95z M26.6,67.5
		c1.19-0.51,2.4-0.98,3.62-1.39c0.74,0.97,1.91,1.61,3.22,1.63c0.76,2.04,1.63,4.03,2.62,5.97C32.51,72.34,29.28,70.23,26.6,67.5z"
		/>
	<path class="st1" d="M58,50.29c0,3.68,2.99,6.68,6.68,6.68c3.68,0,6.68-2.99,6.68-6.68c0-3.68-2.99-6.68-6.68-6.68
		C61,43.62,58,46.61,58,50.29z M68.44,50.29c0,2.07-1.69,3.76-3.76,3.76c-2.07,0-3.76-1.69-3.76-3.76c0-2.07,1.69-3.76,3.76-3.76
		C66.75,46.54,68.44,48.22,68.44,50.29z"/>
	<path class="st2" d="M77.77,67.89c0-4.85-3.94-8.79-8.79-8.79c0,0,0,0,0,0h-8.59c-4.85,0-8.79,3.94-8.79,8.79v8.05
		c0,1.35,1.1,2.45,2.45,2.45h21.24c0.01,0,0.01,0,0.02,0c0.01,0,0.01,0,0.02,0c1.35,0,2.45-1.1,2.45-2.45V67.89L77.77,67.89
		L77.77,67.89z M60.38,62.02h8.59c0,0,0,0,0,0c0,0,0,0,0,0c0,0,0,0,0,0c3.24,0,5.87,2.63,5.87,5.87v7.58h-2.37v-7.47
		c0-0.66-0.54-1.2-1.2-1.2s-1.2,0.54-1.2,1.2v7.47H59.21v-7.47c0-0.66-0.54-1.2-1.2-1.2c-0.66,0-1.2,0.54-1.2,1.2v7.47h-2.3v-7.58
		C54.51,64.65,57.15,62.02,60.38,62.02z"/>
</g>
</svg>
