<?xml version="1.0" encoding="utf-8"?>
<!-- Generator: Adobe Illustrator 24.2.1, SVG Export Plug-In . SVG Version: 6.00 Build 0)  -->
<svg version="1.1" id="Layer_1" xmlns="http://www.w3.org/2000/svg" xmlns:xlink="http://www.w3.org/1999/xlink" x="0px" y="0px"
	 viewBox="0 0 139 48" style="enable-background:new 0 0 139 48;" xml:space="preserve">
<style type="text/css">
	.st0{fill:#E85A50;}
</style>
<g>
	<g>
		<path class="st0" d="M45.46,2L45.46,2c2.96,0,5.85,0.59,8.6,1.76c11.16,4.75,16.38,17.69,11.63,28.85
			C62.22,40.74,54.28,46,45.43,46c-2.96,0-5.85-0.59-8.6-1.76C25.68,39.49,20.46,26.55,25.2,15.39C28.66,7.26,36.61,2,45.46,2
			 M45.45,1c-8.94,0-17.45,5.25-21.17,14c-4.97,11.69,0.48,25.19,12.16,30.16c2.94,1.25,5.99,1.84,8.99,1.84
			c8.94,0,17.45-5.25,21.17-14c4.97-11.69-0.48-25.19-12.16-30.16C51.51,1.59,48.46,1,45.45,1L45.45,1z"/>
	</g>
	<g>
		<path class="st0" d="M47.44,2L47.44,2c2.96,0,5.85,0.59,8.6,1.76C67.2,8.51,72.42,21.45,67.67,32.61
			C64.21,40.74,56.26,46,47.42,46c-2.96,0-5.85-0.59-8.6-1.76c-5.41-2.3-9.59-6.57-11.79-12.01c-2.2-5.45-2.14-11.43,0.16-16.83
			C30.65,7.26,38.6,2,47.44,2 M47.44,1C38.5,1,29.99,6.25,26.27,15c-4.97,11.69,0.48,25.19,12.16,30.16
			c2.94,1.25,5.99,1.84,8.99,1.84c8.94,0,17.45-5.25,21.17-14c4.97-11.69-0.48-25.19-12.16-30.16C53.5,1.59,50.44,1,47.44,1L47.44,1
			z"/>
	</g>
	<g>
		<path class="st0" d="M3.84,22.38v4.54H2.63v-4.54H1v-1.05h4.46v1.05H3.84z"/>
		<path class="st0" d="M12.75,26.91h-1.2v-2.17H8.93v2.17h-1.2v-5.58h1.2v2.37h2.62v-2.37h1.2V26.91z"/>
		<path class="st0" d="M16.73,23.62h2.67v1.05h-2.67v1.19h3.02v1.05h-4.23v-5.58h4.23v1.05h-3.02V23.62z"/>
		<path class="st0" d="M31.86,24.26c0,0.1-0.01,0.21-0.02,0.32c-0.12,1.43-1.41,2.44-2.92,2.44c-1.66,0-3.01-1.3-3.01-2.89
			c0-1.59,1.35-2.89,3.01-2.89c1.04,0,1.98,0.53,2.53,1.34l-1.04,0.6c-0.34-0.47-0.89-0.85-1.49-0.85c-0.99,0-1.81,0.84-1.81,1.79
			c0,0.95,0.82,1.8,1.81,1.8c0.72,0,1.45-0.47,1.63-1.06h-2.08v-1.06h3.38C31.85,23.96,31.86,24.13,31.86,24.26z"/>
		<path class="st0" d="M38.46,26.91h-4.14v-5.58h1.21v4.54h2.92V26.91z"/>
		<path class="st0" d="M40.12,24.12c0-1.59,1.34-2.89,3-2.89c1.66,0,3.02,1.31,3.02,2.89c0,1.6-1.35,2.9-3.02,2.9
			C41.46,27.02,40.12,25.72,40.12,24.12z M41.32,24.12c0,0.96,0.81,1.81,1.8,1.81c1,0,1.8-0.85,1.8-1.81c0-0.95-0.8-1.79-1.8-1.79
			C42.13,22.32,41.32,23.16,41.32,24.12z"/>
		<path class="st0" d="M52.08,24c0.5,0.17,0.93,0.7,0.93,1.3c0,1.24-0.95,1.62-1.95,1.62h-2.41v-5.58h2.32
			c1.08,0,1.82,0.4,1.82,1.55C52.78,23.39,52.49,23.83,52.08,24z M50.99,23.55c0.43,0,0.58-0.33,0.58-0.62
			c0-0.29-0.25-0.55-0.57-0.55h-1.14v1.17H50.99z M51.81,25.23c0-0.34-0.25-0.63-0.77-0.63h-1.18v1.27h1.2
			C51.55,25.87,51.81,25.56,51.81,25.23z"/>
		<path class="st0" d="M57.74,21.16l3.06,5.76h-1.32l-0.44-0.86h-2.6l-0.43,0.86h-1.33L57.74,21.16z M58.46,25.03l-0.72-1.46
			l-0.71,1.46H58.46z"/>
		<path class="st0" d="M66.91,26.91h-4.14v-5.58h1.21v4.54h2.92V26.91z"/>
		<path class="st0" d="M75.7,27.02c-1.66,0-3.01-1.3-3.01-2.89c0-1.59,1.35-2.89,3.01-2.89c1.12,0,2.12,0.62,2.65,1.53l-1.12,0.44
			c-0.34-0.48-0.91-0.87-1.53-0.87c-0.99,0-1.79,0.84-1.79,1.79c0,0.95,0.8,1.8,1.79,1.8c0.62,0,1.19-0.4,1.53-0.89l1.12,0.44
			C77.81,26.4,76.82,27.02,75.7,27.02z"/>
		<path class="st0" d="M80.43,24.12c0-1.59,1.34-2.89,3-2.89c1.66,0,3.02,1.31,3.02,2.89c0,1.6-1.35,2.9-3.02,2.9
			C81.77,27.02,80.43,25.72,80.43,24.12z M81.62,24.12c0,0.96,0.81,1.81,1.8,1.81c1,0,1.8-0.85,1.8-1.81c0-0.95-0.8-1.79-1.8-1.79
			C82.43,22.32,81.62,23.16,81.62,24.12z"/>
		<path class="st0" d="M93.09,26.91h-4.14v-5.58h1.21v4.54h2.92V26.91z"/>
		<path class="st0" d="M99.49,26.91h-4.14v-5.58h1.21v4.54h2.92V26.91z"/>
		<path class="st0" d="M102.96,23.62h2.67v1.05h-2.67v1.19h3.02v1.05h-4.23v-5.58h4.23v1.05h-3.02V23.62z"/>
		<path class="st0" d="M111.17,27.02c-1.66,0-3.01-1.3-3.01-2.89c0-1.59,1.35-2.89,3.01-2.89c1.12,0,2.12,0.62,2.65,1.53l-1.12,0.44
			c-0.34-0.48-0.91-0.87-1.53-0.87c-0.99,0-1.79,0.84-1.79,1.79c0,0.95,0.8,1.8,1.79,1.8c0.62,0,1.19-0.4,1.53-0.89l1.12,0.44
			C113.28,26.4,112.29,27.02,111.17,27.02z"/>
		<path class="st0" d="M118.38,22.38v4.54h-1.21v-4.54h-1.63v-1.05H120v1.05H118.38z"/>
		<path class="st0" d="M122.41,26.91v-5.58h1.21v5.58H122.41z"/>
		<path class="st0" d="M128.76,27.05l-2.82-5.71h1.33l1.49,3.09l1.5-3.09h1.34L128.76,27.05z"/>
		<path class="st0" d="M134.96,23.62h2.67v1.05h-2.67v1.19h3.02v1.05h-4.23v-5.58h4.23v1.05h-3.02V23.62z"/>
	</g>
</g>
</svg>
