<?xml version="1.0" encoding="utf-8"?>
<!-- Generator: Adobe Illustrator 24.3.0, SVG Export Plug-In . SVG Version: 6.00 Build 0)  -->
<svg version="1.1" id="Layer_1" xmlns="http://www.w3.org/2000/svg" xmlns:xlink="http://www.w3.org/1999/xlink" x="0px" y="0px"
	 viewBox="0 0 50 50" style="enable-background:new 0 0 50 50;" xml:space="preserve">
<style type="text/css">
	.st0{fill:#E98074;}
</style>
<g>
	<g>
		<path class="st0" d="M24,1.25C37.1,1.25,47.75,11.9,47.75,25S37.1,48.75,24,48.75S0.25,38.1,0.25,25S10.9,1.25,24,1.25 M24,1
			C10.75,1,0,11.75,0,25s10.75,24,24,24s24-10.75,24-24S37.25,1,24,1L24,1z"/>
	</g>
	<g>
		<path class="st0" d="M26,1.25C39.1,1.25,49.75,11.9,49.75,25S39.1,48.75,26,48.75S2.25,38.1,2.25,25S12.9,1.25,26,1.25 M26,1
			C12.75,1,2,11.75,2,25s10.75,24,24,24s24-10.75,24-24S39.25,1,26,1L26,1z"/>
	</g>
</g>
</svg>
