<?xml version="1.0" encoding="utf-8"?>
<!-- Generator: Adobe Illustrator 24.3.0, SVG Export Plug-In . SVG Version: 6.00 Build 0)  -->
<svg version="1.1" id="Layer_1" xmlns="http://www.w3.org/2000/svg" xmlns:xlink="http://www.w3.org/1999/xlink" x="0px" y="0px"
	 viewBox="0 0 100 100" style="enable-background:new 0 0 100 100;" xml:space="preserve">
<style type="text/css">
	.st0{fill:#EAE7DC;}
</style>
<g>
	<path class="st0" d="M48,2.25c26.33,0,47.75,21.42,47.75,47.75S74.33,97.75,48,97.75S0.25,76.33,0.25,50S21.67,2.25,48,2.25 M48,2
		C21.49,2,0,23.49,0,50s21.49,48,48,48s48-21.49,48-48S74.51,2,48,2L48,2z"/>
</g>
<g>
	<path class="st0" d="M52,2.25c26.33,0,47.75,21.42,47.75,47.75S78.33,97.75,52,97.75S4.25,76.33,4.25,50S25.67,2.25,52,2.25 M52,2
		C25.49,2,4,23.49,4,50s21.49,48,48,48s48-21.49,48-48S78.51,2,52,2L52,2z"/>
</g>
</svg>
